<svg xmlns="http://www.w3.org/2000/svg" xmlns:xlink="http://www.w3.org/1999/xlink" width="115" zoomAndPan="magnify" viewBox="0 0 86.25 30.000001" height="40" preserveAspectRatio="xMidYMid meet" version="1.0"><defs><g/></defs><g fill="#737373" fill-opacity="0.302"><g transform="translate(4.144522, 22.461028)"><g><path d="M -0.25 0 C -0.0195312 -0.613281 0.234375 -1.257812 0.515625 -1.9375 C 0.796875 -2.613281 1.070312 -3.3125 1.34375 -4.03125 C 1.613281 -4.757812 1.84375 -5.488281 2.03125 -6.21875 C 2.226562 -7.007812 2.328125 -7.816406 2.328125 -8.640625 C 2.328125 -9.390625 2.25 -10.085938 2.09375 -10.734375 C 1.9375 -11.390625 1.71875 -11.925781 1.4375 -12.34375 L 8.578125 -12.34375 C 8.578125 -10.726562 8.65625 -9.207031 8.8125 -7.78125 C 8.976562 -6.363281 9.25 -5.007812 9.625 -3.71875 C 10.007812 -2.425781 10.546875 -1.1875 11.234375 0 L 5.578125 0 C 5.242188 -0.539062 5.003906 -1.054688 4.859375 -1.546875 C 4.722656 -2.046875 4.65625 -2.515625 4.65625 -2.953125 C 4.65625 -3.585938 4.773438 -4.171875 5.015625 -4.703125 C 5.265625 -5.234375 5.566406 -5.71875 5.921875 -6.15625 C 6.285156 -6.59375 6.644531 -6.984375 7 -7.328125 C 7.351562 -7.679688 7.648438 -7.992188 7.890625 -8.265625 C 8.140625 -8.535156 8.265625 -8.78125 8.265625 -9 C 8.265625 -9.1875 8.191406 -9.304688 8.046875 -9.359375 C 7.898438 -9.421875 7.75 -9.453125 7.59375 -9.453125 C 7.300781 -9.453125 6.9375 -9.382812 6.5 -9.25 C 6.070312 -9.125 5.625 -8.921875 5.15625 -8.640625 C 4.695312 -8.367188 4.265625 -8.03125 3.859375 -7.625 C 3.460938 -7.21875 3.132812 -6.734375 2.875 -6.171875 C 2.625 -5.609375 2.5 -4.960938 2.5 -4.234375 C 2.5 -3.640625 2.609375 -2.988281 2.828125 -2.28125 C 3.054688 -1.582031 3.425781 -0.820312 3.9375 0 Z M -0.25 0 "/></g></g></g><g fill="#737373" fill-opacity="0.302"><g transform="translate(15.130653, 22.461028)"><g><path d="M 2.671875 0 C 2.441406 -0.445312 2.28125 -0.878906 2.1875 -1.296875 C 2.09375 -1.710938 2.046875 -2.113281 2.046875 -2.5 C 2.046875 -3.1875 2.15625 -3.832031 2.375 -4.4375 C 2.601562 -5.039062 2.863281 -5.59375 3.15625 -6.09375 C 3.445312 -6.601562 3.703125 -7.0625 3.921875 -7.46875 C 4.140625 -7.882812 4.25 -8.238281 4.25 -8.53125 C 4.25 -8.8125 4.140625 -9.023438 3.921875 -9.171875 C 3.703125 -9.316406 3.457031 -9.390625 3.1875 -9.390625 C 2.851562 -9.390625 2.484375 -9.3125 2.078125 -9.15625 C 1.679688 -9.007812 1.304688 -8.847656 0.953125 -8.671875 C 0.597656 -8.492188 0.304688 -8.351562 0.078125 -8.25 L 0.078125 -12.34375 L 9.40625 -12.34375 L 9.40625 -8.25 C 9.3125 -8.3125 9.160156 -8.410156 8.953125 -8.546875 C 8.742188 -8.691406 8.5 -8.832031 8.21875 -8.96875 C 7.9375 -9.101562 7.640625 -9.21875 7.328125 -9.3125 C 7.023438 -9.414062 6.734375 -9.46875 6.453125 -9.46875 C 6.085938 -9.46875 5.804688 -9.390625 5.609375 -9.234375 C 5.410156 -9.078125 5.257812 -8.875 5.15625 -8.625 C 5.0625 -8.382812 5 -8.125 4.96875 -7.84375 C 4.945312 -7.5625 4.9375 -7.289062 4.9375 -7.03125 C 4.9375 -6.1875 5.054688 -5.363281 5.296875 -4.5625 C 5.535156 -3.757812 5.847656 -2.976562 6.234375 -2.21875 C 6.628906 -1.457031 7.050781 -0.71875 7.5 0 Z M 2.671875 0 "/></g></g></g><g fill="#737373" fill-opacity="0.302"><g transform="translate(24.610488, 22.461028)"><g><path d="M 0.328125 0 C 0.671875 -0.945312 0.941406 -1.96875 1.140625 -3.0625 C 1.335938 -4.164062 1.4375 -5.28125 1.4375 -6.40625 C 1.4375 -7.414062 1.347656 -8.425781 1.171875 -9.4375 C 0.992188 -10.445312 0.710938 -11.414062 0.328125 -12.34375 C 0.910156 -12.40625 1.46875 -12.453125 2 -12.484375 C 2.539062 -12.523438 3.097656 -12.546875 3.671875 -12.546875 C 4.148438 -12.546875 4.640625 -12.53125 5.140625 -12.5 C 5.648438 -12.476562 6.140625 -12.414062 6.609375 -12.3125 C 7.078125 -12.207031 7.492188 -12.039062 7.859375 -11.8125 C 8.234375 -11.582031 8.519531 -11.265625 8.71875 -10.859375 C 8.914062 -10.453125 9 -9.929688 8.96875 -9.296875 L 9.359375 -9.296875 C 9.535156 -9.953125 9.847656 -10.519531 10.296875 -11 C 10.753906 -11.488281 11.289062 -11.867188 11.90625 -12.140625 C 12.53125 -12.410156 13.175781 -12.546875 13.84375 -12.546875 C 14.207031 -12.546875 14.585938 -12.523438 14.984375 -12.484375 C 15.390625 -12.441406 15.726562 -12.394531 16 -12.34375 C 15.65625 -11.394531 15.382812 -10.375 15.1875 -9.28125 C 14.988281 -8.1875 14.890625 -7.070312 14.890625 -5.9375 C 14.890625 -4.925781 14.976562 -3.914062 15.15625 -2.90625 C 15.332031 -1.894531 15.613281 -0.925781 16 0 L 11.34375 0 C 11.007812 -0.539062 10.769531 -1.054688 10.625 -1.546875 C 10.488281 -2.046875 10.421875 -2.515625 10.421875 -2.953125 C 10.421875 -3.585938 10.539062 -4.171875 10.78125 -4.703125 C 11.03125 -5.234375 11.332031 -5.71875 11.6875 -6.15625 C 12.050781 -6.59375 12.410156 -6.984375 12.765625 -7.328125 C 13.117188 -7.679688 13.414062 -7.992188 13.65625 -8.265625 C 13.90625 -8.535156 14.03125 -8.78125 14.03125 -9 C 14.03125 -9.1875 13.957031 -9.304688 13.8125 -9.359375 C 13.664062 -9.421875 13.515625 -9.453125 13.359375 -9.453125 C 13.066406 -9.453125 12.703125 -9.382812 12.265625 -9.25 C 11.835938 -9.125 11.394531 -8.921875 10.9375 -8.640625 C 10.476562 -8.367188 10.046875 -8.03125 9.640625 -7.625 C 9.234375 -7.21875 8.90625 -6.734375 8.65625 -6.171875 C 8.40625 -5.609375 8.28125 -4.960938 8.28125 -4.234375 C 8.28125 -3.640625 8.390625 -2.988281 8.609375 -2.28125 C 8.828125 -1.582031 9.1875 -0.820312 9.6875 0 L 5.578125 0 C 5.304688 -0.445312 5.082031 -0.914062 4.90625 -1.40625 C 4.738281 -1.90625 4.65625 -2.421875 4.65625 -2.953125 C 4.65625 -3.585938 4.773438 -4.171875 5.015625 -4.703125 C 5.265625 -5.234375 5.566406 -5.71875 5.921875 -6.15625 C 6.285156 -6.59375 6.644531 -6.984375 7 -7.328125 C 7.351562 -7.679688 7.648438 -7.992188 7.890625 -8.265625 C 8.140625 -8.535156 8.265625 -8.78125 8.265625 -9 C 8.265625 -9.1875 8.191406 -9.304688 8.046875 -9.359375 C 7.898438 -9.421875 7.75 -9.453125 7.59375 -9.453125 C 7.300781 -9.453125 6.9375 -9.382812 6.5 -9.25 C 6.070312 -9.125 5.625 -8.921875 5.15625 -8.640625 C 4.695312 -8.367188 4.265625 -8.03125 3.859375 -7.625 C 3.460938 -7.21875 3.132812 -6.734375 2.875 -6.171875 C 2.625 -5.609375 2.5 -4.960938 2.5 -4.234375 C 2.5 -3.640625 2.609375 -2.988281 2.828125 -2.28125 C 3.054688 -1.582031 3.425781 -0.820312 3.9375 0 Z M 0.328125 0 "/></g></g></g><g fill="#737373" fill-opacity="0.302"><g transform="translate(40.950514, 22.461028)"><g><path d="M 5.484375 0.203125 C 4.609375 0.203125 3.84375 0.0195312 3.1875 -0.34375 C 2.53125 -0.707031 1.988281 -1.191406 1.5625 -1.796875 C 1.132812 -2.410156 0.8125 -3.09375 0.59375 -3.84375 C 0.375 -4.601562 0.265625 -5.378906 0.265625 -6.171875 C 0.265625 -6.972656 0.375 -7.75 0.59375 -8.5 C 0.8125 -9.257812 1.132812 -9.941406 1.5625 -10.546875 C 1.988281 -11.160156 2.53125 -11.644531 3.1875 -12 C 3.84375 -12.363281 4.609375 -12.546875 5.484375 -12.546875 C 6.359375 -12.546875 7.125 -12.363281 7.78125 -12 C 8.4375 -11.644531 8.984375 -11.160156 9.421875 -10.546875 C 9.859375 -9.941406 10.179688 -9.257812 10.390625 -8.5 C 10.609375 -7.75 10.71875 -6.972656 10.71875 -6.171875 C 10.71875 -5.378906 10.609375 -4.601562 10.390625 -3.84375 C 10.179688 -3.09375 9.859375 -2.410156 9.421875 -1.796875 C 8.984375 -1.191406 8.4375 -0.707031 7.78125 -0.34375 C 7.125 0.0195312 6.359375 0.203125 5.484375 0.203125 Z M 8.546875 -9.453125 C 8.203125 -9.453125 7.78125 -9.363281 7.28125 -9.1875 C 6.78125 -9.007812 6.253906 -8.769531 5.703125 -8.46875 C 5.160156 -8.175781 4.628906 -7.835938 4.109375 -7.453125 C 3.585938 -7.066406 3.113281 -6.660156 2.6875 -6.234375 C 2.257812 -5.816406 1.914062 -5.398438 1.65625 -4.984375 C 1.40625 -4.578125 1.28125 -4.191406 1.28125 -3.828125 C 1.28125 -3.492188 1.394531 -3.253906 1.625 -3.109375 C 1.851562 -2.960938 2.117188 -2.890625 2.421875 -2.890625 C 2.785156 -2.890625 3.210938 -2.976562 3.703125 -3.15625 C 4.191406 -3.332031 4.707031 -3.570312 5.25 -3.875 C 5.800781 -4.175781 6.335938 -4.515625 6.859375 -4.890625 C 7.378906 -5.273438 7.851562 -5.675781 8.28125 -6.09375 C 8.71875 -6.519531 9.0625 -6.941406 9.3125 -7.359375 C 9.570312 -7.773438 9.703125 -8.164062 9.703125 -8.53125 C 9.703125 -8.863281 9.582031 -9.097656 9.34375 -9.234375 C 9.113281 -9.378906 8.847656 -9.453125 8.546875 -9.453125 Z M 8.546875 -9.453125 "/></g></g></g><g fill="#737373" fill-opacity="0.302"><g transform="translate(51.920272, 22.461028)"><g><path d="M 0.28125 0 L 0.28125 -4.0625 C 0.476562 -3.988281 0.816406 -3.878906 1.296875 -3.734375 C 1.785156 -3.597656 2.347656 -3.457031 2.984375 -3.3125 C 3.628906 -3.175781 4.28125 -3.054688 4.9375 -2.953125 C 5.601562 -2.859375 6.207031 -2.8125 6.75 -2.8125 C 6.832031 -2.8125 6.96875 -2.816406 7.15625 -2.828125 C 7.34375 -2.835938 7.535156 -2.863281 7.734375 -2.90625 C 7.929688 -2.957031 8.097656 -3.023438 8.234375 -3.109375 C 8.367188 -3.203125 8.4375 -3.320312 8.4375 -3.46875 C 8.4375 -3.625 8.289062 -3.753906 8 -3.859375 C 7.707031 -3.960938 7.320312 -4.066406 6.84375 -4.171875 C 6.363281 -4.273438 5.835938 -4.394531 5.265625 -4.53125 C 4.703125 -4.675781 4.132812 -4.863281 3.5625 -5.09375 C 2.988281 -5.320312 2.460938 -5.613281 1.984375 -5.96875 C 1.503906 -6.332031 1.117188 -6.785156 0.828125 -7.328125 C 0.535156 -7.867188 0.390625 -8.519531 0.390625 -9.28125 C 0.390625 -9.851562 0.503906 -10.332031 0.734375 -10.71875 C 0.972656 -11.101562 1.285156 -11.414062 1.671875 -11.65625 C 2.066406 -11.894531 2.5 -12.078125 2.96875 -12.203125 C 3.445312 -12.328125 3.929688 -12.414062 4.421875 -12.46875 C 4.910156 -12.519531 5.367188 -12.546875 5.796875 -12.546875 C 6.234375 -12.546875 6.703125 -12.519531 7.203125 -12.46875 C 7.703125 -12.425781 8.09375 -12.382812 8.375 -12.34375 L 8.375 -8.21875 C 8.15625 -8.40625 7.875 -8.597656 7.53125 -8.796875 C 7.1875 -9.003906 6.765625 -9.175781 6.265625 -9.3125 C 5.765625 -9.445312 5.175781 -9.515625 4.5 -9.515625 C 3.945312 -9.515625 3.414062 -9.425781 2.90625 -9.25 C 2.40625 -9.070312 1.992188 -8.847656 1.671875 -8.578125 C 1.359375 -8.316406 1.203125 -8.050781 1.203125 -7.78125 C 1.203125 -7.582031 1.269531 -7.429688 1.40625 -7.328125 C 1.539062 -7.234375 1.695312 -7.171875 1.875 -7.140625 C 2.0625 -7.109375 2.234375 -7.09375 2.390625 -7.09375 C 2.835938 -7.09375 3.351562 -7.132812 3.9375 -7.21875 C 4.519531 -7.3125 5.101562 -7.359375 5.6875 -7.359375 C 6.113281 -7.359375 6.523438 -7.3125 6.921875 -7.21875 C 7.316406 -7.125 7.664062 -6.957031 7.96875 -6.71875 C 8.28125 -6.476562 8.523438 -6.132812 8.703125 -5.6875 C 8.878906 -5.238281 8.96875 -4.660156 8.96875 -3.953125 C 8.96875 -3.179688 8.816406 -2.53125 8.515625 -2 C 8.222656 -1.476562 7.832031 -1.050781 7.34375 -0.71875 C 6.851562 -0.394531 6.328125 -0.160156 5.765625 -0.015625 C 5.210938 0.128906 4.679688 0.203125 4.171875 0.203125 C 3.929688 0.203125 3.632812 0.191406 3.28125 0.171875 C 2.925781 0.160156 2.554688 0.144531 2.171875 0.125 C 1.796875 0.113281 1.441406 0.0976562 1.109375 0.078125 C 0.773438 0.0546875 0.5 0.03125 0.28125 0 Z M 0.28125 0 "/></g></g></g><g fill="#737373" fill-opacity="0.302"><g transform="translate(61.170892, 22.461028)"><g><path d="M 0.28125 -12.34375 L 4.625 -12.34375 C 4.800781 -11.976562 4.929688 -11.613281 5.015625 -11.25 C 5.109375 -10.894531 5.15625 -10.546875 5.15625 -10.203125 C 5.15625 -9.566406 5.046875 -8.960938 4.828125 -8.390625 C 4.609375 -7.816406 4.335938 -7.273438 4.015625 -6.765625 C 3.691406 -6.253906 3.367188 -5.78125 3.046875 -5.34375 C 2.734375 -4.914062 2.46875 -4.523438 2.25 -4.171875 C 2.03125 -3.828125 1.921875 -3.53125 1.921875 -3.28125 C 1.921875 -3.09375 1.960938 -2.960938 2.046875 -2.890625 C 2.140625 -2.828125 2.273438 -2.796875 2.453125 -2.796875 C 2.742188 -2.796875 3.132812 -2.878906 3.625 -3.046875 C 4.125 -3.222656 4.648438 -3.472656 5.203125 -3.796875 C 5.753906 -4.117188 6.273438 -4.507812 6.765625 -4.96875 C 7.253906 -5.4375 7.65625 -5.96875 7.96875 -6.5625 C 8.28125 -7.15625 8.4375 -7.8125 8.4375 -8.53125 C 8.4375 -9.101562 8.316406 -9.707031 8.078125 -10.34375 C 7.835938 -10.976562 7.425781 -11.644531 6.84375 -12.34375 L 10.875 -12.34375 C 10.519531 -11.394531 10.25 -10.398438 10.0625 -9.359375 C 9.882812 -8.328125 9.796875 -7.296875 9.796875 -6.265625 C 9.796875 -5.722656 9.828125 -5.238281 9.890625 -4.8125 C 9.960938 -4.382812 10.03125 -3.945312 10.09375 -3.5 C 10.164062 -3.0625 10.203125 -2.535156 10.203125 -1.921875 C 10.203125 -0.566406 9.9375 0.554688 9.40625 1.453125 C 8.882812 2.359375 8.171875 3.035156 7.265625 3.484375 C 6.367188 3.941406 5.359375 4.171875 4.234375 4.171875 C 3.921875 4.171875 3.597656 4.15625 3.265625 4.125 C 2.941406 4.09375 2.613281 4.039062 2.28125 3.96875 L 2.28125 0.625 C 2.539062 0.664062 2.800781 0.695312 3.0625 0.71875 C 3.320312 0.738281 3.585938 0.75 3.859375 0.75 C 4.617188 0.75 5.347656 0.671875 6.046875 0.515625 C 6.742188 0.359375 7.375 0.140625 7.9375 -0.140625 C 8.5 -0.429688 8.941406 -0.769531 9.265625 -1.15625 C 9.597656 -1.550781 9.765625 -1.984375 9.765625 -2.453125 C 9.765625 -2.828125 9.644531 -3.210938 9.40625 -3.609375 C 9.175781 -4.015625 8.800781 -4.429688 8.28125 -4.859375 L 8.125 -4.859375 C 7.9375 -4.160156 7.65625 -3.503906 7.28125 -2.890625 C 6.90625 -2.285156 6.457031 -1.75 5.9375 -1.28125 C 5.425781 -0.820312 4.863281 -0.457031 4.25 -0.1875 C 3.644531 0.0703125 3.007812 0.203125 2.34375 0.203125 C 1.78125 0.203125 1.398438 0.09375 1.203125 -0.125 C 1.015625 -0.34375 0.921875 -0.671875 0.921875 -1.109375 C 0.921875 -1.472656 0.957031 -1.90625 1.03125 -2.40625 C 1.113281 -2.90625 1.195312 -3.476562 1.28125 -4.125 C 1.363281 -4.78125 1.40625 -5.492188 1.40625 -6.265625 C 1.40625 -7.128906 1.328125 -8.066406 1.171875 -9.078125 C 1.015625 -10.085938 0.71875 -11.175781 0.28125 -12.34375 Z M 0.28125 -12.34375 "/></g></g></g><g fill="#737373" fill-opacity="0.302"><g transform="translate(72.206142, 22.461028)"><g><path d="M 0.328125 0 C 0.671875 -0.945312 0.941406 -1.96875 1.140625 -3.0625 C 1.335938 -4.164062 1.4375 -5.28125 1.4375 -6.40625 C 1.4375 -7.414062 1.347656 -8.425781 1.171875 -9.4375 C 0.992188 -10.445312 0.710938 -11.414062 0.328125 -12.34375 C 0.753906 -12.40625 1.175781 -12.453125 1.59375 -12.484375 C 2.019531 -12.523438 2.546875 -12.546875 3.171875 -12.546875 C 4.972656 -12.546875 6.289062 -12.296875 7.125 -11.796875 C 7.96875 -11.296875 8.390625 -10.664062 8.390625 -9.90625 C 8.390625 -9.59375 8.328125 -9.25 8.203125 -8.875 C 8.085938 -8.507812 7.953125 -8.132812 7.796875 -7.75 C 7.640625 -7.363281 7.5 -6.984375 7.375 -6.609375 C 7.257812 -6.234375 7.203125 -5.867188 7.203125 -5.515625 C 7.203125 -5.035156 7.375 -4.609375 7.71875 -4.234375 C 8.0625 -3.859375 8.710938 -3.578125 9.671875 -3.390625 C 9.460938 -4.691406 9.269531 -6.097656 9.09375 -7.609375 C 8.914062 -9.117188 8.796875 -10.695312 8.734375 -12.34375 L 11.734375 -12.34375 C 11.460938 -11.125 11.21875 -9.941406 11 -8.796875 C 10.78125 -7.648438 10.671875 -6.5 10.671875 -5.34375 C 10.671875 -4.476562 10.75 -3.601562 10.90625 -2.71875 C 11.070312 -1.84375 11.347656 -0.9375 11.734375 0 L 5.578125 0 C 5.222656 -0.582031 4.96875 -1.128906 4.8125 -1.640625 C 4.65625 -2.160156 4.578125 -2.644531 4.578125 -3.09375 C 4.578125 -3.71875 4.679688 -4.285156 4.890625 -4.796875 C 5.109375 -5.304688 5.378906 -5.773438 5.703125 -6.203125 C 6.023438 -6.628906 6.34375 -7.007812 6.65625 -7.34375 C 6.976562 -7.6875 7.242188 -7.988281 7.453125 -8.25 C 7.671875 -8.519531 7.78125 -8.757812 7.78125 -8.96875 C 7.78125 -9.164062 7.710938 -9.296875 7.578125 -9.359375 C 7.441406 -9.421875 7.289062 -9.453125 7.125 -9.453125 C 6.851562 -9.453125 6.515625 -9.390625 6.109375 -9.265625 C 5.710938 -9.140625 5.300781 -8.941406 4.875 -8.671875 C 4.457031 -8.410156 4.0625 -8.078125 3.6875 -7.671875 C 3.320312 -7.273438 3.023438 -6.804688 2.796875 -6.265625 C 2.566406 -5.722656 2.453125 -5.101562 2.453125 -4.40625 C 2.453125 -3.789062 2.5625 -3.117188 2.78125 -2.390625 C 3.007812 -1.660156 3.394531 -0.863281 3.9375 0 Z M 0.328125 0 "/></g></g></g><g fill="#737373" fill-opacity="0.502"><g transform="translate(3.420842, 21.737348)"><g><path d="M -0.25 0 C -0.0195312 -0.613281 0.234375 -1.257812 0.515625 -1.9375 C 0.796875 -2.613281 1.070312 -3.3125 1.34375 -4.03125 C 1.613281 -4.757812 1.84375 -5.488281 2.03125 -6.21875 C 2.226562 -7.007812 2.328125 -7.816406 2.328125 -8.640625 C 2.328125 -9.390625 2.25 -10.085938 2.09375 -10.734375 C 1.9375 -11.390625 1.71875 -11.925781 1.4375 -12.34375 L 8.578125 -12.34375 C 8.578125 -10.726562 8.65625 -9.207031 8.8125 -7.78125 C 8.976562 -6.363281 9.25 -5.007812 9.625 -3.71875 C 10.007812 -2.425781 10.546875 -1.1875 11.234375 0 L 5.578125 0 C 5.242188 -0.539062 5.003906 -1.054688 4.859375 -1.546875 C 4.722656 -2.046875 4.65625 -2.515625 4.65625 -2.953125 C 4.65625 -3.585938 4.773438 -4.171875 5.015625 -4.703125 C 5.265625 -5.234375 5.566406 -5.71875 5.921875 -6.15625 C 6.285156 -6.59375 6.644531 -6.984375 7 -7.328125 C 7.351562 -7.679688 7.648438 -7.992188 7.890625 -8.265625 C 8.140625 -8.535156 8.265625 -8.78125 8.265625 -9 C 8.265625 -9.1875 8.191406 -9.304688 8.046875 -9.359375 C 7.898438 -9.421875 7.75 -9.453125 7.59375 -9.453125 C 7.300781 -9.453125 6.9375 -9.382812 6.5 -9.25 C 6.070312 -9.125 5.625 -8.921875 5.15625 -8.640625 C 4.695312 -8.367188 4.265625 -8.03125 3.859375 -7.625 C 3.460938 -7.21875 3.132812 -6.734375 2.875 -6.171875 C 2.625 -5.609375 2.5 -4.960938 2.5 -4.234375 C 2.5 -3.640625 2.609375 -2.988281 2.828125 -2.28125 C 3.054688 -1.582031 3.425781 -0.820312 3.9375 0 Z M -0.25 0 "/></g></g></g><g fill="#737373" fill-opacity="0.502"><g transform="translate(14.406973, 21.737348)"><g><path d="M 2.671875 0 C 2.441406 -0.445312 2.28125 -0.878906 2.1875 -1.296875 C 2.09375 -1.710938 2.046875 -2.113281 2.046875 -2.5 C 2.046875 -3.1875 2.15625 -3.832031 2.375 -4.4375 C 2.601562 -5.039062 2.863281 -5.59375 3.15625 -6.09375 C 3.445312 -6.601562 3.703125 -7.0625 3.921875 -7.46875 C 4.140625 -7.882812 4.25 -8.238281 4.25 -8.53125 C 4.25 -8.8125 4.140625 -9.023438 3.921875 -9.171875 C 3.703125 -9.316406 3.457031 -9.390625 3.1875 -9.390625 C 2.851562 -9.390625 2.484375 -9.3125 2.078125 -9.15625 C 1.679688 -9.007812 1.304688 -8.847656 0.953125 -8.671875 C 0.597656 -8.492188 0.304688 -8.351562 0.078125 -8.25 L 0.078125 -12.34375 L 9.40625 -12.34375 L 9.40625 -8.25 C 9.3125 -8.3125 9.160156 -8.410156 8.953125 -8.546875 C 8.742188 -8.691406 8.5 -8.832031 8.21875 -8.96875 C 7.9375 -9.101562 7.640625 -9.21875 7.328125 -9.3125 C 7.023438 -9.414062 6.734375 -9.46875 6.453125 -9.46875 C 6.085938 -9.46875 5.804688 -9.390625 5.609375 -9.234375 C 5.410156 -9.078125 5.257812 -8.875 5.15625 -8.625 C 5.0625 -8.382812 5 -8.125 4.96875 -7.84375 C 4.945312 -7.5625 4.9375 -7.289062 4.9375 -7.03125 C 4.9375 -6.1875 5.054688 -5.363281 5.296875 -4.5625 C 5.535156 -3.757812 5.847656 -2.976562 6.234375 -2.21875 C 6.628906 -1.457031 7.050781 -0.71875 7.5 0 Z M 2.671875 0 "/></g></g></g><g fill="#737373" fill-opacity="0.502"><g transform="translate(23.886808, 21.737348)"><g><path d="M 0.328125 0 C 0.671875 -0.945312 0.941406 -1.96875 1.140625 -3.0625 C 1.335938 -4.164062 1.4375 -5.28125 1.4375 -6.40625 C 1.4375 -7.414062 1.347656 -8.425781 1.171875 -9.4375 C 0.992188 -10.445312 0.710938 -11.414062 0.328125 -12.34375 C 0.910156 -12.40625 1.46875 -12.453125 2 -12.484375 C 2.539062 -12.523438 3.097656 -12.546875 3.671875 -12.546875 C 4.148438 -12.546875 4.640625 -12.53125 5.140625 -12.5 C 5.648438 -12.476562 6.140625 -12.414062 6.609375 -12.3125 C 7.078125 -12.207031 7.492188 -12.039062 7.859375 -11.8125 C 8.234375 -11.582031 8.519531 -11.265625 8.71875 -10.859375 C 8.914062 -10.453125 9 -9.929688 8.96875 -9.296875 L 9.359375 -9.296875 C 9.535156 -9.953125 9.847656 -10.519531 10.296875 -11 C 10.753906 -11.488281 11.289062 -11.867188 11.90625 -12.140625 C 12.53125 -12.410156 13.175781 -12.546875 13.84375 -12.546875 C 14.207031 -12.546875 14.585938 -12.523438 14.984375 -12.484375 C 15.390625 -12.441406 15.726562 -12.394531 16 -12.34375 C 15.65625 -11.394531 15.382812 -10.375 15.1875 -9.28125 C 14.988281 -8.1875 14.890625 -7.070312 14.890625 -5.9375 C 14.890625 -4.925781 14.976562 -3.914062 15.15625 -2.90625 C 15.332031 -1.894531 15.613281 -0.925781 16 0 L 11.34375 0 C 11.007812 -0.539062 10.769531 -1.054688 10.625 -1.546875 C 10.488281 -2.046875 10.421875 -2.515625 10.421875 -2.953125 C 10.421875 -3.585938 10.539062 -4.171875 10.78125 -4.703125 C 11.03125 -5.234375 11.332031 -5.71875 11.6875 -6.15625 C 12.050781 -6.59375 12.410156 -6.984375 12.765625 -7.328125 C 13.117188 -7.679688 13.414062 -7.992188 13.65625 -8.265625 C 13.90625 -8.535156 14.03125 -8.78125 14.03125 -9 C 14.03125 -9.1875 13.957031 -9.304688 13.8125 -9.359375 C 13.664062 -9.421875 13.515625 -9.453125 13.359375 -9.453125 C 13.066406 -9.453125 12.703125 -9.382812 12.265625 -9.25 C 11.835938 -9.125 11.394531 -8.921875 10.9375 -8.640625 C 10.476562 -8.367188 10.046875 -8.03125 9.640625 -7.625 C 9.234375 -7.21875 8.90625 -6.734375 8.65625 -6.171875 C 8.40625 -5.609375 8.28125 -4.960938 8.28125 -4.234375 C 8.28125 -3.640625 8.390625 -2.988281 8.609375 -2.28125 C 8.828125 -1.582031 9.1875 -0.820312 9.6875 0 L 5.578125 0 C 5.304688 -0.445312 5.082031 -0.914062 4.90625 -1.40625 C 4.738281 -1.90625 4.65625 -2.421875 4.65625 -2.953125 C 4.65625 -3.585938 4.773438 -4.171875 5.015625 -4.703125 C 5.265625 -5.234375 5.566406 -5.71875 5.921875 -6.15625 C 6.285156 -6.59375 6.644531 -6.984375 7 -7.328125 C 7.351562 -7.679688 7.648438 -7.992188 7.890625 -8.265625 C 8.140625 -8.535156 8.265625 -8.78125 8.265625 -9 C 8.265625 -9.1875 8.191406 -9.304688 8.046875 -9.359375 C 7.898438 -9.421875 7.75 -9.453125 7.59375 -9.453125 C 7.300781 -9.453125 6.9375 -9.382812 6.5 -9.25 C 6.070312 -9.125 5.625 -8.921875 5.15625 -8.640625 C 4.695312 -8.367188 4.265625 -8.03125 3.859375 -7.625 C 3.460938 -7.21875 3.132812 -6.734375 2.875 -6.171875 C 2.625 -5.609375 2.5 -4.960938 2.5 -4.234375 C 2.5 -3.640625 2.609375 -2.988281 2.828125 -2.28125 C 3.054688 -1.582031 3.425781 -0.820312 3.9375 0 Z M 0.328125 0 "/></g></g></g><g fill="#737373" fill-opacity="0.502"><g transform="translate(40.226834, 21.737348)"><g><path d="M 5.484375 0.203125 C 4.609375 0.203125 3.84375 0.0195312 3.1875 -0.34375 C 2.53125 -0.707031 1.988281 -1.191406 1.5625 -1.796875 C 1.132812 -2.410156 0.8125 -3.09375 0.59375 -3.84375 C 0.375 -4.601562 0.265625 -5.378906 0.265625 -6.171875 C 0.265625 -6.972656 0.375 -7.75 0.59375 -8.5 C 0.8125 -9.257812 1.132812 -9.941406 1.5625 -10.546875 C 1.988281 -11.160156 2.53125 -11.644531 3.1875 -12 C 3.84375 -12.363281 4.609375 -12.546875 5.484375 -12.546875 C 6.359375 -12.546875 7.125 -12.363281 7.78125 -12 C 8.4375 -11.644531 8.984375 -11.160156 9.421875 -10.546875 C 9.859375 -9.941406 10.179688 -9.257812 10.390625 -8.5 C 10.609375 -7.75 10.71875 -6.972656 10.71875 -6.171875 C 10.71875 -5.378906 10.609375 -4.601562 10.390625 -3.84375 C 10.179688 -3.09375 9.859375 -2.410156 9.421875 -1.796875 C 8.984375 -1.191406 8.4375 -0.707031 7.78125 -0.34375 C 7.125 0.0195312 6.359375 0.203125 5.484375 0.203125 Z M 8.546875 -9.453125 C 8.203125 -9.453125 7.78125 -9.363281 7.28125 -9.1875 C 6.78125 -9.007812 6.253906 -8.769531 5.703125 -8.46875 C 5.160156 -8.175781 4.628906 -7.835938 4.109375 -7.453125 C 3.585938 -7.066406 3.113281 -6.660156 2.6875 -6.234375 C 2.257812 -5.816406 1.914062 -5.398438 1.65625 -4.984375 C 1.40625 -4.578125 1.28125 -4.191406 1.28125 -3.828125 C 1.28125 -3.492188 1.394531 -3.253906 1.625 -3.109375 C 1.851562 -2.960938 2.117188 -2.890625 2.421875 -2.890625 C 2.785156 -2.890625 3.210938 -2.976562 3.703125 -3.15625 C 4.191406 -3.332031 4.707031 -3.570312 5.25 -3.875 C 5.800781 -4.175781 6.335938 -4.515625 6.859375 -4.890625 C 7.378906 -5.273438 7.851562 -5.675781 8.28125 -6.09375 C 8.71875 -6.519531 9.0625 -6.941406 9.3125 -7.359375 C 9.570312 -7.773438 9.703125 -8.164062 9.703125 -8.53125 C 9.703125 -8.863281 9.582031 -9.097656 9.34375 -9.234375 C 9.113281 -9.378906 8.847656 -9.453125 8.546875 -9.453125 Z M 8.546875 -9.453125 "/></g></g></g><g fill="#737373" fill-opacity="0.502"><g transform="translate(51.196592, 21.737348)"><g><path d="M 0.28125 0 L 0.28125 -4.0625 C 0.476562 -3.988281 0.816406 -3.878906 1.296875 -3.734375 C 1.785156 -3.597656 2.347656 -3.457031 2.984375 -3.3125 C 3.628906 -3.175781 4.28125 -3.054688 4.9375 -2.953125 C 5.601562 -2.859375 6.207031 -2.8125 6.75 -2.8125 C 6.832031 -2.8125 6.96875 -2.816406 7.15625 -2.828125 C 7.34375 -2.835938 7.535156 -2.863281 7.734375 -2.90625 C 7.929688 -2.957031 8.097656 -3.023438 8.234375 -3.109375 C 8.367188 -3.203125 8.4375 -3.320312 8.4375 -3.46875 C 8.4375 -3.625 8.289062 -3.753906 8 -3.859375 C 7.707031 -3.960938 7.320312 -4.066406 6.84375 -4.171875 C 6.363281 -4.273438 5.835938 -4.394531 5.265625 -4.53125 C 4.703125 -4.675781 4.132812 -4.863281 3.5625 -5.09375 C 2.988281 -5.320312 2.460938 -5.613281 1.984375 -5.96875 C 1.503906 -6.332031 1.117188 -6.785156 0.828125 -7.328125 C 0.535156 -7.867188 0.390625 -8.519531 0.390625 -9.28125 C 0.390625 -9.851562 0.503906 -10.332031 0.734375 -10.71875 C 0.972656 -11.101562 1.285156 -11.414062 1.671875 -11.65625 C 2.066406 -11.894531 2.5 -12.078125 2.96875 -12.203125 C 3.445312 -12.328125 3.929688 -12.414062 4.421875 -12.46875 C 4.910156 -12.519531 5.367188 -12.546875 5.796875 -12.546875 C 6.234375 -12.546875 6.703125 -12.519531 7.203125 -12.46875 C 7.703125 -12.425781 8.09375 -12.382812 8.375 -12.34375 L 8.375 -8.21875 C 8.15625 -8.40625 7.875 -8.597656 7.53125 -8.796875 C 7.1875 -9.003906 6.765625 -9.175781 6.265625 -9.3125 C 5.765625 -9.445312 5.175781 -9.515625 4.5 -9.515625 C 3.945312 -9.515625 3.414062 -9.425781 2.90625 -9.25 C 2.40625 -9.070312 1.992188 -8.847656 1.671875 -8.578125 C 1.359375 -8.316406 1.203125 -8.050781 1.203125 -7.78125 C 1.203125 -7.582031 1.269531 -7.429688 1.40625 -7.328125 C 1.539062 -7.234375 1.695312 -7.171875 1.875 -7.140625 C 2.0625 -7.109375 2.234375 -7.09375 2.390625 -7.09375 C 2.835938 -7.09375 3.351562 -7.132812 3.9375 -7.21875 C 4.519531 -7.3125 5.101562 -7.359375 5.6875 -7.359375 C 6.113281 -7.359375 6.523438 -7.3125 6.921875 -7.21875 C 7.316406 -7.125 7.664062 -6.957031 7.96875 -6.71875 C 8.28125 -6.476562 8.523438 -6.132812 8.703125 -5.6875 C 8.878906 -5.238281 8.96875 -4.660156 8.96875 -3.953125 C 8.96875 -3.179688 8.816406 -2.53125 8.515625 -2 C 8.222656 -1.476562 7.832031 -1.050781 7.34375 -0.71875 C 6.851562 -0.394531 6.328125 -0.160156 5.765625 -0.015625 C 5.210938 0.128906 4.679688 0.203125 4.171875 0.203125 C 3.929688 0.203125 3.632812 0.191406 3.28125 0.171875 C 2.925781 0.160156 2.554688 0.144531 2.171875 0.125 C 1.796875 0.113281 1.441406 0.0976562 1.109375 0.078125 C 0.773438 0.0546875 0.5 0.03125 0.28125 0 Z M 0.28125 0 "/></g></g></g><g fill="#737373" fill-opacity="0.502"><g transform="translate(60.447211, 21.737348)"><g><path d="M 0.28125 -12.34375 L 4.625 -12.34375 C 4.800781 -11.976562 4.929688 -11.613281 5.015625 -11.25 C 5.109375 -10.894531 5.15625 -10.546875 5.15625 -10.203125 C 5.15625 -9.566406 5.046875 -8.960938 4.828125 -8.390625 C 4.609375 -7.816406 4.335938 -7.273438 4.015625 -6.765625 C 3.691406 -6.253906 3.367188 -5.78125 3.046875 -5.34375 C 2.734375 -4.914062 2.46875 -4.523438 2.25 -4.171875 C 2.03125 -3.828125 1.921875 -3.53125 1.921875 -3.28125 C 1.921875 -3.09375 1.960938 -2.960938 2.046875 -2.890625 C 2.140625 -2.828125 2.273438 -2.796875 2.453125 -2.796875 C 2.742188 -2.796875 3.132812 -2.878906 3.625 -3.046875 C 4.125 -3.222656 4.648438 -3.472656 5.203125 -3.796875 C 5.753906 -4.117188 6.273438 -4.507812 6.765625 -4.96875 C 7.253906 -5.4375 7.65625 -5.96875 7.96875 -6.5625 C 8.28125 -7.15625 8.4375 -7.8125 8.4375 -8.53125 C 8.4375 -9.101562 8.316406 -9.707031 8.078125 -10.34375 C 7.835938 -10.976562 7.425781 -11.644531 6.84375 -12.34375 L 10.875 -12.34375 C 10.519531 -11.394531 10.25 -10.398438 10.0625 -9.359375 C 9.882812 -8.328125 9.796875 -7.296875 9.796875 -6.265625 C 9.796875 -5.722656 9.828125 -5.238281 9.890625 -4.8125 C 9.960938 -4.382812 10.03125 -3.945312 10.09375 -3.5 C 10.164062 -3.0625 10.203125 -2.535156 10.203125 -1.921875 C 10.203125 -0.566406 9.9375 0.554688 9.40625 1.453125 C 8.882812 2.359375 8.171875 3.035156 7.265625 3.484375 C 6.367188 3.941406 5.359375 4.171875 4.234375 4.171875 C 3.921875 4.171875 3.597656 4.15625 3.265625 4.125 C 2.941406 4.09375 2.613281 4.039062 2.28125 3.96875 L 2.28125 0.625 C 2.539062 0.664062 2.800781 0.695312 3.0625 0.71875 C 3.320312 0.738281 3.585938 0.75 3.859375 0.75 C 4.617188 0.75 5.347656 0.671875 6.046875 0.515625 C 6.742188 0.359375 7.375 0.140625 7.9375 -0.140625 C 8.5 -0.429688 8.941406 -0.769531 9.265625 -1.15625 C 9.597656 -1.550781 9.765625 -1.984375 9.765625 -2.453125 C 9.765625 -2.828125 9.644531 -3.210938 9.40625 -3.609375 C 9.175781 -4.015625 8.800781 -4.429688 8.28125 -4.859375 L 8.125 -4.859375 C 7.9375 -4.160156 7.65625 -3.503906 7.28125 -2.890625 C 6.90625 -2.285156 6.457031 -1.75 5.9375 -1.28125 C 5.425781 -0.820312 4.863281 -0.457031 4.25 -0.1875 C 3.644531 0.0703125 3.007812 0.203125 2.34375 0.203125 C 1.78125 0.203125 1.398438 0.09375 1.203125 -0.125 C 1.015625 -0.34375 0.921875 -0.671875 0.921875 -1.109375 C 0.921875 -1.472656 0.957031 -1.90625 1.03125 -2.40625 C 1.113281 -2.90625 1.195312 -3.476562 1.28125 -4.125 C 1.363281 -4.78125 1.40625 -5.492188 1.40625 -6.265625 C 1.40625 -7.128906 1.328125 -8.066406 1.171875 -9.078125 C 1.015625 -10.085938 0.71875 -11.175781 0.28125 -12.34375 Z M 0.28125 -12.34375 "/></g></g></g><g fill="#737373" fill-opacity="0.502"><g transform="translate(71.482462, 21.737348)"><g><path d="M 0.328125 0 C 0.671875 -0.945312 0.941406 -1.96875 1.140625 -3.0625 C 1.335938 -4.164062 1.4375 -5.28125 1.4375 -6.40625 C 1.4375 -7.414062 1.347656 -8.425781 1.171875 -9.4375 C 0.992188 -10.445312 0.710938 -11.414062 0.328125 -12.34375 C 0.753906 -12.40625 1.175781 -12.453125 1.59375 -12.484375 C 2.019531 -12.523438 2.546875 -12.546875 3.171875 -12.546875 C 4.972656 -12.546875 6.289062 -12.296875 7.125 -11.796875 C 7.96875 -11.296875 8.390625 -10.664062 8.390625 -9.90625 C 8.390625 -9.59375 8.328125 -9.25 8.203125 -8.875 C 8.085938 -8.507812 7.953125 -8.132812 7.796875 -7.75 C 7.640625 -7.363281 7.5 -6.984375 7.375 -6.609375 C 7.257812 -6.234375 7.203125 -5.867188 7.203125 -5.515625 C 7.203125 -5.035156 7.375 -4.609375 7.71875 -4.234375 C 8.0625 -3.859375 8.710938 -3.578125 9.671875 -3.390625 C 9.460938 -4.691406 9.269531 -6.097656 9.09375 -7.609375 C 8.914062 -9.117188 8.796875 -10.695312 8.734375 -12.34375 L 11.734375 -12.34375 C 11.460938 -11.125 11.21875 -9.941406 11 -8.796875 C 10.78125 -7.648438 10.671875 -6.5 10.671875 -5.34375 C 10.671875 -4.476562 10.75 -3.601562 10.90625 -2.71875 C 11.070312 -1.84375 11.347656 -0.9375 11.734375 0 L 5.578125 0 C 5.222656 -0.582031 4.96875 -1.128906 4.8125 -1.640625 C 4.65625 -2.160156 4.578125 -2.644531 4.578125 -3.09375 C 4.578125 -3.71875 4.679688 -4.285156 4.890625 -4.796875 C 5.109375 -5.304688 5.378906 -5.773438 5.703125 -6.203125 C 6.023438 -6.628906 6.34375 -7.007812 6.65625 -7.34375 C 6.976562 -7.6875 7.242188 -7.988281 7.453125 -8.25 C 7.671875 -8.519531 7.78125 -8.757812 7.78125 -8.96875 C 7.78125 -9.164062 7.710938 -9.296875 7.578125 -9.359375 C 7.441406 -9.421875 7.289062 -9.453125 7.125 -9.453125 C 6.851562 -9.453125 6.515625 -9.390625 6.109375 -9.265625 C 5.710938 -9.140625 5.300781 -8.941406 4.875 -8.671875 C 4.457031 -8.410156 4.0625 -8.078125 3.6875 -7.671875 C 3.320312 -7.273438 3.023438 -6.804688 2.796875 -6.265625 C 2.566406 -5.722656 2.453125 -5.101562 2.453125 -4.40625 C 2.453125 -3.789062 2.5625 -3.117188 2.78125 -2.390625 C 3.007812 -1.660156 3.394531 -0.863281 3.9375 0 Z M 0.328125 0 "/></g></g></g><g fill="#ffffff" fill-opacity="1"><g transform="translate(2.697161, 21.013668)"><g><path d="M -0.25 0 C -0.0195312 -0.613281 0.234375 -1.257812 0.515625 -1.9375 C 0.796875 -2.613281 1.070312 -3.3125 1.34375 -4.03125 C 1.613281 -4.757812 1.84375 -5.488281 2.03125 -6.21875 C 2.226562 -7.007812 2.328125 -7.816406 2.328125 -8.640625 C 2.328125 -9.390625 2.25 -10.085938 2.09375 -10.734375 C 1.9375 -11.390625 1.71875 -11.925781 1.4375 -12.34375 L 8.578125 -12.34375 C 8.578125 -10.726562 8.65625 -9.207031 8.8125 -7.78125 C 8.976562 -6.363281 9.25 -5.007812 9.625 -3.71875 C 10.007812 -2.425781 10.546875 -1.1875 11.234375 0 L 5.578125 0 C 5.242188 -0.539062 5.003906 -1.054688 4.859375 -1.546875 C 4.722656 -2.046875 4.65625 -2.515625 4.65625 -2.953125 C 4.65625 -3.585938 4.773438 -4.171875 5.015625 -4.703125 C 5.265625 -5.234375 5.566406 -5.71875 5.921875 -6.15625 C 6.285156 -6.59375 6.644531 -6.984375 7 -7.328125 C 7.351562 -7.679688 7.648438 -7.992188 7.890625 -8.265625 C 8.140625 -8.535156 8.265625 -8.78125 8.265625 -9 C 8.265625 -9.1875 8.191406 -9.304688 8.046875 -9.359375 C 7.898438 -9.421875 7.75 -9.453125 7.59375 -9.453125 C 7.300781 -9.453125 6.9375 -9.382812 6.5 -9.25 C 6.070312 -9.125 5.625 -8.921875 5.15625 -8.640625 C 4.695312 -8.367188 4.265625 -8.03125 3.859375 -7.625 C 3.460938 -7.21875 3.132812 -6.734375 2.875 -6.171875 C 2.625 -5.609375 2.5 -4.960938 2.5 -4.234375 C 2.5 -3.640625 2.609375 -2.988281 2.828125 -2.28125 C 3.054688 -1.582031 3.425781 -0.820312 3.9375 0 Z M -0.25 0 "/></g></g></g><g fill="#ffffff" fill-opacity="1"><g transform="translate(13.683292, 21.013668)"><g><path d="M 2.671875 0 C 2.441406 -0.445312 2.28125 -0.878906 2.1875 -1.296875 C 2.09375 -1.710938 2.046875 -2.113281 2.046875 -2.5 C 2.046875 -3.1875 2.15625 -3.832031 2.375 -4.4375 C 2.601562 -5.039062 2.863281 -5.59375 3.15625 -6.09375 C 3.445312 -6.601562 3.703125 -7.0625 3.921875 -7.46875 C 4.140625 -7.882812 4.25 -8.238281 4.25 -8.53125 C 4.25 -8.8125 4.140625 -9.023438 3.921875 -9.171875 C 3.703125 -9.316406 3.457031 -9.390625 3.1875 -9.390625 C 2.851562 -9.390625 2.484375 -9.3125 2.078125 -9.15625 C 1.679688 -9.007812 1.304688 -8.847656 0.953125 -8.671875 C 0.597656 -8.492188 0.304688 -8.351562 0.078125 -8.25 L 0.078125 -12.34375 L 9.40625 -12.34375 L 9.40625 -8.25 C 9.3125 -8.3125 9.160156 -8.410156 8.953125 -8.546875 C 8.742188 -8.691406 8.5 -8.832031 8.21875 -8.96875 C 7.9375 -9.101562 7.640625 -9.21875 7.328125 -9.3125 C 7.023438 -9.414062 6.734375 -9.46875 6.453125 -9.46875 C 6.085938 -9.46875 5.804688 -9.390625 5.609375 -9.234375 C 5.410156 -9.078125 5.257812 -8.875 5.15625 -8.625 C 5.0625 -8.382812 5 -8.125 4.96875 -7.84375 C 4.945312 -7.5625 4.9375 -7.289062 4.9375 -7.03125 C 4.9375 -6.1875 5.054688 -5.363281 5.296875 -4.5625 C 5.535156 -3.757812 5.847656 -2.976562 6.234375 -2.21875 C 6.628906 -1.457031 7.050781 -0.71875 7.5 0 Z M 2.671875 0 "/></g></g></g><g fill="#ffffff" fill-opacity="1"><g transform="translate(23.163128, 21.013668)"><g><path d="M 0.328125 0 C 0.671875 -0.945312 0.941406 -1.96875 1.140625 -3.0625 C 1.335938 -4.164062 1.4375 -5.28125 1.4375 -6.40625 C 1.4375 -7.414062 1.347656 -8.425781 1.171875 -9.4375 C 0.992188 -10.445312 0.710938 -11.414062 0.328125 -12.34375 C 0.910156 -12.40625 1.46875 -12.453125 2 -12.484375 C 2.539062 -12.523438 3.097656 -12.546875 3.671875 -12.546875 C 4.148438 -12.546875 4.640625 -12.53125 5.140625 -12.5 C 5.648438 -12.476562 6.140625 -12.414062 6.609375 -12.3125 C 7.078125 -12.207031 7.492188 -12.039062 7.859375 -11.8125 C 8.234375 -11.582031 8.519531 -11.265625 8.71875 -10.859375 C 8.914062 -10.453125 9 -9.929688 8.96875 -9.296875 L 9.359375 -9.296875 C 9.535156 -9.953125 9.847656 -10.519531 10.296875 -11 C 10.753906 -11.488281 11.289062 -11.867188 11.90625 -12.140625 C 12.53125 -12.410156 13.175781 -12.546875 13.84375 -12.546875 C 14.207031 -12.546875 14.585938 -12.523438 14.984375 -12.484375 C 15.390625 -12.441406 15.726562 -12.394531 16 -12.34375 C 15.65625 -11.394531 15.382812 -10.375 15.1875 -9.28125 C 14.988281 -8.1875 14.890625 -7.070312 14.890625 -5.9375 C 14.890625 -4.925781 14.976562 -3.914062 15.15625 -2.90625 C 15.332031 -1.894531 15.613281 -0.925781 16 0 L 11.34375 0 C 11.007812 -0.539062 10.769531 -1.054688 10.625 -1.546875 C 10.488281 -2.046875 10.421875 -2.515625 10.421875 -2.953125 C 10.421875 -3.585938 10.539062 -4.171875 10.78125 -4.703125 C 11.03125 -5.234375 11.332031 -5.71875 11.6875 -6.15625 C 12.050781 -6.59375 12.410156 -6.984375 12.765625 -7.328125 C 13.117188 -7.679688 13.414062 -7.992188 13.65625 -8.265625 C 13.90625 -8.535156 14.03125 -8.78125 14.03125 -9 C 14.03125 -9.1875 13.957031 -9.304688 13.8125 -9.359375 C 13.664062 -9.421875 13.515625 -9.453125 13.359375 -9.453125 C 13.066406 -9.453125 12.703125 -9.382812 12.265625 -9.25 C 11.835938 -9.125 11.394531 -8.921875 10.9375 -8.640625 C 10.476562 -8.367188 10.046875 -8.03125 9.640625 -7.625 C 9.234375 -7.21875 8.90625 -6.734375 8.65625 -6.171875 C 8.40625 -5.609375 8.28125 -4.960938 8.28125 -4.234375 C 8.28125 -3.640625 8.390625 -2.988281 8.609375 -2.28125 C 8.828125 -1.582031 9.1875 -0.820312 9.6875 0 L 5.578125 0 C 5.304688 -0.445312 5.082031 -0.914062 4.90625 -1.40625 C 4.738281 -1.90625 4.65625 -2.421875 4.65625 -2.953125 C 4.65625 -3.585938 4.773438 -4.171875 5.015625 -4.703125 C 5.265625 -5.234375 5.566406 -5.71875 5.921875 -6.15625 C 6.285156 -6.59375 6.644531 -6.984375 7 -7.328125 C 7.351562 -7.679688 7.648438 -7.992188 7.890625 -8.265625 C 8.140625 -8.535156 8.265625 -8.78125 8.265625 -9 C 8.265625 -9.1875 8.191406 -9.304688 8.046875 -9.359375 C 7.898438 -9.421875 7.75 -9.453125 7.59375 -9.453125 C 7.300781 -9.453125 6.9375 -9.382812 6.5 -9.25 C 6.070312 -9.125 5.625 -8.921875 5.15625 -8.640625 C 4.695312 -8.367188 4.265625 -8.03125 3.859375 -7.625 C 3.460938 -7.21875 3.132812 -6.734375 2.875 -6.171875 C 2.625 -5.609375 2.5 -4.960938 2.5 -4.234375 C 2.5 -3.640625 2.609375 -2.988281 2.828125 -2.28125 C 3.054688 -1.582031 3.425781 -0.820312 3.9375 0 Z M 0.328125 0 "/></g></g></g><g fill="#ffffff" fill-opacity="1"><g transform="translate(39.503154, 21.013668)"><g><path d="M 5.484375 0.203125 C 4.609375 0.203125 3.84375 0.0195312 3.1875 -0.34375 C 2.53125 -0.707031 1.988281 -1.191406 1.5625 -1.796875 C 1.132812 -2.410156 0.8125 -3.09375 0.59375 -3.84375 C 0.375 -4.601562 0.265625 -5.378906 0.265625 -6.171875 C 0.265625 -6.972656 0.375 -7.75 0.59375 -8.5 C 0.8125 -9.257812 1.132812 -9.941406 1.5625 -10.546875 C 1.988281 -11.160156 2.53125 -11.644531 3.1875 -12 C 3.84375 -12.363281 4.609375 -12.546875 5.484375 -12.546875 C 6.359375 -12.546875 7.125 -12.363281 7.78125 -12 C 8.4375 -11.644531 8.984375 -11.160156 9.421875 -10.546875 C 9.859375 -9.941406 10.179688 -9.257812 10.390625 -8.5 C 10.609375 -7.75 10.71875 -6.972656 10.71875 -6.171875 C 10.71875 -5.378906 10.609375 -4.601562 10.390625 -3.84375 C 10.179688 -3.09375 9.859375 -2.410156 9.421875 -1.796875 C 8.984375 -1.191406 8.4375 -0.707031 7.78125 -0.34375 C 7.125 0.0195312 6.359375 0.203125 5.484375 0.203125 Z M 8.546875 -9.453125 C 8.203125 -9.453125 7.78125 -9.363281 7.28125 -9.1875 C 6.78125 -9.007812 6.253906 -8.769531 5.703125 -8.46875 C 5.160156 -8.175781 4.628906 -7.835938 4.109375 -7.453125 C 3.585938 -7.066406 3.113281 -6.660156 2.6875 -6.234375 C 2.257812 -5.816406 1.914062 -5.398438 1.65625 -4.984375 C 1.40625 -4.578125 1.28125 -4.191406 1.28125 -3.828125 C 1.28125 -3.492188 1.394531 -3.253906 1.625 -3.109375 C 1.851562 -2.960938 2.117188 -2.890625 2.421875 -2.890625 C 2.785156 -2.890625 3.210938 -2.976562 3.703125 -3.15625 C 4.191406 -3.332031 4.707031 -3.570312 5.25 -3.875 C 5.800781 -4.175781 6.335938 -4.515625 6.859375 -4.890625 C 7.378906 -5.273438 7.851562 -5.675781 8.28125 -6.09375 C 8.71875 -6.519531 9.0625 -6.941406 9.3125 -7.359375 C 9.570312 -7.773438 9.703125 -8.164062 9.703125 -8.53125 C 9.703125 -8.863281 9.582031 -9.097656 9.34375 -9.234375 C 9.113281 -9.378906 8.847656 -9.453125 8.546875 -9.453125 Z M 8.546875 -9.453125 "/></g></g></g><g fill="#ffffff" fill-opacity="1"><g transform="translate(50.472912, 21.013668)"><g><path d="M 0.28125 0 L 0.28125 -4.0625 C 0.476562 -3.988281 0.816406 -3.878906 1.296875 -3.734375 C 1.785156 -3.597656 2.347656 -3.457031 2.984375 -3.3125 C 3.628906 -3.175781 4.28125 -3.054688 4.9375 -2.953125 C 5.601562 -2.859375 6.207031 -2.8125 6.75 -2.8125 C 6.832031 -2.8125 6.96875 -2.816406 7.15625 -2.828125 C 7.34375 -2.835938 7.535156 -2.863281 7.734375 -2.90625 C 7.929688 -2.957031 8.097656 -3.023438 8.234375 -3.109375 C 8.367188 -3.203125 8.4375 -3.320312 8.4375 -3.46875 C 8.4375 -3.625 8.289062 -3.753906 8 -3.859375 C 7.707031 -3.960938 7.320312 -4.066406 6.84375 -4.171875 C 6.363281 -4.273438 5.835938 -4.394531 5.265625 -4.53125 C 4.703125 -4.675781 4.132812 -4.863281 3.5625 -5.09375 C 2.988281 -5.320312 2.460938 -5.613281 1.984375 -5.96875 C 1.503906 -6.332031 1.117188 -6.785156 0.828125 -7.328125 C 0.535156 -7.867188 0.390625 -8.519531 0.390625 -9.28125 C 0.390625 -9.851562 0.503906 -10.332031 0.734375 -10.71875 C 0.972656 -11.101562 1.285156 -11.414062 1.671875 -11.65625 C 2.066406 -11.894531 2.5 -12.078125 2.96875 -12.203125 C 3.445312 -12.328125 3.929688 -12.414062 4.421875 -12.46875 C 4.910156 -12.519531 5.367188 -12.546875 5.796875 -12.546875 C 6.234375 -12.546875 6.703125 -12.519531 7.203125 -12.46875 C 7.703125 -12.425781 8.09375 -12.382812 8.375 -12.34375 L 8.375 -8.21875 C 8.15625 -8.40625 7.875 -8.597656 7.53125 -8.796875 C 7.1875 -9.003906 6.765625 -9.175781 6.265625 -9.3125 C 5.765625 -9.445312 5.175781 -9.515625 4.5 -9.515625 C 3.945312 -9.515625 3.414062 -9.425781 2.90625 -9.25 C 2.40625 -9.070312 1.992188 -8.847656 1.671875 -8.578125 C 1.359375 -8.316406 1.203125 -8.050781 1.203125 -7.78125 C 1.203125 -7.582031 1.269531 -7.429688 1.40625 -7.328125 C 1.539062 -7.234375 1.695312 -7.171875 1.875 -7.140625 C 2.0625 -7.109375 2.234375 -7.09375 2.390625 -7.09375 C 2.835938 -7.09375 3.351562 -7.132812 3.9375 -7.21875 C 4.519531 -7.3125 5.101562 -7.359375 5.6875 -7.359375 C 6.113281 -7.359375 6.523438 -7.3125 6.921875 -7.21875 C 7.316406 -7.125 7.664062 -6.957031 7.96875 -6.71875 C 8.28125 -6.476562 8.523438 -6.132812 8.703125 -5.6875 C 8.878906 -5.238281 8.96875 -4.660156 8.96875 -3.953125 C 8.96875 -3.179688 8.816406 -2.53125 8.515625 -2 C 8.222656 -1.476562 7.832031 -1.050781 7.34375 -0.71875 C 6.851562 -0.394531 6.328125 -0.160156 5.765625 -0.015625 C 5.210938 0.128906 4.679688 0.203125 4.171875 0.203125 C 3.929688 0.203125 3.632812 0.191406 3.28125 0.171875 C 2.925781 0.160156 2.554688 0.144531 2.171875 0.125 C 1.796875 0.113281 1.441406 0.0976562 1.109375 0.078125 C 0.773438 0.0546875 0.5 0.03125 0.28125 0 Z M 0.28125 0 "/></g></g></g><g fill="#ffffff" fill-opacity="1"><g transform="translate(59.723531, 21.013668)"><g><path d="M 0.28125 -12.34375 L 4.625 -12.34375 C 4.800781 -11.976562 4.929688 -11.613281 5.015625 -11.25 C 5.109375 -10.894531 5.15625 -10.546875 5.15625 -10.203125 C 5.15625 -9.566406 5.046875 -8.960938 4.828125 -8.390625 C 4.609375 -7.816406 4.335938 -7.273438 4.015625 -6.765625 C 3.691406 -6.253906 3.367188 -5.78125 3.046875 -5.34375 C 2.734375 -4.914062 2.46875 -4.523438 2.25 -4.171875 C 2.03125 -3.828125 1.921875 -3.53125 1.921875 -3.28125 C 1.921875 -3.09375 1.960938 -2.960938 2.046875 -2.890625 C 2.140625 -2.828125 2.273438 -2.796875 2.453125 -2.796875 C 2.742188 -2.796875 3.132812 -2.878906 3.625 -3.046875 C 4.125 -3.222656 4.648438 -3.472656 5.203125 -3.796875 C 5.753906 -4.117188 6.273438 -4.507812 6.765625 -4.96875 C 7.253906 -5.4375 7.65625 -5.96875 7.96875 -6.5625 C 8.28125 -7.15625 8.4375 -7.8125 8.4375 -8.53125 C 8.4375 -9.101562 8.316406 -9.707031 8.078125 -10.34375 C 7.835938 -10.976562 7.425781 -11.644531 6.84375 -12.34375 L 10.875 -12.34375 C 10.519531 -11.394531 10.25 -10.398438 10.0625 -9.359375 C 9.882812 -8.328125 9.796875 -7.296875 9.796875 -6.265625 C 9.796875 -5.722656 9.828125 -5.238281 9.890625 -4.8125 C 9.960938 -4.382812 10.03125 -3.945312 10.09375 -3.5 C 10.164062 -3.0625 10.203125 -2.535156 10.203125 -1.921875 C 10.203125 -0.566406 9.9375 0.554688 9.40625 1.453125 C 8.882812 2.359375 8.171875 3.035156 7.265625 3.484375 C 6.367188 3.941406 5.359375 4.171875 4.234375 4.171875 C 3.921875 4.171875 3.597656 4.15625 3.265625 4.125 C 2.941406 4.09375 2.613281 4.039062 2.28125 3.96875 L 2.28125 0.625 C 2.539062 0.664062 2.800781 0.695312 3.0625 0.71875 C 3.320312 0.738281 3.585938 0.75 3.859375 0.75 C 4.617188 0.75 5.347656 0.671875 6.046875 0.515625 C 6.742188 0.359375 7.375 0.140625 7.9375 -0.140625 C 8.5 -0.429688 8.941406 -0.769531 9.265625 -1.15625 C 9.597656 -1.550781 9.765625 -1.984375 9.765625 -2.453125 C 9.765625 -2.828125 9.644531 -3.210938 9.40625 -3.609375 C 9.175781 -4.015625 8.800781 -4.429688 8.28125 -4.859375 L 8.125 -4.859375 C 7.9375 -4.160156 7.65625 -3.503906 7.28125 -2.890625 C 6.90625 -2.285156 6.457031 -1.75 5.9375 -1.28125 C 5.425781 -0.820312 4.863281 -0.457031 4.25 -0.1875 C 3.644531 0.0703125 3.007812 0.203125 2.34375 0.203125 C 1.78125 0.203125 1.398438 0.09375 1.203125 -0.125 C 1.015625 -0.34375 0.921875 -0.671875 0.921875 -1.109375 C 0.921875 -1.472656 0.957031 -1.90625 1.03125 -2.40625 C 1.113281 -2.90625 1.195312 -3.476562 1.28125 -4.125 C 1.363281 -4.78125 1.40625 -5.492188 1.40625 -6.265625 C 1.40625 -7.128906 1.328125 -8.066406 1.171875 -9.078125 C 1.015625 -10.085938 0.71875 -11.175781 0.28125 -12.34375 Z M 0.28125 -12.34375 "/></g></g></g><g fill="#ffffff" fill-opacity="1"><g transform="translate(70.758781, 21.013668)"><g><path d="M 0.328125 0 C 0.671875 -0.945312 0.941406 -1.96875 1.140625 -3.0625 C 1.335938 -4.164062 1.4375 -5.28125 1.4375 -6.40625 C 1.4375 -7.414062 1.347656 -8.425781 1.171875 -9.4375 C 0.992188 -10.445312 0.710938 -11.414062 0.328125 -12.34375 C 0.753906 -12.40625 1.175781 -12.453125 1.59375 -12.484375 C 2.019531 -12.523438 2.546875 -12.546875 3.171875 -12.546875 C 4.972656 -12.546875 6.289062 -12.296875 7.125 -11.796875 C 7.96875 -11.296875 8.390625 -10.664062 8.390625 -9.90625 C 8.390625 -9.59375 8.328125 -9.25 8.203125 -8.875 C 8.085938 -8.507812 7.953125 -8.132812 7.796875 -7.75 C 7.640625 -7.363281 7.5 -6.984375 7.375 -6.609375 C 7.257812 -6.234375 7.203125 -5.867188 7.203125 -5.515625 C 7.203125 -5.035156 7.375 -4.609375 7.71875 -4.234375 C 8.0625 -3.859375 8.710938 -3.578125 9.671875 -3.390625 C 9.460938 -4.691406 9.269531 -6.097656 9.09375 -7.609375 C 8.914062 -9.117188 8.796875 -10.695312 8.734375 -12.34375 L 11.734375 -12.34375 C 11.460938 -11.125 11.21875 -9.941406 11 -8.796875 C 10.78125 -7.648438 10.671875 -6.5 10.671875 -5.34375 C 10.671875 -4.476562 10.75 -3.601562 10.90625 -2.71875 C 11.070312 -1.84375 11.347656 -0.9375 11.734375 0 L 5.578125 0 C 5.222656 -0.582031 4.96875 -1.128906 4.8125 -1.640625 C 4.65625 -2.160156 4.578125 -2.644531 4.578125 -3.09375 C 4.578125 -3.71875 4.679688 -4.285156 4.890625 -4.796875 C 5.109375 -5.304688 5.378906 -5.773438 5.703125 -6.203125 C 6.023438 -6.628906 6.34375 -7.007812 6.65625 -7.34375 C 6.976562 -7.6875 7.242188 -7.988281 7.453125 -8.25 C 7.671875 -8.519531 7.78125 -8.757812 7.78125 -8.96875 C 7.78125 -9.164062 7.710938 -9.296875 7.578125 -9.359375 C 7.441406 -9.421875 7.289062 -9.453125 7.125 -9.453125 C 6.851562 -9.453125 6.515625 -9.390625 6.109375 -9.265625 C 5.710938 -9.140625 5.300781 -8.941406 4.875 -8.671875 C 4.457031 -8.410156 4.0625 -8.078125 3.6875 -7.671875 C 3.320312 -7.273438 3.023438 -6.804688 2.796875 -6.265625 C 2.566406 -5.722656 2.453125 -5.101562 2.453125 -4.40625 C 2.453125 -3.789062 2.5625 -3.117188 2.78125 -2.390625 C 3.007812 -1.660156 3.394531 -0.863281 3.9375 0 Z M 0.328125 0 "/></g></g></g></svg>