<svg xmlns="http://www.w3.org/2000/svg" xmlns:xlink="http://www.w3.org/1999/xlink" width="160" zoomAndPan="magnify" viewBox="0 0 120 60" height="80" preserveAspectRatio="xMidYMid meet" version="1.0"><defs><g/></defs><rect x="-12" width="144" fill="#ffffff" y="-6" height="72" fill-opacity="1"/><rect x="-12" width="144" fill="#000000" y="-6" height="72" fill-opacity="1"/><g fill="#737373" fill-opacity="0.302"><g transform="translate(11.164807, 40.051618)"><g><path d="M -0.3125 0 C -0.0195312 -0.769531 0.300781 -1.582031 0.65625 -2.4375 C 1.007812 -3.300781 1.359375 -4.191406 1.703125 -5.109375 C 2.046875 -6.023438 2.332031 -6.945312 2.5625 -7.875 C 2.8125 -8.863281 2.9375 -9.882812 2.9375 -10.9375 C 2.9375 -11.875 2.835938 -12.753906 2.640625 -13.578125 C 2.453125 -14.410156 2.179688 -15.09375 1.828125 -15.625 L 10.859375 -15.625 C 10.859375 -13.582031 10.957031 -11.65625 11.15625 -9.84375 C 11.351562 -8.039062 11.691406 -6.328125 12.171875 -4.703125 C 12.660156 -3.078125 13.34375 -1.507812 14.21875 0 L 7.0625 0 C 6.632812 -0.6875 6.332031 -1.34375 6.15625 -1.96875 C 5.976562 -2.59375 5.890625 -3.179688 5.890625 -3.734375 C 5.890625 -4.546875 6.039062 -5.285156 6.34375 -5.953125 C 6.65625 -6.628906 7.039062 -7.242188 7.5 -7.796875 C 7.957031 -8.347656 8.410156 -8.84375 8.859375 -9.28125 C 9.304688 -9.71875 9.6875 -10.109375 10 -10.453125 C 10.3125 -10.804688 10.46875 -11.117188 10.46875 -11.390625 C 10.46875 -11.628906 10.375 -11.78125 10.1875 -11.84375 C 10 -11.914062 9.804688 -11.953125 9.609375 -11.953125 C 9.234375 -11.953125 8.773438 -11.867188 8.234375 -11.703125 C 7.691406 -11.535156 7.125 -11.28125 6.53125 -10.9375 C 5.945312 -10.59375 5.398438 -10.160156 4.890625 -9.640625 C 4.378906 -9.128906 3.960938 -8.515625 3.640625 -7.796875 C 3.328125 -7.085938 3.171875 -6.273438 3.171875 -5.359375 C 3.171875 -4.609375 3.3125 -3.785156 3.59375 -2.890625 C 3.875 -1.992188 4.332031 -1.03125 4.96875 0 Z M -0.3125 0 "/></g></g></g><g fill="#737373" fill-opacity="0.302"><g transform="translate(25.064089, 40.051618)"><g><path d="M 3.375 0 C 3.082031 -0.5625 2.878906 -1.101562 2.765625 -1.625 C 2.648438 -2.15625 2.59375 -2.671875 2.59375 -3.171875 C 2.59375 -4.035156 2.734375 -4.847656 3.015625 -5.609375 C 3.296875 -6.367188 3.617188 -7.070312 3.984375 -7.71875 C 4.347656 -8.363281 4.671875 -8.941406 4.953125 -9.453125 C 5.242188 -9.972656 5.390625 -10.421875 5.390625 -10.796875 C 5.390625 -11.148438 5.242188 -11.414062 4.953125 -11.59375 C 4.671875 -11.78125 4.367188 -11.875 4.046875 -11.875 C 3.609375 -11.875 3.140625 -11.78125 2.640625 -11.59375 C 2.140625 -11.40625 1.660156 -11.195312 1.203125 -10.96875 C 0.753906 -10.738281 0.390625 -10.5625 0.109375 -10.4375 L 0.109375 -15.625 L 11.890625 -15.625 L 11.890625 -10.4375 C 11.785156 -10.519531 11.597656 -10.644531 11.328125 -10.8125 C 11.066406 -10.988281 10.753906 -11.164062 10.390625 -11.34375 C 10.035156 -11.519531 9.664062 -11.664062 9.28125 -11.78125 C 8.894531 -11.90625 8.519531 -11.96875 8.15625 -11.96875 C 7.707031 -11.96875 7.351562 -11.867188 7.09375 -11.671875 C 6.84375 -11.484375 6.65625 -11.234375 6.53125 -10.921875 C 6.40625 -10.617188 6.328125 -10.285156 6.296875 -9.921875 C 6.265625 -9.566406 6.25 -9.222656 6.25 -8.890625 C 6.25 -7.828125 6.394531 -6.785156 6.6875 -5.765625 C 6.988281 -4.753906 7.390625 -3.769531 7.890625 -2.8125 C 8.390625 -1.851562 8.921875 -0.914062 9.484375 0 Z M 3.375 0 "/></g></g></g><g fill="#737373" fill-opacity="0.302"><g transform="translate(37.057657, 40.051618)"><g><path d="M 0.421875 0 C 0.859375 -1.195312 1.203125 -2.488281 1.453125 -3.875 C 1.703125 -5.269531 1.828125 -6.675781 1.828125 -8.09375 C 1.828125 -9.382812 1.710938 -10.664062 1.484375 -11.9375 C 1.253906 -13.21875 0.898438 -14.445312 0.421875 -15.625 C 1.148438 -15.707031 1.851562 -15.769531 2.53125 -15.8125 C 3.21875 -15.851562 3.921875 -15.875 4.640625 -15.875 C 5.242188 -15.875 5.867188 -15.851562 6.515625 -15.8125 C 7.160156 -15.78125 7.78125 -15.695312 8.375 -15.5625 C 8.96875 -15.4375 9.492188 -15.226562 9.953125 -14.9375 C 10.421875 -14.644531 10.78125 -14.242188 11.03125 -13.734375 C 11.289062 -13.222656 11.398438 -12.566406 11.359375 -11.765625 L 11.84375 -11.765625 C 12.070312 -12.597656 12.472656 -13.320312 13.046875 -13.9375 C 13.617188 -14.550781 14.296875 -15.023438 15.078125 -15.359375 C 15.859375 -15.703125 16.664062 -15.875 17.5 -15.875 C 17.976562 -15.875 18.46875 -15.847656 18.96875 -15.796875 C 19.46875 -15.742188 19.894531 -15.6875 20.25 -15.625 C 19.8125 -14.414062 19.460938 -13.117188 19.203125 -11.734375 C 18.953125 -10.359375 18.828125 -8.953125 18.828125 -7.515625 C 18.828125 -6.234375 18.941406 -4.953125 19.171875 -3.671875 C 19.398438 -2.398438 19.757812 -1.175781 20.25 0 L 14.359375 0 C 13.929688 -0.6875 13.625 -1.34375 13.4375 -1.96875 C 13.257812 -2.59375 13.171875 -3.179688 13.171875 -3.734375 C 13.171875 -4.546875 13.328125 -5.285156 13.640625 -5.953125 C 13.953125 -6.628906 14.335938 -7.242188 14.796875 -7.796875 C 15.253906 -8.347656 15.707031 -8.84375 16.15625 -9.28125 C 16.601562 -9.71875 16.976562 -10.109375 17.28125 -10.453125 C 17.59375 -10.804688 17.75 -11.117188 17.75 -11.390625 C 17.75 -11.628906 17.65625 -11.78125 17.46875 -11.84375 C 17.289062 -11.914062 17.101562 -11.953125 16.90625 -11.953125 C 16.53125 -11.953125 16.066406 -11.867188 15.515625 -11.703125 C 14.972656 -11.535156 14.410156 -11.28125 13.828125 -10.9375 C 13.253906 -10.59375 12.710938 -10.160156 12.203125 -9.640625 C 11.691406 -9.128906 11.273438 -8.515625 10.953125 -7.796875 C 10.640625 -7.085938 10.484375 -6.273438 10.484375 -5.359375 C 10.484375 -4.609375 10.617188 -3.785156 10.890625 -2.890625 C 11.171875 -1.992188 11.628906 -1.03125 12.265625 0 L 7.0625 0 C 6.71875 -0.5625 6.4375 -1.15625 6.21875 -1.78125 C 6 -2.414062 5.890625 -3.066406 5.890625 -3.734375 C 5.890625 -4.546875 6.039062 -5.285156 6.34375 -5.953125 C 6.65625 -6.628906 7.039062 -7.242188 7.5 -7.796875 C 7.957031 -8.347656 8.410156 -8.84375 8.859375 -9.28125 C 9.304688 -9.71875 9.6875 -10.109375 10 -10.453125 C 10.3125 -10.804688 10.46875 -11.117188 10.46875 -11.390625 C 10.46875 -11.628906 10.375 -11.78125 10.1875 -11.84375 C 10 -11.914062 9.804688 -11.953125 9.609375 -11.953125 C 9.234375 -11.953125 8.773438 -11.867188 8.234375 -11.703125 C 7.691406 -11.535156 7.125 -11.28125 6.53125 -10.9375 C 5.945312 -10.59375 5.398438 -10.160156 4.890625 -9.640625 C 4.378906 -9.128906 3.960938 -8.515625 3.640625 -7.796875 C 3.328125 -7.085938 3.171875 -6.273438 3.171875 -5.359375 C 3.171875 -4.609375 3.3125 -3.785156 3.59375 -2.890625 C 3.875 -1.992188 4.332031 -1.03125 4.96875 0 Z M 0.421875 0 "/></g></g></g><g fill="#737373" fill-opacity="0.302"><g transform="translate(57.730507, 40.051618)"><g><path d="M 6.9375 0.25 C 5.832031 0.25 4.863281 0.0195312 4.03125 -0.4375 C 3.207031 -0.894531 2.519531 -1.507812 1.96875 -2.28125 C 1.425781 -3.050781 1.015625 -3.910156 0.734375 -4.859375 C 0.460938 -5.816406 0.328125 -6.800781 0.328125 -7.8125 C 0.328125 -8.820312 0.460938 -9.804688 0.734375 -10.765625 C 1.015625 -11.722656 1.425781 -12.582031 1.96875 -13.34375 C 2.519531 -14.113281 3.207031 -14.726562 4.03125 -15.1875 C 4.863281 -15.644531 5.832031 -15.875 6.9375 -15.875 C 8.039062 -15.875 9.003906 -15.644531 9.828125 -15.1875 C 10.660156 -14.726562 11.351562 -14.113281 11.90625 -13.34375 C 12.457031 -12.582031 12.875 -11.722656 13.15625 -10.765625 C 13.4375 -9.804688 13.578125 -8.820312 13.578125 -7.8125 C 13.578125 -6.800781 13.4375 -5.816406 13.15625 -4.859375 C 12.875 -3.910156 12.457031 -3.050781 11.90625 -2.28125 C 11.351562 -1.507812 10.660156 -0.894531 9.828125 -0.4375 C 9.003906 0.0195312 8.039062 0.25 6.9375 0.25 Z M 10.8125 -11.953125 C 10.375 -11.953125 9.835938 -11.84375 9.203125 -11.625 C 8.578125 -11.40625 7.914062 -11.101562 7.21875 -10.71875 C 6.53125 -10.34375 5.851562 -9.910156 5.1875 -9.421875 C 4.53125 -8.941406 3.929688 -8.4375 3.390625 -7.90625 C 2.859375 -7.375 2.425781 -6.84375 2.09375 -6.3125 C 1.769531 -5.789062 1.609375 -5.300781 1.609375 -4.84375 C 1.609375 -4.414062 1.753906 -4.113281 2.046875 -3.9375 C 2.335938 -3.757812 2.675781 -3.671875 3.0625 -3.671875 C 3.519531 -3.671875 4.054688 -3.78125 4.671875 -4 C 5.296875 -4.21875 5.953125 -4.515625 6.640625 -4.890625 C 7.335938 -5.273438 8.015625 -5.707031 8.671875 -6.1875 C 9.335938 -6.675781 9.941406 -7.1875 10.484375 -7.71875 C 11.035156 -8.25 11.472656 -8.78125 11.796875 -9.3125 C 12.117188 -9.84375 12.28125 -10.335938 12.28125 -10.796875 C 12.28125 -11.222656 12.128906 -11.519531 11.828125 -11.6875 C 11.535156 -11.863281 11.195312 -11.953125 10.8125 -11.953125 Z M 10.8125 -11.953125 "/></g></g></g><g fill="#737373" fill-opacity="0.302"><g transform="translate(71.609075, 40.051618)"><g><path d="M 0.359375 0 L 0.359375 -5.140625 C 0.597656 -5.046875 1.023438 -4.910156 1.640625 -4.734375 C 2.253906 -4.554688 2.96875 -4.378906 3.78125 -4.203125 C 4.59375 -4.023438 5.414062 -3.875 6.25 -3.75 C 7.09375 -3.625 7.851562 -3.5625 8.53125 -3.5625 C 8.644531 -3.5625 8.816406 -3.566406 9.046875 -3.578125 C 9.285156 -3.597656 9.53125 -3.632812 9.78125 -3.6875 C 10.03125 -3.738281 10.238281 -3.820312 10.40625 -3.9375 C 10.582031 -4.050781 10.671875 -4.203125 10.671875 -4.390625 C 10.671875 -4.585938 10.488281 -4.75 10.125 -4.875 C 9.757812 -5.007812 9.269531 -5.140625 8.65625 -5.265625 C 8.050781 -5.398438 7.390625 -5.554688 6.671875 -5.734375 C 5.953125 -5.921875 5.226562 -6.15625 4.5 -6.4375 C 3.78125 -6.726562 3.113281 -7.101562 2.5 -7.5625 C 1.894531 -8.019531 1.410156 -8.585938 1.046875 -9.265625 C 0.679688 -9.953125 0.5 -10.78125 0.5 -11.75 C 0.5 -12.46875 0.644531 -13.070312 0.9375 -13.5625 C 1.238281 -14.050781 1.632812 -14.445312 2.125 -14.75 C 2.613281 -15.050781 3.15625 -15.28125 3.75 -15.4375 C 4.351562 -15.601562 4.96875 -15.71875 5.59375 -15.78125 C 6.21875 -15.84375 6.796875 -15.875 7.328125 -15.875 C 7.878906 -15.875 8.472656 -15.84375 9.109375 -15.78125 C 9.742188 -15.726562 10.238281 -15.675781 10.59375 -15.625 L 10.59375 -10.40625 C 10.3125 -10.632812 9.953125 -10.875 9.515625 -11.125 C 9.085938 -11.382812 8.554688 -11.597656 7.921875 -11.765625 C 7.296875 -11.941406 6.554688 -12.03125 5.703125 -12.03125 C 4.992188 -12.03125 4.320312 -11.921875 3.6875 -11.703125 C 3.050781 -11.484375 2.53125 -11.203125 2.125 -10.859375 C 1.71875 -10.523438 1.515625 -10.1875 1.515625 -9.84375 C 1.515625 -9.59375 1.597656 -9.40625 1.765625 -9.28125 C 1.941406 -9.15625 2.144531 -9.070312 2.375 -9.03125 C 2.613281 -8.988281 2.832031 -8.96875 3.03125 -8.96875 C 3.59375 -8.96875 4.242188 -9.019531 4.984375 -9.125 C 5.722656 -9.238281 6.457031 -9.296875 7.1875 -9.296875 C 7.726562 -9.296875 8.25 -9.238281 8.75 -9.125 C 9.257812 -9.007812 9.707031 -8.796875 10.09375 -8.484375 C 10.476562 -8.179688 10.785156 -7.75 11.015625 -7.1875 C 11.242188 -6.625 11.359375 -5.894531 11.359375 -5 C 11.359375 -4.03125 11.164062 -3.207031 10.78125 -2.53125 C 10.40625 -1.863281 9.910156 -1.320312 9.296875 -0.90625 C 8.679688 -0.5 8.019531 -0.203125 7.3125 -0.015625 C 6.601562 0.160156 5.925781 0.25 5.28125 0.25 C 4.976562 0.25 4.601562 0.238281 4.15625 0.21875 C 3.707031 0.207031 3.238281 0.191406 2.75 0.171875 C 2.269531 0.148438 1.816406 0.125 1.390625 0.09375 C 0.972656 0.0703125 0.628906 0.0390625 0.359375 0 Z M 0.359375 0 "/></g></g></g><g fill="#737373" fill-opacity="0.302"><g transform="translate(83.312647, 40.051618)"><g><path d="M 0.359375 -15.625 L 5.84375 -15.625 C 6.070312 -15.15625 6.242188 -14.695312 6.359375 -14.25 C 6.472656 -13.800781 6.53125 -13.351562 6.53125 -12.90625 C 6.53125 -12.101562 6.390625 -11.335938 6.109375 -10.609375 C 5.835938 -9.890625 5.492188 -9.203125 5.078125 -8.546875 C 4.671875 -7.898438 4.265625 -7.304688 3.859375 -6.765625 C 3.453125 -6.222656 3.109375 -5.726562 2.828125 -5.28125 C 2.554688 -4.84375 2.421875 -4.460938 2.421875 -4.140625 C 2.421875 -3.910156 2.476562 -3.753906 2.59375 -3.671875 C 2.71875 -3.585938 2.890625 -3.546875 3.109375 -3.546875 C 3.484375 -3.546875 3.976562 -3.648438 4.59375 -3.859375 C 5.21875 -4.078125 5.878906 -4.390625 6.578125 -4.796875 C 7.273438 -5.203125 7.929688 -5.695312 8.546875 -6.28125 C 9.171875 -6.875 9.679688 -7.546875 10.078125 -8.296875 C 10.472656 -9.046875 10.671875 -9.878906 10.671875 -10.796875 C 10.671875 -11.515625 10.519531 -12.273438 10.21875 -13.078125 C 9.914062 -13.890625 9.394531 -14.738281 8.65625 -15.625 L 13.75 -15.625 C 13.3125 -14.414062 12.972656 -13.15625 12.734375 -11.84375 C 12.503906 -10.539062 12.390625 -9.238281 12.390625 -7.9375 C 12.390625 -7.25 12.429688 -6.632812 12.515625 -6.09375 C 12.609375 -5.550781 12.695312 -5 12.78125 -4.4375 C 12.863281 -3.882812 12.90625 -3.210938 12.90625 -2.421875 C 12.90625 -0.710938 12.570312 0.707031 11.90625 1.84375 C 11.25 2.988281 10.347656 3.847656 9.203125 4.421875 C 8.066406 4.992188 6.785156 5.28125 5.359375 5.28125 C 4.960938 5.28125 4.554688 5.257812 4.140625 5.21875 C 3.722656 5.175781 3.300781 5.109375 2.875 5.015625 L 2.875 0.78125 C 3.207031 0.84375 3.539062 0.882812 3.875 0.90625 C 4.207031 0.9375 4.546875 0.953125 4.890625 0.953125 C 5.835938 0.953125 6.753906 0.851562 7.640625 0.65625 C 8.523438 0.457031 9.320312 0.179688 10.03125 -0.171875 C 10.75 -0.535156 11.3125 -0.96875 11.71875 -1.46875 C 12.132812 -1.96875 12.34375 -2.515625 12.34375 -3.109375 C 12.34375 -3.578125 12.191406 -4.066406 11.890625 -4.578125 C 11.597656 -5.085938 11.128906 -5.613281 10.484375 -6.15625 L 10.28125 -6.15625 C 10.039062 -5.269531 9.679688 -4.4375 9.203125 -3.65625 C 8.734375 -2.882812 8.171875 -2.207031 7.515625 -1.625 C 6.867188 -1.039062 6.160156 -0.582031 5.390625 -0.25 C 4.617188 0.0820312 3.8125 0.25 2.96875 0.25 C 2.257812 0.25 1.78125 0.113281 1.53125 -0.15625 C 1.28125 -0.4375 1.15625 -0.851562 1.15625 -1.40625 C 1.15625 -1.863281 1.207031 -2.410156 1.3125 -3.046875 C 1.414062 -3.679688 1.519531 -4.410156 1.625 -5.234375 C 1.726562 -6.054688 1.78125 -6.957031 1.78125 -7.9375 C 1.78125 -9.03125 1.679688 -10.210938 1.484375 -11.484375 C 1.285156 -12.765625 0.910156 -14.144531 0.359375 -15.625 Z M 0.359375 -15.625 "/></g></g></g><g fill="#737373" fill-opacity="0.302"><g transform="translate(97.274074, 40.051618)"><g><path d="M 0.421875 0 C 0.859375 -1.195312 1.203125 -2.488281 1.453125 -3.875 C 1.703125 -5.269531 1.828125 -6.675781 1.828125 -8.09375 C 1.828125 -9.382812 1.710938 -10.664062 1.484375 -11.9375 C 1.253906 -13.21875 0.898438 -14.445312 0.421875 -15.625 C 0.953125 -15.707031 1.484375 -15.769531 2.015625 -15.8125 C 2.546875 -15.851562 3.210938 -15.875 4.015625 -15.875 C 6.296875 -15.875 7.960938 -15.554688 9.015625 -14.921875 C 10.078125 -14.296875 10.609375 -13.5 10.609375 -12.53125 C 10.609375 -12.132812 10.53125 -11.703125 10.375 -11.234375 C 10.226562 -10.773438 10.054688 -10.300781 9.859375 -9.8125 C 9.671875 -9.320312 9.5 -8.835938 9.34375 -8.359375 C 9.1875 -7.878906 9.109375 -7.421875 9.109375 -6.984375 C 9.109375 -6.378906 9.328125 -5.835938 9.765625 -5.359375 C 10.203125 -4.878906 11.03125 -4.519531 12.25 -4.28125 C 11.976562 -5.925781 11.726562 -7.707031 11.5 -9.625 C 11.28125 -11.539062 11.128906 -13.539062 11.046875 -15.625 L 14.859375 -15.625 C 14.515625 -14.070312 14.203125 -12.570312 13.921875 -11.125 C 13.648438 -9.675781 13.515625 -8.21875 13.515625 -6.75 C 13.515625 -5.664062 13.613281 -4.566406 13.8125 -3.453125 C 14.007812 -2.335938 14.359375 -1.1875 14.859375 0 L 7.0625 0 C 6.601562 -0.726562 6.273438 -1.421875 6.078125 -2.078125 C 5.890625 -2.734375 5.796875 -3.347656 5.796875 -3.921875 C 5.796875 -4.703125 5.929688 -5.414062 6.203125 -6.0625 C 6.472656 -6.71875 6.8125 -7.3125 7.21875 -7.84375 C 7.625 -8.382812 8.023438 -8.867188 8.421875 -9.296875 C 8.828125 -9.722656 9.164062 -10.101562 9.4375 -10.4375 C 9.707031 -10.78125 9.84375 -11.085938 9.84375 -11.359375 C 9.84375 -11.609375 9.753906 -11.769531 9.578125 -11.84375 C 9.410156 -11.914062 9.222656 -11.953125 9.015625 -11.953125 C 8.671875 -11.953125 8.242188 -11.875 7.734375 -11.71875 C 7.234375 -11.5625 6.71875 -11.316406 6.1875 -10.984375 C 5.65625 -10.648438 5.15625 -10.226562 4.6875 -9.71875 C 4.21875 -9.207031 3.835938 -8.609375 3.546875 -7.921875 C 3.253906 -7.242188 3.109375 -6.460938 3.109375 -5.578125 C 3.109375 -4.796875 3.25 -3.941406 3.53125 -3.015625 C 3.8125 -2.097656 4.289062 -1.09375 4.96875 0 Z M 0.421875 0 "/></g></g></g><g fill="#737373" fill-opacity="0.502"><g transform="translate(10.249231, 39.136043)"><g><path d="M -0.3125 0 C -0.0195312 -0.769531 0.300781 -1.582031 0.65625 -2.4375 C 1.007812 -3.300781 1.359375 -4.191406 1.703125 -5.109375 C 2.046875 -6.023438 2.332031 -6.945312 2.5625 -7.875 C 2.8125 -8.863281 2.9375 -9.882812 2.9375 -10.9375 C 2.9375 -11.875 2.835938 -12.753906 2.640625 -13.578125 C 2.453125 -14.410156 2.179688 -15.09375 1.828125 -15.625 L 10.859375 -15.625 C 10.859375 -13.582031 10.957031 -11.65625 11.15625 -9.84375 C 11.351562 -8.039062 11.691406 -6.328125 12.171875 -4.703125 C 12.660156 -3.078125 13.34375 -1.507812 14.21875 0 L 7.0625 0 C 6.632812 -0.6875 6.332031 -1.34375 6.15625 -1.96875 C 5.976562 -2.59375 5.890625 -3.179688 5.890625 -3.734375 C 5.890625 -4.546875 6.039062 -5.285156 6.34375 -5.953125 C 6.65625 -6.628906 7.039062 -7.242188 7.5 -7.796875 C 7.957031 -8.347656 8.410156 -8.84375 8.859375 -9.28125 C 9.304688 -9.71875 9.6875 -10.109375 10 -10.453125 C 10.3125 -10.804688 10.46875 -11.117188 10.46875 -11.390625 C 10.46875 -11.628906 10.375 -11.78125 10.1875 -11.84375 C 10 -11.914062 9.804688 -11.953125 9.609375 -11.953125 C 9.234375 -11.953125 8.773438 -11.867188 8.234375 -11.703125 C 7.691406 -11.535156 7.125 -11.28125 6.53125 -10.9375 C 5.945312 -10.59375 5.398438 -10.160156 4.890625 -9.640625 C 4.378906 -9.128906 3.960938 -8.515625 3.640625 -7.796875 C 3.328125 -7.085938 3.171875 -6.273438 3.171875 -5.359375 C 3.171875 -4.609375 3.3125 -3.785156 3.59375 -2.890625 C 3.875 -1.992188 4.332031 -1.03125 4.96875 0 Z M -0.3125 0 "/></g></g></g><g fill="#737373" fill-opacity="0.502"><g transform="translate(24.148513, 39.136043)"><g><path d="M 3.375 0 C 3.082031 -0.5625 2.878906 -1.101562 2.765625 -1.625 C 2.648438 -2.15625 2.59375 -2.671875 2.59375 -3.171875 C 2.59375 -4.035156 2.734375 -4.847656 3.015625 -5.609375 C 3.296875 -6.367188 3.617188 -7.070312 3.984375 -7.71875 C 4.347656 -8.363281 4.671875 -8.941406 4.953125 -9.453125 C 5.242188 -9.972656 5.390625 -10.421875 5.390625 -10.796875 C 5.390625 -11.148438 5.242188 -11.414062 4.953125 -11.59375 C 4.671875 -11.78125 4.367188 -11.875 4.046875 -11.875 C 3.609375 -11.875 3.140625 -11.78125 2.640625 -11.59375 C 2.140625 -11.40625 1.660156 -11.195312 1.203125 -10.96875 C 0.753906 -10.738281 0.390625 -10.5625 0.109375 -10.4375 L 0.109375 -15.625 L 11.890625 -15.625 L 11.890625 -10.4375 C 11.785156 -10.519531 11.597656 -10.644531 11.328125 -10.8125 C 11.066406 -10.988281 10.753906 -11.164062 10.390625 -11.34375 C 10.035156 -11.519531 9.664062 -11.664062 9.28125 -11.78125 C 8.894531 -11.90625 8.519531 -11.96875 8.15625 -11.96875 C 7.707031 -11.96875 7.351562 -11.867188 7.09375 -11.671875 C 6.84375 -11.484375 6.65625 -11.234375 6.53125 -10.921875 C 6.40625 -10.617188 6.328125 -10.285156 6.296875 -9.921875 C 6.265625 -9.566406 6.25 -9.222656 6.25 -8.890625 C 6.25 -7.828125 6.394531 -6.785156 6.6875 -5.765625 C 6.988281 -4.753906 7.390625 -3.769531 7.890625 -2.8125 C 8.390625 -1.851562 8.921875 -0.914062 9.484375 0 Z M 3.375 0 "/></g></g></g><g fill="#737373" fill-opacity="0.502"><g transform="translate(36.142082, 39.136043)"><g><path d="M 0.421875 0 C 0.859375 -1.195312 1.203125 -2.488281 1.453125 -3.875 C 1.703125 -5.269531 1.828125 -6.675781 1.828125 -8.09375 C 1.828125 -9.382812 1.710938 -10.664062 1.484375 -11.9375 C 1.253906 -13.21875 0.898438 -14.445312 0.421875 -15.625 C 1.148438 -15.707031 1.851562 -15.769531 2.53125 -15.8125 C 3.21875 -15.851562 3.921875 -15.875 4.640625 -15.875 C 5.242188 -15.875 5.867188 -15.851562 6.515625 -15.8125 C 7.160156 -15.78125 7.78125 -15.695312 8.375 -15.5625 C 8.96875 -15.4375 9.492188 -15.226562 9.953125 -14.9375 C 10.421875 -14.644531 10.78125 -14.242188 11.03125 -13.734375 C 11.289062 -13.222656 11.398438 -12.566406 11.359375 -11.765625 L 11.84375 -11.765625 C 12.070312 -12.597656 12.472656 -13.320312 13.046875 -13.9375 C 13.617188 -14.550781 14.296875 -15.023438 15.078125 -15.359375 C 15.859375 -15.703125 16.664062 -15.875 17.5 -15.875 C 17.976562 -15.875 18.46875 -15.847656 18.96875 -15.796875 C 19.46875 -15.742188 19.894531 -15.6875 20.25 -15.625 C 19.8125 -14.414062 19.460938 -13.117188 19.203125 -11.734375 C 18.953125 -10.359375 18.828125 -8.953125 18.828125 -7.515625 C 18.828125 -6.234375 18.941406 -4.953125 19.171875 -3.671875 C 19.398438 -2.398438 19.757812 -1.175781 20.25 0 L 14.359375 0 C 13.929688 -0.6875 13.625 -1.34375 13.4375 -1.96875 C 13.257812 -2.59375 13.171875 -3.179688 13.171875 -3.734375 C 13.171875 -4.546875 13.328125 -5.285156 13.640625 -5.953125 C 13.953125 -6.628906 14.335938 -7.242188 14.796875 -7.796875 C 15.253906 -8.347656 15.707031 -8.84375 16.15625 -9.28125 C 16.601562 -9.71875 16.976562 -10.109375 17.28125 -10.453125 C 17.59375 -10.804688 17.75 -11.117188 17.75 -11.390625 C 17.75 -11.628906 17.65625 -11.78125 17.46875 -11.84375 C 17.289062 -11.914062 17.101562 -11.953125 16.90625 -11.953125 C 16.53125 -11.953125 16.066406 -11.867188 15.515625 -11.703125 C 14.972656 -11.535156 14.410156 -11.28125 13.828125 -10.9375 C 13.253906 -10.59375 12.710938 -10.160156 12.203125 -9.640625 C 11.691406 -9.128906 11.273438 -8.515625 10.953125 -7.796875 C 10.640625 -7.085938 10.484375 -6.273438 10.484375 -5.359375 C 10.484375 -4.609375 10.617188 -3.785156 10.890625 -2.890625 C 11.171875 -1.992188 11.628906 -1.03125 12.265625 0 L 7.0625 0 C 6.71875 -0.5625 6.4375 -1.15625 6.21875 -1.78125 C 6 -2.414062 5.890625 -3.066406 5.890625 -3.734375 C 5.890625 -4.546875 6.039062 -5.285156 6.34375 -5.953125 C 6.65625 -6.628906 7.039062 -7.242188 7.5 -7.796875 C 7.957031 -8.347656 8.410156 -8.84375 8.859375 -9.28125 C 9.304688 -9.71875 9.6875 -10.109375 10 -10.453125 C 10.3125 -10.804688 10.46875 -11.117188 10.46875 -11.390625 C 10.46875 -11.628906 10.375 -11.78125 10.1875 -11.84375 C 10 -11.914062 9.804688 -11.953125 9.609375 -11.953125 C 9.234375 -11.953125 8.773438 -11.867188 8.234375 -11.703125 C 7.691406 -11.535156 7.125 -11.28125 6.53125 -10.9375 C 5.945312 -10.59375 5.398438 -10.160156 4.890625 -9.640625 C 4.378906 -9.128906 3.960938 -8.515625 3.640625 -7.796875 C 3.328125 -7.085938 3.171875 -6.273438 3.171875 -5.359375 C 3.171875 -4.609375 3.3125 -3.785156 3.59375 -2.890625 C 3.875 -1.992188 4.332031 -1.03125 4.96875 0 Z M 0.421875 0 "/></g></g></g><g fill="#737373" fill-opacity="0.502"><g transform="translate(56.814932, 39.136043)"><g><path d="M 6.9375 0.25 C 5.832031 0.25 4.863281 0.0195312 4.03125 -0.4375 C 3.207031 -0.894531 2.519531 -1.507812 1.96875 -2.28125 C 1.425781 -3.050781 1.015625 -3.910156 0.734375 -4.859375 C 0.460938 -5.816406 0.328125 -6.800781 0.328125 -7.8125 C 0.328125 -8.820312 0.460938 -9.804688 0.734375 -10.765625 C 1.015625 -11.722656 1.425781 -12.582031 1.96875 -13.34375 C 2.519531 -14.113281 3.207031 -14.726562 4.03125 -15.1875 C 4.863281 -15.644531 5.832031 -15.875 6.9375 -15.875 C 8.039062 -15.875 9.003906 -15.644531 9.828125 -15.1875 C 10.660156 -14.726562 11.351562 -14.113281 11.90625 -13.34375 C 12.457031 -12.582031 12.875 -11.722656 13.15625 -10.765625 C 13.4375 -9.804688 13.578125 -8.820312 13.578125 -7.8125 C 13.578125 -6.800781 13.4375 -5.816406 13.15625 -4.859375 C 12.875 -3.910156 12.457031 -3.050781 11.90625 -2.28125 C 11.351562 -1.507812 10.660156 -0.894531 9.828125 -0.4375 C 9.003906 0.0195312 8.039062 0.25 6.9375 0.25 Z M 10.8125 -11.953125 C 10.375 -11.953125 9.835938 -11.84375 9.203125 -11.625 C 8.578125 -11.40625 7.914062 -11.101562 7.21875 -10.71875 C 6.53125 -10.34375 5.851562 -9.910156 5.1875 -9.421875 C 4.53125 -8.941406 3.929688 -8.4375 3.390625 -7.90625 C 2.859375 -7.375 2.425781 -6.84375 2.09375 -6.3125 C 1.769531 -5.789062 1.609375 -5.300781 1.609375 -4.84375 C 1.609375 -4.414062 1.753906 -4.113281 2.046875 -3.9375 C 2.335938 -3.757812 2.675781 -3.671875 3.0625 -3.671875 C 3.519531 -3.671875 4.054688 -3.78125 4.671875 -4 C 5.296875 -4.21875 5.953125 -4.515625 6.640625 -4.890625 C 7.335938 -5.273438 8.015625 -5.707031 8.671875 -6.1875 C 9.335938 -6.675781 9.941406 -7.1875 10.484375 -7.71875 C 11.035156 -8.25 11.472656 -8.78125 11.796875 -9.3125 C 12.117188 -9.84375 12.28125 -10.335938 12.28125 -10.796875 C 12.28125 -11.222656 12.128906 -11.519531 11.828125 -11.6875 C 11.535156 -11.863281 11.195312 -11.953125 10.8125 -11.953125 Z M 10.8125 -11.953125 "/></g></g></g><g fill="#737373" fill-opacity="0.502"><g transform="translate(70.693499, 39.136043)"><g><path d="M 0.359375 0 L 0.359375 -5.140625 C 0.597656 -5.046875 1.023438 -4.910156 1.640625 -4.734375 C 2.253906 -4.554688 2.96875 -4.378906 3.78125 -4.203125 C 4.59375 -4.023438 5.414062 -3.875 6.25 -3.75 C 7.09375 -3.625 7.851562 -3.5625 8.53125 -3.5625 C 8.644531 -3.5625 8.816406 -3.566406 9.046875 -3.578125 C 9.285156 -3.597656 9.53125 -3.632812 9.78125 -3.6875 C 10.03125 -3.738281 10.238281 -3.820312 10.40625 -3.9375 C 10.582031 -4.050781 10.671875 -4.203125 10.671875 -4.390625 C 10.671875 -4.585938 10.488281 -4.75 10.125 -4.875 C 9.757812 -5.007812 9.269531 -5.140625 8.65625 -5.265625 C 8.050781 -5.398438 7.390625 -5.554688 6.671875 -5.734375 C 5.953125 -5.921875 5.226562 -6.15625 4.5 -6.4375 C 3.78125 -6.726562 3.113281 -7.101562 2.5 -7.5625 C 1.894531 -8.019531 1.410156 -8.585938 1.046875 -9.265625 C 0.679688 -9.953125 0.5 -10.78125 0.5 -11.75 C 0.5 -12.46875 0.644531 -13.070312 0.9375 -13.5625 C 1.238281 -14.050781 1.632812 -14.445312 2.125 -14.75 C 2.613281 -15.050781 3.15625 -15.28125 3.75 -15.4375 C 4.351562 -15.601562 4.96875 -15.71875 5.59375 -15.78125 C 6.21875 -15.84375 6.796875 -15.875 7.328125 -15.875 C 7.878906 -15.875 8.472656 -15.84375 9.109375 -15.78125 C 9.742188 -15.726562 10.238281 -15.675781 10.59375 -15.625 L 10.59375 -10.40625 C 10.3125 -10.632812 9.953125 -10.875 9.515625 -11.125 C 9.085938 -11.382812 8.554688 -11.597656 7.921875 -11.765625 C 7.296875 -11.941406 6.554688 -12.03125 5.703125 -12.03125 C 4.992188 -12.03125 4.320312 -11.921875 3.6875 -11.703125 C 3.050781 -11.484375 2.53125 -11.203125 2.125 -10.859375 C 1.71875 -10.523438 1.515625 -10.1875 1.515625 -9.84375 C 1.515625 -9.59375 1.597656 -9.40625 1.765625 -9.28125 C 1.941406 -9.15625 2.144531 -9.070312 2.375 -9.03125 C 2.613281 -8.988281 2.832031 -8.96875 3.03125 -8.96875 C 3.59375 -8.96875 4.242188 -9.019531 4.984375 -9.125 C 5.722656 -9.238281 6.457031 -9.296875 7.1875 -9.296875 C 7.726562 -9.296875 8.25 -9.238281 8.75 -9.125 C 9.257812 -9.007812 9.707031 -8.796875 10.09375 -8.484375 C 10.476562 -8.179688 10.785156 -7.75 11.015625 -7.1875 C 11.242188 -6.625 11.359375 -5.894531 11.359375 -5 C 11.359375 -4.03125 11.164062 -3.207031 10.78125 -2.53125 C 10.40625 -1.863281 9.910156 -1.320312 9.296875 -0.90625 C 8.679688 -0.5 8.019531 -0.203125 7.3125 -0.015625 C 6.601562 0.160156 5.925781 0.25 5.28125 0.25 C 4.976562 0.25 4.601562 0.238281 4.15625 0.21875 C 3.707031 0.207031 3.238281 0.191406 2.75 0.171875 C 2.269531 0.148438 1.816406 0.125 1.390625 0.09375 C 0.972656 0.0703125 0.628906 0.0390625 0.359375 0 Z M 0.359375 0 "/></g></g></g><g fill="#737373" fill-opacity="0.502"><g transform="translate(82.397072, 39.136043)"><g><path d="M 0.359375 -15.625 L 5.84375 -15.625 C 6.070312 -15.15625 6.242188 -14.695312 6.359375 -14.25 C 6.472656 -13.800781 6.53125 -13.351562 6.53125 -12.90625 C 6.53125 -12.101562 6.390625 -11.335938 6.109375 -10.609375 C 5.835938 -9.890625 5.492188 -9.203125 5.078125 -8.546875 C 4.671875 -7.898438 4.265625 -7.304688 3.859375 -6.765625 C 3.453125 -6.222656 3.109375 -5.726562 2.828125 -5.28125 C 2.554688 -4.84375 2.421875 -4.460938 2.421875 -4.140625 C 2.421875 -3.910156 2.476562 -3.753906 2.59375 -3.671875 C 2.71875 -3.585938 2.890625 -3.546875 3.109375 -3.546875 C 3.484375 -3.546875 3.976562 -3.648438 4.59375 -3.859375 C 5.21875 -4.078125 5.878906 -4.390625 6.578125 -4.796875 C 7.273438 -5.203125 7.929688 -5.695312 8.546875 -6.28125 C 9.171875 -6.875 9.679688 -7.546875 10.078125 -8.296875 C 10.472656 -9.046875 10.671875 -9.878906 10.671875 -10.796875 C 10.671875 -11.515625 10.519531 -12.273438 10.21875 -13.078125 C 9.914062 -13.890625 9.394531 -14.738281 8.65625 -15.625 L 13.75 -15.625 C 13.3125 -14.414062 12.972656 -13.15625 12.734375 -11.84375 C 12.503906 -10.539062 12.390625 -9.238281 12.390625 -7.9375 C 12.390625 -7.25 12.429688 -6.632812 12.515625 -6.09375 C 12.609375 -5.550781 12.695312 -5 12.78125 -4.4375 C 12.863281 -3.882812 12.90625 -3.210938 12.90625 -2.421875 C 12.90625 -0.710938 12.570312 0.707031 11.90625 1.84375 C 11.25 2.988281 10.347656 3.847656 9.203125 4.421875 C 8.066406 4.992188 6.785156 5.28125 5.359375 5.28125 C 4.960938 5.28125 4.554688 5.257812 4.140625 5.21875 C 3.722656 5.175781 3.300781 5.109375 2.875 5.015625 L 2.875 0.78125 C 3.207031 0.84375 3.539062 0.882812 3.875 0.90625 C 4.207031 0.9375 4.546875 0.953125 4.890625 0.953125 C 5.835938 0.953125 6.753906 0.851562 7.640625 0.65625 C 8.523438 0.457031 9.320312 0.179688 10.03125 -0.171875 C 10.75 -0.535156 11.3125 -0.96875 11.71875 -1.46875 C 12.132812 -1.96875 12.34375 -2.515625 12.34375 -3.109375 C 12.34375 -3.578125 12.191406 -4.066406 11.890625 -4.578125 C 11.597656 -5.085938 11.128906 -5.613281 10.484375 -6.15625 L 10.28125 -6.15625 C 10.039062 -5.269531 9.679688 -4.4375 9.203125 -3.65625 C 8.734375 -2.882812 8.171875 -2.207031 7.515625 -1.625 C 6.867188 -1.039062 6.160156 -0.582031 5.390625 -0.25 C 4.617188 0.0820312 3.8125 0.25 2.96875 0.25 C 2.257812 0.25 1.78125 0.113281 1.53125 -0.15625 C 1.28125 -0.4375 1.15625 -0.851562 1.15625 -1.40625 C 1.15625 -1.863281 1.207031 -2.410156 1.3125 -3.046875 C 1.414062 -3.679688 1.519531 -4.410156 1.625 -5.234375 C 1.726562 -6.054688 1.78125 -6.957031 1.78125 -7.9375 C 1.78125 -9.03125 1.679688 -10.210938 1.484375 -11.484375 C 1.285156 -12.765625 0.910156 -14.144531 0.359375 -15.625 Z M 0.359375 -15.625 "/></g></g></g><g fill="#737373" fill-opacity="0.502"><g transform="translate(96.358498, 39.136043)"><g><path d="M 0.421875 0 C 0.859375 -1.195312 1.203125 -2.488281 1.453125 -3.875 C 1.703125 -5.269531 1.828125 -6.675781 1.828125 -8.09375 C 1.828125 -9.382812 1.710938 -10.664062 1.484375 -11.9375 C 1.253906 -13.21875 0.898438 -14.445312 0.421875 -15.625 C 0.953125 -15.707031 1.484375 -15.769531 2.015625 -15.8125 C 2.546875 -15.851562 3.210938 -15.875 4.015625 -15.875 C 6.296875 -15.875 7.960938 -15.554688 9.015625 -14.921875 C 10.078125 -14.296875 10.609375 -13.5 10.609375 -12.53125 C 10.609375 -12.132812 10.53125 -11.703125 10.375 -11.234375 C 10.226562 -10.773438 10.054688 -10.300781 9.859375 -9.8125 C 9.671875 -9.320312 9.5 -8.835938 9.34375 -8.359375 C 9.1875 -7.878906 9.109375 -7.421875 9.109375 -6.984375 C 9.109375 -6.378906 9.328125 -5.835938 9.765625 -5.359375 C 10.203125 -4.878906 11.03125 -4.519531 12.25 -4.28125 C 11.976562 -5.925781 11.726562 -7.707031 11.5 -9.625 C 11.28125 -11.539062 11.128906 -13.539062 11.046875 -15.625 L 14.859375 -15.625 C 14.515625 -14.070312 14.203125 -12.570312 13.921875 -11.125 C 13.648438 -9.675781 13.515625 -8.21875 13.515625 -6.75 C 13.515625 -5.664062 13.613281 -4.566406 13.8125 -3.453125 C 14.007812 -2.335938 14.359375 -1.1875 14.859375 0 L 7.0625 0 C 6.601562 -0.726562 6.273438 -1.421875 6.078125 -2.078125 C 5.890625 -2.734375 5.796875 -3.347656 5.796875 -3.921875 C 5.796875 -4.703125 5.929688 -5.414062 6.203125 -6.0625 C 6.472656 -6.71875 6.8125 -7.3125 7.21875 -7.84375 C 7.625 -8.382812 8.023438 -8.867188 8.421875 -9.296875 C 8.828125 -9.722656 9.164062 -10.101562 9.4375 -10.4375 C 9.707031 -10.78125 9.84375 -11.085938 9.84375 -11.359375 C 9.84375 -11.609375 9.753906 -11.769531 9.578125 -11.84375 C 9.410156 -11.914062 9.222656 -11.953125 9.015625 -11.953125 C 8.671875 -11.953125 8.242188 -11.875 7.734375 -11.71875 C 7.234375 -11.5625 6.71875 -11.316406 6.1875 -10.984375 C 5.65625 -10.648438 5.15625 -10.226562 4.6875 -9.71875 C 4.21875 -9.207031 3.835938 -8.609375 3.546875 -7.921875 C 3.253906 -7.242188 3.109375 -6.460938 3.109375 -5.578125 C 3.109375 -4.796875 3.25 -3.941406 3.53125 -3.015625 C 3.8125 -2.097656 4.289062 -1.09375 4.96875 0 Z M 0.421875 0 "/></g></g></g><g fill="#ffffff" fill-opacity="1"><g transform="translate(9.333655, 38.220466)"><g><path d="M -0.3125 0 C -0.0195312 -0.769531 0.300781 -1.582031 0.65625 -2.4375 C 1.007812 -3.300781 1.359375 -4.191406 1.703125 -5.109375 C 2.046875 -6.023438 2.332031 -6.945312 2.5625 -7.875 C 2.8125 -8.863281 2.9375 -9.882812 2.9375 -10.9375 C 2.9375 -11.875 2.835938 -12.753906 2.640625 -13.578125 C 2.453125 -14.410156 2.179688 -15.09375 1.828125 -15.625 L 10.859375 -15.625 C 10.859375 -13.582031 10.957031 -11.65625 11.15625 -9.84375 C 11.351562 -8.039062 11.691406 -6.328125 12.171875 -4.703125 C 12.660156 -3.078125 13.34375 -1.507812 14.21875 0 L 7.0625 0 C 6.632812 -0.6875 6.332031 -1.34375 6.15625 -1.96875 C 5.976562 -2.59375 5.890625 -3.179688 5.890625 -3.734375 C 5.890625 -4.546875 6.039062 -5.285156 6.34375 -5.953125 C 6.65625 -6.628906 7.039062 -7.242188 7.5 -7.796875 C 7.957031 -8.347656 8.410156 -8.84375 8.859375 -9.28125 C 9.304688 -9.71875 9.6875 -10.109375 10 -10.453125 C 10.3125 -10.804688 10.46875 -11.117188 10.46875 -11.390625 C 10.46875 -11.628906 10.375 -11.78125 10.1875 -11.84375 C 10 -11.914062 9.804688 -11.953125 9.609375 -11.953125 C 9.234375 -11.953125 8.773438 -11.867188 8.234375 -11.703125 C 7.691406 -11.535156 7.125 -11.28125 6.53125 -10.9375 C 5.945312 -10.59375 5.398438 -10.160156 4.890625 -9.640625 C 4.378906 -9.128906 3.960938 -8.515625 3.640625 -7.796875 C 3.328125 -7.085938 3.171875 -6.273438 3.171875 -5.359375 C 3.171875 -4.609375 3.3125 -3.785156 3.59375 -2.890625 C 3.875 -1.992188 4.332031 -1.03125 4.96875 0 Z M -0.3125 0 "/></g></g></g><g fill="#ffffff" fill-opacity="1"><g transform="translate(23.232938, 38.220466)"><g><path d="M 3.375 0 C 3.082031 -0.5625 2.878906 -1.101562 2.765625 -1.625 C 2.648438 -2.15625 2.59375 -2.671875 2.59375 -3.171875 C 2.59375 -4.035156 2.734375 -4.847656 3.015625 -5.609375 C 3.296875 -6.367188 3.617188 -7.070312 3.984375 -7.71875 C 4.347656 -8.363281 4.671875 -8.941406 4.953125 -9.453125 C 5.242188 -9.972656 5.390625 -10.421875 5.390625 -10.796875 C 5.390625 -11.148438 5.242188 -11.414062 4.953125 -11.59375 C 4.671875 -11.78125 4.367188 -11.875 4.046875 -11.875 C 3.609375 -11.875 3.140625 -11.78125 2.640625 -11.59375 C 2.140625 -11.40625 1.660156 -11.195312 1.203125 -10.96875 C 0.753906 -10.738281 0.390625 -10.5625 0.109375 -10.4375 L 0.109375 -15.625 L 11.890625 -15.625 L 11.890625 -10.4375 C 11.785156 -10.519531 11.597656 -10.644531 11.328125 -10.8125 C 11.066406 -10.988281 10.753906 -11.164062 10.390625 -11.34375 C 10.035156 -11.519531 9.664062 -11.664062 9.28125 -11.78125 C 8.894531 -11.90625 8.519531 -11.96875 8.15625 -11.96875 C 7.707031 -11.96875 7.351562 -11.867188 7.09375 -11.671875 C 6.84375 -11.484375 6.65625 -11.234375 6.53125 -10.921875 C 6.40625 -10.617188 6.328125 -10.285156 6.296875 -9.921875 C 6.265625 -9.566406 6.25 -9.222656 6.25 -8.890625 C 6.25 -7.828125 6.394531 -6.785156 6.6875 -5.765625 C 6.988281 -4.753906 7.390625 -3.769531 7.890625 -2.8125 C 8.390625 -1.851562 8.921875 -0.914062 9.484375 0 Z M 3.375 0 "/></g></g></g><g fill="#ffffff" fill-opacity="1"><g transform="translate(35.226506, 38.220466)"><g><path d="M 0.421875 0 C 0.859375 -1.195312 1.203125 -2.488281 1.453125 -3.875 C 1.703125 -5.269531 1.828125 -6.675781 1.828125 -8.09375 C 1.828125 -9.382812 1.710938 -10.664062 1.484375 -11.9375 C 1.253906 -13.21875 0.898438 -14.445312 0.421875 -15.625 C 1.148438 -15.707031 1.851562 -15.769531 2.53125 -15.8125 C 3.21875 -15.851562 3.921875 -15.875 4.640625 -15.875 C 5.242188 -15.875 5.867188 -15.851562 6.515625 -15.8125 C 7.160156 -15.78125 7.78125 -15.695312 8.375 -15.5625 C 8.96875 -15.4375 9.492188 -15.226562 9.953125 -14.9375 C 10.421875 -14.644531 10.78125 -14.242188 11.03125 -13.734375 C 11.289062 -13.222656 11.398438 -12.566406 11.359375 -11.765625 L 11.84375 -11.765625 C 12.070312 -12.597656 12.472656 -13.320312 13.046875 -13.9375 C 13.617188 -14.550781 14.296875 -15.023438 15.078125 -15.359375 C 15.859375 -15.703125 16.664062 -15.875 17.5 -15.875 C 17.976562 -15.875 18.46875 -15.847656 18.96875 -15.796875 C 19.46875 -15.742188 19.894531 -15.6875 20.25 -15.625 C 19.8125 -14.414062 19.460938 -13.117188 19.203125 -11.734375 C 18.953125 -10.359375 18.828125 -8.953125 18.828125 -7.515625 C 18.828125 -6.234375 18.941406 -4.953125 19.171875 -3.671875 C 19.398438 -2.398438 19.757812 -1.175781 20.25 0 L 14.359375 0 C 13.929688 -0.6875 13.625 -1.34375 13.4375 -1.96875 C 13.257812 -2.59375 13.171875 -3.179688 13.171875 -3.734375 C 13.171875 -4.546875 13.328125 -5.285156 13.640625 -5.953125 C 13.953125 -6.628906 14.335938 -7.242188 14.796875 -7.796875 C 15.253906 -8.347656 15.707031 -8.84375 16.15625 -9.28125 C 16.601562 -9.71875 16.976562 -10.109375 17.28125 -10.453125 C 17.59375 -10.804688 17.75 -11.117188 17.75 -11.390625 C 17.75 -11.628906 17.65625 -11.78125 17.46875 -11.84375 C 17.289062 -11.914062 17.101562 -11.953125 16.90625 -11.953125 C 16.53125 -11.953125 16.066406 -11.867188 15.515625 -11.703125 C 14.972656 -11.535156 14.410156 -11.28125 13.828125 -10.9375 C 13.253906 -10.59375 12.710938 -10.160156 12.203125 -9.640625 C 11.691406 -9.128906 11.273438 -8.515625 10.953125 -7.796875 C 10.640625 -7.085938 10.484375 -6.273438 10.484375 -5.359375 C 10.484375 -4.609375 10.617188 -3.785156 10.890625 -2.890625 C 11.171875 -1.992188 11.628906 -1.03125 12.265625 0 L 7.0625 0 C 6.71875 -0.5625 6.4375 -1.15625 6.21875 -1.78125 C 6 -2.414062 5.890625 -3.066406 5.890625 -3.734375 C 5.890625 -4.546875 6.039062 -5.285156 6.34375 -5.953125 C 6.65625 -6.628906 7.039062 -7.242188 7.5 -7.796875 C 7.957031 -8.347656 8.410156 -8.84375 8.859375 -9.28125 C 9.304688 -9.71875 9.6875 -10.109375 10 -10.453125 C 10.3125 -10.804688 10.46875 -11.117188 10.46875 -11.390625 C 10.46875 -11.628906 10.375 -11.78125 10.1875 -11.84375 C 10 -11.914062 9.804688 -11.953125 9.609375 -11.953125 C 9.234375 -11.953125 8.773438 -11.867188 8.234375 -11.703125 C 7.691406 -11.535156 7.125 -11.28125 6.53125 -10.9375 C 5.945312 -10.59375 5.398438 -10.160156 4.890625 -9.640625 C 4.378906 -9.128906 3.960938 -8.515625 3.640625 -7.796875 C 3.328125 -7.085938 3.171875 -6.273438 3.171875 -5.359375 C 3.171875 -4.609375 3.3125 -3.785156 3.59375 -2.890625 C 3.875 -1.992188 4.332031 -1.03125 4.96875 0 Z M 0.421875 0 "/></g></g></g><g fill="#ffffff" fill-opacity="1"><g transform="translate(55.899356, 38.220466)"><g><path d="M 6.9375 0.25 C 5.832031 0.25 4.863281 0.0195312 4.03125 -0.4375 C 3.207031 -0.894531 2.519531 -1.507812 1.96875 -2.28125 C 1.425781 -3.050781 1.015625 -3.910156 0.734375 -4.859375 C 0.460938 -5.816406 0.328125 -6.800781 0.328125 -7.8125 C 0.328125 -8.820312 0.460938 -9.804688 0.734375 -10.765625 C 1.015625 -11.722656 1.425781 -12.582031 1.96875 -13.34375 C 2.519531 -14.113281 3.207031 -14.726562 4.03125 -15.1875 C 4.863281 -15.644531 5.832031 -15.875 6.9375 -15.875 C 8.039062 -15.875 9.003906 -15.644531 9.828125 -15.1875 C 10.660156 -14.726562 11.351562 -14.113281 11.90625 -13.34375 C 12.457031 -12.582031 12.875 -11.722656 13.15625 -10.765625 C 13.4375 -9.804688 13.578125 -8.820312 13.578125 -7.8125 C 13.578125 -6.800781 13.4375 -5.816406 13.15625 -4.859375 C 12.875 -3.910156 12.457031 -3.050781 11.90625 -2.28125 C 11.351562 -1.507812 10.660156 -0.894531 9.828125 -0.4375 C 9.003906 0.0195312 8.039062 0.25 6.9375 0.25 Z M 10.8125 -11.953125 C 10.375 -11.953125 9.835938 -11.84375 9.203125 -11.625 C 8.578125 -11.40625 7.914062 -11.101562 7.21875 -10.71875 C 6.53125 -10.34375 5.851562 -9.910156 5.1875 -9.421875 C 4.53125 -8.941406 3.929688 -8.4375 3.390625 -7.90625 C 2.859375 -7.375 2.425781 -6.84375 2.09375 -6.3125 C 1.769531 -5.789062 1.609375 -5.300781 1.609375 -4.84375 C 1.609375 -4.414062 1.753906 -4.113281 2.046875 -3.9375 C 2.335938 -3.757812 2.675781 -3.671875 3.0625 -3.671875 C 3.519531 -3.671875 4.054688 -3.78125 4.671875 -4 C 5.296875 -4.21875 5.953125 -4.515625 6.640625 -4.890625 C 7.335938 -5.273438 8.015625 -5.707031 8.671875 -6.1875 C 9.335938 -6.675781 9.941406 -7.1875 10.484375 -7.71875 C 11.035156 -8.25 11.472656 -8.78125 11.796875 -9.3125 C 12.117188 -9.84375 12.28125 -10.335938 12.28125 -10.796875 C 12.28125 -11.222656 12.128906 -11.519531 11.828125 -11.6875 C 11.535156 -11.863281 11.195312 -11.953125 10.8125 -11.953125 Z M 10.8125 -11.953125 "/></g></g></g><g fill="#ffffff" fill-opacity="1"><g transform="translate(69.777924, 38.220466)"><g><path d="M 0.359375 0 L 0.359375 -5.140625 C 0.597656 -5.046875 1.023438 -4.910156 1.640625 -4.734375 C 2.253906 -4.554688 2.96875 -4.378906 3.78125 -4.203125 C 4.59375 -4.023438 5.414062 -3.875 6.25 -3.75 C 7.09375 -3.625 7.851562 -3.5625 8.53125 -3.5625 C 8.644531 -3.5625 8.816406 -3.566406 9.046875 -3.578125 C 9.285156 -3.597656 9.53125 -3.632812 9.78125 -3.6875 C 10.03125 -3.738281 10.238281 -3.820312 10.40625 -3.9375 C 10.582031 -4.050781 10.671875 -4.203125 10.671875 -4.390625 C 10.671875 -4.585938 10.488281 -4.75 10.125 -4.875 C 9.757812 -5.007812 9.269531 -5.140625 8.65625 -5.265625 C 8.050781 -5.398438 7.390625 -5.554688 6.671875 -5.734375 C 5.953125 -5.921875 5.226562 -6.15625 4.5 -6.4375 C 3.78125 -6.726562 3.113281 -7.101562 2.5 -7.5625 C 1.894531 -8.019531 1.410156 -8.585938 1.046875 -9.265625 C 0.679688 -9.953125 0.5 -10.78125 0.5 -11.75 C 0.5 -12.46875 0.644531 -13.070312 0.9375 -13.5625 C 1.238281 -14.050781 1.632812 -14.445312 2.125 -14.75 C 2.613281 -15.050781 3.15625 -15.28125 3.75 -15.4375 C 4.351562 -15.601562 4.96875 -15.71875 5.59375 -15.78125 C 6.21875 -15.84375 6.796875 -15.875 7.328125 -15.875 C 7.878906 -15.875 8.472656 -15.84375 9.109375 -15.78125 C 9.742188 -15.726562 10.238281 -15.675781 10.59375 -15.625 L 10.59375 -10.40625 C 10.3125 -10.632812 9.953125 -10.875 9.515625 -11.125 C 9.085938 -11.382812 8.554688 -11.597656 7.921875 -11.765625 C 7.296875 -11.941406 6.554688 -12.03125 5.703125 -12.03125 C 4.992188 -12.03125 4.320312 -11.921875 3.6875 -11.703125 C 3.050781 -11.484375 2.53125 -11.203125 2.125 -10.859375 C 1.71875 -10.523438 1.515625 -10.1875 1.515625 -9.84375 C 1.515625 -9.59375 1.597656 -9.40625 1.765625 -9.28125 C 1.941406 -9.15625 2.144531 -9.070312 2.375 -9.03125 C 2.613281 -8.988281 2.832031 -8.96875 3.03125 -8.96875 C 3.59375 -8.96875 4.242188 -9.019531 4.984375 -9.125 C 5.722656 -9.238281 6.457031 -9.296875 7.1875 -9.296875 C 7.726562 -9.296875 8.25 -9.238281 8.75 -9.125 C 9.257812 -9.007812 9.707031 -8.796875 10.09375 -8.484375 C 10.476562 -8.179688 10.785156 -7.75 11.015625 -7.1875 C 11.242188 -6.625 11.359375 -5.894531 11.359375 -5 C 11.359375 -4.03125 11.164062 -3.207031 10.78125 -2.53125 C 10.40625 -1.863281 9.910156 -1.320312 9.296875 -0.90625 C 8.679688 -0.5 8.019531 -0.203125 7.3125 -0.015625 C 6.601562 0.160156 5.925781 0.25 5.28125 0.25 C 4.976562 0.25 4.601562 0.238281 4.15625 0.21875 C 3.707031 0.207031 3.238281 0.191406 2.75 0.171875 C 2.269531 0.148438 1.816406 0.125 1.390625 0.09375 C 0.972656 0.0703125 0.628906 0.0390625 0.359375 0 Z M 0.359375 0 "/></g></g></g><g fill="#ffffff" fill-opacity="1"><g transform="translate(81.481496, 38.220466)"><g><path d="M 0.359375 -15.625 L 5.84375 -15.625 C 6.070312 -15.15625 6.242188 -14.695312 6.359375 -14.25 C 6.472656 -13.800781 6.53125 -13.351562 6.53125 -12.90625 C 6.53125 -12.101562 6.390625 -11.335938 6.109375 -10.609375 C 5.835938 -9.890625 5.492188 -9.203125 5.078125 -8.546875 C 4.671875 -7.898438 4.265625 -7.304688 3.859375 -6.765625 C 3.453125 -6.222656 3.109375 -5.726562 2.828125 -5.28125 C 2.554688 -4.84375 2.421875 -4.460938 2.421875 -4.140625 C 2.421875 -3.910156 2.476562 -3.753906 2.59375 -3.671875 C 2.71875 -3.585938 2.890625 -3.546875 3.109375 -3.546875 C 3.484375 -3.546875 3.976562 -3.648438 4.59375 -3.859375 C 5.21875 -4.078125 5.878906 -4.390625 6.578125 -4.796875 C 7.273438 -5.203125 7.929688 -5.695312 8.546875 -6.28125 C 9.171875 -6.875 9.679688 -7.546875 10.078125 -8.296875 C 10.472656 -9.046875 10.671875 -9.878906 10.671875 -10.796875 C 10.671875 -11.515625 10.519531 -12.273438 10.21875 -13.078125 C 9.914062 -13.890625 9.394531 -14.738281 8.65625 -15.625 L 13.75 -15.625 C 13.3125 -14.414062 12.972656 -13.15625 12.734375 -11.84375 C 12.503906 -10.539062 12.390625 -9.238281 12.390625 -7.9375 C 12.390625 -7.25 12.429688 -6.632812 12.515625 -6.09375 C 12.609375 -5.550781 12.695312 -5 12.78125 -4.4375 C 12.863281 -3.882812 12.90625 -3.210938 12.90625 -2.421875 C 12.90625 -0.710938 12.570312 0.707031 11.90625 1.84375 C 11.25 2.988281 10.347656 3.847656 9.203125 4.421875 C 8.066406 4.992188 6.785156 5.28125 5.359375 5.28125 C 4.960938 5.28125 4.554688 5.257812 4.140625 5.21875 C 3.722656 5.175781 3.300781 5.109375 2.875 5.015625 L 2.875 0.78125 C 3.207031 0.84375 3.539062 0.882812 3.875 0.90625 C 4.207031 0.9375 4.546875 0.953125 4.890625 0.953125 C 5.835938 0.953125 6.753906 0.851562 7.640625 0.65625 C 8.523438 0.457031 9.320312 0.179688 10.03125 -0.171875 C 10.75 -0.535156 11.3125 -0.96875 11.71875 -1.46875 C 12.132812 -1.96875 12.34375 -2.515625 12.34375 -3.109375 C 12.34375 -3.578125 12.191406 -4.066406 11.890625 -4.578125 C 11.597656 -5.085938 11.128906 -5.613281 10.484375 -6.15625 L 10.28125 -6.15625 C 10.039062 -5.269531 9.679688 -4.4375 9.203125 -3.65625 C 8.734375 -2.882812 8.171875 -2.207031 7.515625 -1.625 C 6.867188 -1.039062 6.160156 -0.582031 5.390625 -0.25 C 4.617188 0.0820312 3.8125 0.25 2.96875 0.25 C 2.257812 0.25 1.78125 0.113281 1.53125 -0.15625 C 1.28125 -0.4375 1.15625 -0.851562 1.15625 -1.40625 C 1.15625 -1.863281 1.207031 -2.410156 1.3125 -3.046875 C 1.414062 -3.679688 1.519531 -4.410156 1.625 -5.234375 C 1.726562 -6.054688 1.78125 -6.957031 1.78125 -7.9375 C 1.78125 -9.03125 1.679688 -10.210938 1.484375 -11.484375 C 1.285156 -12.765625 0.910156 -14.144531 0.359375 -15.625 Z M 0.359375 -15.625 "/></g></g></g><g fill="#ffffff" fill-opacity="1"><g transform="translate(95.442922, 38.220466)"><g><path d="M 0.421875 0 C 0.859375 -1.195312 1.203125 -2.488281 1.453125 -3.875 C 1.703125 -5.269531 1.828125 -6.675781 1.828125 -8.09375 C 1.828125 -9.382812 1.710938 -10.664062 1.484375 -11.9375 C 1.253906 -13.21875 0.898438 -14.445312 0.421875 -15.625 C 0.953125 -15.707031 1.484375 -15.769531 2.015625 -15.8125 C 2.546875 -15.851562 3.210938 -15.875 4.015625 -15.875 C 6.296875 -15.875 7.960938 -15.554688 9.015625 -14.921875 C 10.078125 -14.296875 10.609375 -13.5 10.609375 -12.53125 C 10.609375 -12.132812 10.53125 -11.703125 10.375 -11.234375 C 10.226562 -10.773438 10.054688 -10.300781 9.859375 -9.8125 C 9.671875 -9.320312 9.5 -8.835938 9.34375 -8.359375 C 9.1875 -7.878906 9.109375 -7.421875 9.109375 -6.984375 C 9.109375 -6.378906 9.328125 -5.835938 9.765625 -5.359375 C 10.203125 -4.878906 11.03125 -4.519531 12.25 -4.28125 C 11.976562 -5.925781 11.726562 -7.707031 11.5 -9.625 C 11.28125 -11.539062 11.128906 -13.539062 11.046875 -15.625 L 14.859375 -15.625 C 14.515625 -14.070312 14.203125 -12.570312 13.921875 -11.125 C 13.648438 -9.675781 13.515625 -8.21875 13.515625 -6.75 C 13.515625 -5.664062 13.613281 -4.566406 13.8125 -3.453125 C 14.007812 -2.335938 14.359375 -1.1875 14.859375 0 L 7.0625 0 C 6.601562 -0.726562 6.273438 -1.421875 6.078125 -2.078125 C 5.890625 -2.734375 5.796875 -3.347656 5.796875 -3.921875 C 5.796875 -4.703125 5.929688 -5.414062 6.203125 -6.0625 C 6.472656 -6.71875 6.8125 -7.3125 7.21875 -7.84375 C 7.625 -8.382812 8.023438 -8.867188 8.421875 -9.296875 C 8.828125 -9.722656 9.164062 -10.101562 9.4375 -10.4375 C 9.707031 -10.78125 9.84375 -11.085938 9.84375 -11.359375 C 9.84375 -11.609375 9.753906 -11.769531 9.578125 -11.84375 C 9.410156 -11.914062 9.222656 -11.953125 9.015625 -11.953125 C 8.671875 -11.953125 8.242188 -11.875 7.734375 -11.71875 C 7.234375 -11.5625 6.71875 -11.316406 6.1875 -10.984375 C 5.65625 -10.648438 5.15625 -10.226562 4.6875 -9.71875 C 4.21875 -9.207031 3.835938 -8.609375 3.546875 -7.921875 C 3.253906 -7.242188 3.109375 -6.460938 3.109375 -5.578125 C 3.109375 -4.796875 3.25 -3.941406 3.53125 -3.015625 C 3.8125 -2.097656 4.289062 -1.09375 4.96875 0 Z M 0.421875 0 "/></g></g></g></svg>