<svg xmlns="http://www.w3.org/2000/svg" xmlns:xlink="http://www.w3.org/1999/xlink" width="40" zoomAndPan="magnify" viewBox="0 0 30 30.000001" height="40" preserveAspectRatio="xMidYMid meet" version="1.0"><defs><g/></defs><g fill="#737373" fill-opacity="0.302"><g transform="translate(7.598614, 25.272119)"><g><path d="M -0.40625 0 C -0.03125 -1.007812 0.382812 -2.070312 0.84375 -3.1875 C 1.300781 -4.300781 1.753906 -5.457031 2.203125 -6.65625 C 2.660156 -7.851562 3.039062 -9.054688 3.34375 -10.265625 C 3.664062 -11.554688 3.828125 -12.882812 3.828125 -14.25 C 3.828125 -15.476562 3.703125 -16.628906 3.453125 -17.703125 C 3.203125 -18.785156 2.84375 -19.671875 2.375 -20.359375 L 14.140625 -20.359375 C 14.140625 -17.691406 14.269531 -15.179688 14.53125 -12.828125 C 14.800781 -10.484375 15.25 -8.25 15.875 -6.125 C 16.507812 -4 17.390625 -1.957031 18.515625 0 L 9.203125 0 C 8.648438 -0.894531 8.253906 -1.75 8.015625 -2.5625 C 7.785156 -3.375 7.671875 -4.140625 7.671875 -4.859375 C 7.671875 -5.921875 7.875 -6.890625 8.28125 -7.765625 C 8.6875 -8.640625 9.1875 -9.4375 9.78125 -10.15625 C 10.375 -10.875 10.960938 -11.519531 11.546875 -12.09375 C 12.128906 -12.664062 12.625 -13.175781 13.03125 -13.625 C 13.4375 -14.082031 13.640625 -14.488281 13.640625 -14.84375 C 13.640625 -15.15625 13.515625 -15.351562 13.265625 -15.4375 C 13.023438 -15.53125 12.78125 -15.578125 12.53125 -15.578125 C 12.039062 -15.578125 11.441406 -15.46875 10.734375 -15.25 C 10.023438 -15.039062 9.285156 -14.707031 8.515625 -14.25 C 7.753906 -13.800781 7.039062 -13.238281 6.375 -12.5625 C 5.707031 -11.894531 5.164062 -11.097656 4.75 -10.171875 C 4.332031 -9.242188 4.125 -8.1875 4.125 -7 C 4.125 -6.007812 4.304688 -4.929688 4.671875 -3.765625 C 5.046875 -2.609375 5.648438 -1.351562 6.484375 0 Z M -0.40625 0 "/></g></g></g><g fill="#737373" fill-opacity="0.502"><g transform="translate(6.405398, 24.078901)"><g><path d="M -0.40625 0 C -0.03125 -1.007812 0.382812 -2.070312 0.84375 -3.1875 C 1.300781 -4.300781 1.753906 -5.457031 2.203125 -6.65625 C 2.660156 -7.851562 3.039062 -9.054688 3.34375 -10.265625 C 3.664062 -11.554688 3.828125 -12.882812 3.828125 -14.25 C 3.828125 -15.476562 3.703125 -16.628906 3.453125 -17.703125 C 3.203125 -18.785156 2.84375 -19.671875 2.375 -20.359375 L 14.140625 -20.359375 C 14.140625 -17.691406 14.269531 -15.179688 14.53125 -12.828125 C 14.800781 -10.484375 15.25 -8.25 15.875 -6.125 C 16.507812 -4 17.390625 -1.957031 18.515625 0 L 9.203125 0 C 8.648438 -0.894531 8.253906 -1.75 8.015625 -2.5625 C 7.785156 -3.375 7.671875 -4.140625 7.671875 -4.859375 C 7.671875 -5.921875 7.875 -6.890625 8.28125 -7.765625 C 8.6875 -8.640625 9.1875 -9.4375 9.78125 -10.15625 C 10.375 -10.875 10.960938 -11.519531 11.546875 -12.09375 C 12.128906 -12.664062 12.625 -13.175781 13.03125 -13.625 C 13.4375 -14.082031 13.640625 -14.488281 13.640625 -14.84375 C 13.640625 -15.15625 13.515625 -15.351562 13.265625 -15.4375 C 13.023438 -15.53125 12.78125 -15.578125 12.53125 -15.578125 C 12.039062 -15.578125 11.441406 -15.46875 10.734375 -15.25 C 10.023438 -15.039062 9.285156 -14.707031 8.515625 -14.25 C 7.753906 -13.800781 7.039062 -13.238281 6.375 -12.5625 C 5.707031 -11.894531 5.164062 -11.097656 4.75 -10.171875 C 4.332031 -9.242188 4.125 -8.1875 4.125 -7 C 4.125 -6.007812 4.304688 -4.929688 4.671875 -3.765625 C 5.046875 -2.609375 5.648438 -1.351562 6.484375 0 Z M -0.40625 0 "/></g></g></g><g fill="#ffffff" fill-opacity="1"><g transform="translate(5.21218, 22.885684)"><g><path d="M -0.40625 0 C -0.03125 -1.007812 0.382812 -2.070312 0.84375 -3.1875 C 1.300781 -4.300781 1.753906 -5.457031 2.203125 -6.65625 C 2.660156 -7.851562 3.039062 -9.054688 3.34375 -10.265625 C 3.664062 -11.554688 3.828125 -12.882812 3.828125 -14.25 C 3.828125 -15.476562 3.703125 -16.628906 3.453125 -17.703125 C 3.203125 -18.785156 2.84375 -19.671875 2.375 -20.359375 L 14.140625 -20.359375 C 14.140625 -17.691406 14.269531 -15.179688 14.53125 -12.828125 C 14.800781 -10.484375 15.25 -8.25 15.875 -6.125 C 16.507812 -4 17.390625 -1.957031 18.515625 0 L 9.203125 0 C 8.648438 -0.894531 8.253906 -1.75 8.015625 -2.5625 C 7.785156 -3.375 7.671875 -4.140625 7.671875 -4.859375 C 7.671875 -5.921875 7.875 -6.890625 8.28125 -7.765625 C 8.6875 -8.640625 9.1875 -9.4375 9.78125 -10.15625 C 10.375 -10.875 10.960938 -11.519531 11.546875 -12.09375 C 12.128906 -12.664062 12.625 -13.175781 13.03125 -13.625 C 13.4375 -14.082031 13.640625 -14.488281 13.640625 -14.84375 C 13.640625 -15.15625 13.515625 -15.351562 13.265625 -15.4375 C 13.023438 -15.53125 12.78125 -15.578125 12.53125 -15.578125 C 12.039062 -15.578125 11.441406 -15.46875 10.734375 -15.25 C 10.023438 -15.039062 9.285156 -14.707031 8.515625 -14.25 C 7.753906 -13.800781 7.039062 -13.238281 6.375 -12.5625 C 5.707031 -11.894531 5.164062 -11.097656 4.75 -10.171875 C 4.332031 -9.242188 4.125 -8.1875 4.125 -7 C 4.125 -6.007812 4.304688 -4.929688 4.671875 -3.765625 C 5.046875 -2.609375 5.648438 -1.351562 6.484375 0 Z M -0.40625 0 "/></g></g></g></svg>