<svg xmlns="http://www.w3.org/2000/svg" xmlns:xlink="http://www.w3.org/1999/xlink" width="500" zoomAndPan="magnify" viewBox="0 0 375 149.999998" height="200" preserveAspectRatio="xMidYMid meet" version="1.0"><defs><g/></defs><g fill="#ffffff" fill-opacity="0.302"><g transform="translate(47.08681, 103.887586)"><g><path d="M -0.890625 0 C -0.0546875 -2.21875 0.863281 -4.554688 1.875 -7.015625 C 2.882812 -9.484375 3.882812 -12.035156 4.875 -14.671875 C 5.875 -17.316406 6.707031 -19.96875 7.375 -22.625 C 8.09375 -25.476562 8.453125 -28.414062 8.453125 -31.4375 C 8.453125 -34.132812 8.171875 -36.671875 7.609375 -39.046875 C 7.054688 -41.429688 6.265625 -43.378906 5.234375 -44.890625 L 31.1875 -44.890625 C 31.1875 -39.015625 31.472656 -33.484375 32.046875 -28.296875 C 32.628906 -23.117188 33.613281 -18.1875 35 -13.5 C 36.394531 -8.820312 38.34375 -4.320312 40.84375 0 L 20.296875 0 C 19.066406 -1.976562 18.191406 -3.859375 17.671875 -5.640625 C 17.160156 -7.429688 16.90625 -9.125 16.90625 -10.71875 C 16.90625 -13.0625 17.347656 -15.191406 18.234375 -17.109375 C 19.128906 -19.035156 20.234375 -20.789062 21.546875 -22.375 C 22.859375 -23.96875 24.160156 -25.398438 25.453125 -26.671875 C 26.742188 -27.941406 27.832031 -29.070312 28.71875 -30.0625 C 29.613281 -31.050781 30.0625 -31.941406 30.0625 -32.734375 C 30.0625 -33.410156 29.789062 -33.847656 29.25 -34.046875 C 28.71875 -34.242188 28.175781 -34.34375 27.625 -34.34375 C 26.550781 -34.34375 25.226562 -34.101562 23.65625 -33.625 C 22.09375 -33.15625 20.46875 -32.421875 18.78125 -31.421875 C 17.09375 -30.429688 15.515625 -29.191406 14.046875 -27.703125 C 12.578125 -26.222656 11.382812 -24.457031 10.46875 -22.40625 C 9.5625 -20.363281 9.109375 -18.035156 9.109375 -15.421875 C 9.109375 -13.234375 9.515625 -10.859375 10.328125 -8.296875 C 11.140625 -5.742188 12.457031 -2.976562 14.28125 0 Z M -0.890625 0 "/></g></g></g><g fill="#ffffff" fill-opacity="0.302"><g transform="translate(87.032295, 103.887586)"><g><path d="M 9.703125 0 C 8.867188 -1.625 8.28125 -3.191406 7.9375 -4.703125 C 7.601562 -6.210938 7.4375 -7.679688 7.4375 -9.109375 C 7.4375 -11.609375 7.84375 -13.945312 8.65625 -16.125 C 9.46875 -18.3125 10.398438 -20.328125 11.453125 -22.171875 C 12.503906 -24.015625 13.4375 -25.679688 14.25 -27.171875 C 15.070312 -28.660156 15.484375 -29.941406 15.484375 -31.015625 C 15.484375 -32.046875 15.070312 -32.816406 14.25 -33.328125 C 13.4375 -33.847656 12.554688 -34.109375 11.609375 -34.109375 C 10.378906 -34.109375 9.039062 -33.835938 7.59375 -33.296875 C 6.144531 -32.765625 4.773438 -32.171875 3.484375 -31.515625 C 2.191406 -30.867188 1.128906 -30.363281 0.296875 -30 L 0.296875 -44.890625 L 34.171875 -44.890625 L 34.171875 -30 C 33.847656 -30.238281 33.3125 -30.601562 32.5625 -31.09375 C 31.8125 -31.59375 30.921875 -32.09375 29.890625 -32.59375 C 28.859375 -33.09375 27.785156 -33.519531 26.671875 -33.875 C 25.554688 -34.226562 24.484375 -34.40625 23.453125 -34.40625 C 22.140625 -34.40625 21.113281 -34.125 20.375 -33.5625 C 19.644531 -33.007812 19.101562 -32.285156 18.75 -31.390625 C 18.394531 -30.503906 18.175781 -29.546875 18.09375 -28.515625 C 18.019531 -27.484375 17.984375 -26.488281 17.984375 -25.53125 C 17.984375 -22.476562 18.40625 -19.492188 19.25 -16.578125 C 20.101562 -13.660156 21.242188 -10.820312 22.671875 -8.0625 C 24.109375 -5.300781 25.640625 -2.613281 27.265625 0 Z M 9.703125 0 "/></g></g></g><g fill="#ffffff" fill-opacity="0.302"><g transform="translate(121.500902, 103.887586)"><g><path d="M 1.1875 0 C 2.457031 -3.445312 3.445312 -7.164062 4.15625 -11.15625 C 4.875 -15.144531 5.234375 -19.1875 5.234375 -23.28125 C 5.234375 -26.96875 4.90625 -30.644531 4.25 -34.3125 C 3.601562 -37.988281 2.582031 -41.515625 1.1875 -44.890625 C 3.289062 -45.128906 5.320312 -45.304688 7.28125 -45.421875 C 9.25 -45.535156 11.265625 -45.59375 13.328125 -45.59375 C 15.078125 -45.59375 16.875 -45.539062 18.71875 -45.4375 C 20.5625 -45.34375 22.335938 -45.109375 24.046875 -44.734375 C 25.753906 -44.359375 27.269531 -43.753906 28.59375 -42.921875 C 29.925781 -42.085938 30.957031 -40.9375 31.6875 -39.46875 C 32.425781 -38 32.738281 -36.113281 32.625 -33.8125 L 34.046875 -33.8125 C 34.679688 -36.195312 35.820312 -38.269531 37.46875 -40.03125 C 39.125 -41.800781 41.070312 -43.171875 43.3125 -44.140625 C 45.550781 -45.109375 47.878906 -45.59375 50.296875 -45.59375 C 51.648438 -45.59375 53.050781 -45.523438 54.5 -45.390625 C 55.945312 -45.253906 57.164062 -45.085938 58.15625 -44.890625 C 56.925781 -41.429688 55.941406 -37.71875 55.203125 -33.75 C 54.472656 -29.78125 54.109375 -25.734375 54.109375 -21.609375 C 54.109375 -17.921875 54.4375 -14.238281 55.09375 -10.5625 C 55.75 -6.894531 56.769531 -3.375 58.15625 0 L 41.25 0 C 40.019531 -1.976562 39.144531 -3.859375 38.625 -5.640625 C 38.113281 -7.429688 37.859375 -9.125 37.859375 -10.71875 C 37.859375 -13.0625 38.304688 -15.191406 39.203125 -17.109375 C 40.097656 -19.035156 41.195312 -20.789062 42.5 -22.375 C 43.8125 -23.96875 45.113281 -25.398438 46.40625 -26.671875 C 47.695312 -27.941406 48.785156 -29.070312 49.671875 -30.0625 C 50.566406 -31.050781 51.015625 -31.941406 51.015625 -32.734375 C 51.015625 -33.410156 50.742188 -33.847656 50.203125 -34.046875 C 49.671875 -34.242188 49.128906 -34.34375 48.578125 -34.34375 C 47.503906 -34.34375 46.179688 -34.101562 44.609375 -33.625 C 43.046875 -33.15625 41.429688 -32.421875 39.765625 -31.421875 C 38.097656 -30.429688 36.53125 -29.191406 35.0625 -27.703125 C 33.59375 -26.222656 32.398438 -24.457031 31.484375 -22.40625 C 30.578125 -20.363281 30.125 -18.035156 30.125 -15.421875 C 30.125 -13.234375 30.519531 -10.859375 31.3125 -8.296875 C 32.101562 -5.742188 33.414062 -2.976562 35.25 0 L 20.296875 0 C 19.304688 -1.625 18.492188 -3.335938 17.859375 -5.140625 C 17.222656 -6.953125 16.90625 -8.8125 16.90625 -10.71875 C 16.90625 -13.0625 17.347656 -15.191406 18.234375 -17.109375 C 19.128906 -19.035156 20.234375 -20.789062 21.546875 -22.375 C 22.859375 -23.96875 24.160156 -25.398438 25.453125 -26.671875 C 26.742188 -27.941406 27.832031 -29.070312 28.71875 -30.0625 C 29.613281 -31.050781 30.0625 -31.941406 30.0625 -32.734375 C 30.0625 -33.410156 29.789062 -33.847656 29.25 -34.046875 C 28.71875 -34.242188 28.175781 -34.34375 27.625 -34.34375 C 26.550781 -34.34375 25.226562 -34.101562 23.65625 -33.625 C 22.09375 -33.15625 20.46875 -32.421875 18.78125 -31.421875 C 17.09375 -30.429688 15.515625 -29.191406 14.046875 -27.703125 C 12.578125 -26.222656 11.382812 -24.457031 10.46875 -22.40625 C 9.5625 -20.363281 9.109375 -18.035156 9.109375 -15.421875 C 9.109375 -13.234375 9.515625 -10.859375 10.328125 -8.296875 C 11.140625 -5.742188 12.457031 -2.976562 14.28125 0 Z M 1.1875 0 "/></g></g></g><g fill="#ffffff" fill-opacity="0.302"><g transform="translate(180.913107, 103.887586)"><g><path d="M 19.9375 0.71875 C 16.769531 0.71875 13.992188 0.0625 11.609375 -1.25 C 9.222656 -2.5625 7.242188 -4.328125 5.671875 -6.546875 C 4.109375 -8.765625 2.929688 -11.242188 2.140625 -13.984375 C 1.347656 -16.722656 0.953125 -19.539062 0.953125 -22.4375 C 0.953125 -25.332031 1.347656 -28.160156 2.140625 -30.921875 C 2.929688 -33.679688 4.109375 -36.160156 5.671875 -38.359375 C 7.242188 -40.566406 9.222656 -42.320312 11.609375 -43.625 C 13.992188 -44.9375 16.769531 -45.59375 19.9375 -45.59375 C 23.113281 -45.59375 25.890625 -44.9375 28.265625 -43.625 C 30.648438 -42.320312 32.632812 -40.566406 34.21875 -38.359375 C 35.8125 -36.160156 37.003906 -33.679688 37.796875 -30.921875 C 38.597656 -28.160156 39 -25.332031 39 -22.4375 C 39 -19.539062 38.597656 -16.722656 37.796875 -13.984375 C 37.003906 -11.242188 35.8125 -8.765625 34.21875 -6.546875 C 32.632812 -4.328125 30.648438 -2.5625 28.265625 -1.25 C 25.890625 0.0625 23.113281 0.71875 19.9375 0.71875 Z M 31.078125 -34.34375 C 29.804688 -34.34375 28.265625 -34.023438 26.453125 -33.390625 C 24.648438 -32.753906 22.753906 -31.890625 20.765625 -30.796875 C 18.785156 -29.710938 16.84375 -28.472656 14.9375 -27.078125 C 13.03125 -25.691406 11.300781 -24.234375 9.75 -22.703125 C 8.207031 -21.179688 6.96875 -19.664062 6.03125 -18.15625 C 5.101562 -16.644531 4.640625 -15.238281 4.640625 -13.9375 C 4.640625 -12.695312 5.054688 -11.816406 5.890625 -11.296875 C 6.722656 -10.785156 7.695312 -10.53125 8.8125 -10.53125 C 10.125 -10.53125 11.671875 -10.847656 13.453125 -11.484375 C 15.242188 -12.117188 17.128906 -12.984375 19.109375 -14.078125 C 21.097656 -15.171875 23.039062 -16.410156 24.9375 -17.796875 C 26.84375 -19.191406 28.578125 -20.648438 30.140625 -22.171875 C 31.710938 -23.703125 32.960938 -25.226562 33.890625 -26.75 C 34.828125 -28.28125 35.296875 -29.703125 35.296875 -31.015625 C 35.296875 -32.242188 34.867188 -33.101562 34.015625 -33.59375 C 33.160156 -34.09375 32.179688 -34.34375 31.078125 -34.34375 Z M 31.078125 -34.34375 "/></g></g></g><g fill="#ffffff" fill-opacity="0.302"><g transform="translate(220.79906, 103.887586)"><g><path d="M 1.015625 0 L 1.015625 -14.765625 C 1.722656 -14.484375 2.957031 -14.09375 4.71875 -13.59375 C 6.488281 -13.101562 8.535156 -12.597656 10.859375 -12.078125 C 13.179688 -11.566406 15.550781 -11.128906 17.96875 -10.765625 C 20.394531 -10.410156 22.582031 -10.234375 24.53125 -10.234375 C 24.84375 -10.234375 25.335938 -10.253906 26.015625 -10.296875 C 26.691406 -10.335938 27.382812 -10.4375 28.09375 -10.59375 C 28.8125 -10.75 29.414062 -10.984375 29.90625 -11.296875 C 30.40625 -11.617188 30.65625 -12.0625 30.65625 -12.625 C 30.65625 -13.175781 30.128906 -13.640625 29.078125 -14.015625 C 28.023438 -14.390625 26.625 -14.765625 24.875 -15.140625 C 23.132812 -15.523438 21.234375 -15.972656 19.171875 -16.484375 C 17.109375 -17.003906 15.035156 -17.679688 12.953125 -18.515625 C 10.867188 -19.347656 8.953125 -20.414062 7.203125 -21.71875 C 5.453125 -23.03125 4.050781 -24.671875 3 -26.640625 C 1.945312 -28.609375 1.421875 -30.976562 1.421875 -33.75 C 1.421875 -35.8125 1.847656 -37.546875 2.703125 -38.953125 C 3.554688 -40.367188 4.6875 -41.515625 6.09375 -42.390625 C 7.507812 -43.265625 9.078125 -43.925781 10.796875 -44.375 C 12.523438 -44.832031 14.28125 -45.148438 16.0625 -45.328125 C 17.851562 -45.503906 19.523438 -45.59375 21.078125 -45.59375 C 22.660156 -45.59375 24.363281 -45.515625 26.1875 -45.359375 C 28.019531 -45.203125 29.429688 -45.046875 30.421875 -44.890625 L 30.421875 -29.890625 C 29.628906 -30.554688 28.609375 -31.253906 27.359375 -31.984375 C 26.109375 -32.722656 24.578125 -33.34375 22.765625 -33.84375 C 20.960938 -34.34375 18.832031 -34.59375 16.375 -34.59375 C 14.34375 -34.59375 12.414062 -34.273438 10.59375 -33.640625 C 8.769531 -33.003906 7.269531 -32.195312 6.09375 -31.21875 C 4.925781 -30.25 4.34375 -29.269531 4.34375 -28.28125 C 4.34375 -27.5625 4.585938 -27.023438 5.078125 -26.671875 C 5.578125 -26.316406 6.164062 -26.078125 6.84375 -25.953125 C 7.519531 -25.835938 8.132812 -25.78125 8.6875 -25.78125 C 10.3125 -25.78125 12.1875 -25.9375 14.3125 -26.25 C 16.4375 -26.570312 18.550781 -26.734375 20.65625 -26.734375 C 22.207031 -26.734375 23.707031 -26.5625 25.15625 -26.21875 C 26.601562 -25.882812 27.878906 -25.28125 28.984375 -24.40625 C 30.097656 -23.53125 30.984375 -22.28125 31.640625 -20.65625 C 32.296875 -19.03125 32.625 -16.925781 32.625 -14.34375 C 32.625 -11.570312 32.078125 -9.222656 30.984375 -7.296875 C 29.890625 -5.367188 28.457031 -3.804688 26.6875 -2.609375 C 24.925781 -1.421875 23.035156 -0.566406 21.015625 -0.046875 C 18.992188 0.460938 17.050781 0.71875 15.1875 0.71875 C 14.3125 0.71875 13.226562 0.695312 11.9375 0.65625 C 10.644531 0.613281 9.300781 0.5625 7.90625 0.5 C 6.519531 0.445312 5.222656 0.378906 4.015625 0.296875 C 2.804688 0.210938 1.804688 0.113281 1.015625 0 Z M 1.015625 0 "/></g></g></g><g fill="#ffffff" fill-opacity="0.302"><g transform="translate(254.43424, 103.887586)"><g><path d="M 1.015625 -44.890625 L 16.78125 -44.890625 C 17.457031 -43.535156 17.953125 -42.210938 18.265625 -40.921875 C 18.585938 -39.640625 18.75 -38.363281 18.75 -37.09375 C 18.75 -34.789062 18.351562 -32.597656 17.5625 -30.515625 C 16.769531 -28.429688 15.785156 -26.453125 14.609375 -24.578125 C 13.441406 -22.710938 12.269531 -20.992188 11.09375 -19.421875 C 9.925781 -17.859375 8.945312 -16.441406 8.15625 -15.171875 C 7.363281 -13.910156 6.96875 -12.820312 6.96875 -11.90625 C 6.96875 -11.226562 7.132812 -10.769531 7.46875 -10.53125 C 7.8125 -10.300781 8.296875 -10.1875 8.921875 -10.1875 C 9.992188 -10.1875 11.421875 -10.492188 13.203125 -11.109375 C 14.992188 -11.722656 16.890625 -12.613281 18.890625 -13.78125 C 20.898438 -14.945312 22.796875 -16.375 24.578125 -18.0625 C 26.367188 -19.75 27.828125 -21.675781 28.953125 -23.84375 C 30.085938 -26.007812 30.65625 -28.398438 30.65625 -31.015625 C 30.65625 -33.078125 30.21875 -35.269531 29.34375 -37.59375 C 28.476562 -39.914062 26.992188 -42.347656 24.890625 -44.890625 L 39.53125 -44.890625 C 38.257812 -41.429688 37.285156 -37.816406 36.609375 -34.046875 C 35.929688 -30.273438 35.59375 -26.523438 35.59375 -22.796875 C 35.59375 -20.816406 35.722656 -19.050781 35.984375 -17.5 C 36.242188 -15.957031 36.492188 -14.378906 36.734375 -12.765625 C 36.972656 -11.160156 37.09375 -9.226562 37.09375 -6.96875 C 37.09375 -2.039062 36.140625 2.054688 34.234375 5.328125 C 32.328125 8.597656 29.734375 11.054688 26.453125 12.703125 C 23.179688 14.359375 19.503906 15.1875 15.421875 15.1875 C 14.265625 15.1875 13.09375 15.125 11.90625 15 C 10.71875 14.882812 9.507812 14.6875 8.28125 14.40625 L 8.28125 2.265625 C 9.226562 2.421875 10.175781 2.535156 11.125 2.609375 C 12.082031 2.691406 13.054688 2.734375 14.046875 2.734375 C 16.785156 2.734375 19.425781 2.445312 21.96875 1.875 C 24.507812 1.300781 26.800781 0.5 28.84375 -0.53125 C 30.882812 -1.5625 32.5 -2.789062 33.6875 -4.21875 C 34.882812 -5.65625 35.484375 -7.222656 35.484375 -8.921875 C 35.484375 -10.273438 35.054688 -11.6875 34.203125 -13.15625 C 33.347656 -14.625 31.988281 -16.132812 30.125 -17.6875 L 29.53125 -17.6875 C 28.851562 -15.144531 27.828125 -12.757812 26.453125 -10.53125 C 25.085938 -8.3125 23.472656 -6.359375 21.609375 -4.671875 C 19.742188 -2.984375 17.695312 -1.660156 15.46875 -0.703125 C 13.25 0.242188 10.929688 0.71875 8.515625 0.71875 C 6.492188 0.71875 5.125 0.320312 4.40625 -0.46875 C 3.6875 -1.269531 3.328125 -2.460938 3.328125 -4.046875 C 3.328125 -5.359375 3.476562 -6.925781 3.78125 -8.75 C 4.082031 -10.570312 4.378906 -12.664062 4.671875 -15.03125 C 4.972656 -17.394531 5.125 -19.984375 5.125 -22.796875 C 5.125 -25.929688 4.832031 -29.332031 4.25 -33 C 3.675781 -36.675781 2.597656 -40.640625 1.015625 -44.890625 Z M 1.015625 -44.890625 "/></g></g></g><g fill="#ffffff" fill-opacity="0.302"><g transform="translate(294.558322, 103.887586)"><g><path d="M 1.1875 0 C 2.457031 -3.445312 3.445312 -7.164062 4.15625 -11.15625 C 4.875 -15.144531 5.234375 -19.1875 5.234375 -23.28125 C 5.234375 -26.96875 4.90625 -30.644531 4.25 -34.3125 C 3.601562 -37.988281 2.582031 -41.515625 1.1875 -44.890625 C 2.738281 -45.128906 4.273438 -45.304688 5.796875 -45.421875 C 7.328125 -45.535156 9.242188 -45.59375 11.546875 -45.59375 C 18.097656 -45.59375 22.890625 -44.691406 25.921875 -42.890625 C 28.960938 -41.085938 30.484375 -38.796875 30.484375 -36.015625 C 30.484375 -34.867188 30.265625 -33.628906 29.828125 -32.296875 C 29.390625 -30.960938 28.890625 -29.59375 28.328125 -28.1875 C 27.773438 -26.78125 27.28125 -25.390625 26.84375 -24.015625 C 26.40625 -22.648438 26.1875 -21.332031 26.1875 -20.0625 C 26.1875 -18.3125 26.8125 -16.75 28.0625 -15.375 C 29.3125 -14.007812 31.6875 -12.992188 35.1875 -12.328125 C 34.425781 -17.046875 33.71875 -22.148438 33.0625 -27.640625 C 32.414062 -33.140625 31.972656 -38.890625 31.734375 -44.890625 L 42.6875 -44.890625 C 41.695312 -40.441406 40.800781 -36.132812 40 -31.96875 C 39.207031 -27.800781 38.8125 -23.613281 38.8125 -19.40625 C 38.8125 -16.269531 39.097656 -13.101562 39.671875 -9.90625 C 40.253906 -6.71875 41.257812 -3.414062 42.6875 0 L 20.296875 0 C 18.984375 -2.101562 18.050781 -4.097656 17.5 -5.984375 C 16.945312 -7.867188 16.671875 -9.625 16.671875 -11.25 C 16.671875 -13.507812 17.054688 -15.570312 17.828125 -17.4375 C 18.597656 -19.300781 19.566406 -21.007812 20.734375 -22.5625 C 21.910156 -24.113281 23.070312 -25.503906 24.21875 -26.734375 C 25.375 -27.960938 26.335938 -29.0625 27.109375 -30.03125 C 27.890625 -31 28.28125 -31.863281 28.28125 -32.625 C 28.28125 -33.332031 28.03125 -33.796875 27.53125 -34.015625 C 27.03125 -34.234375 26.484375 -34.34375 25.890625 -34.34375 C 24.898438 -34.34375 23.679688 -34.113281 22.234375 -33.65625 C 20.785156 -33.207031 19.296875 -32.503906 17.765625 -31.546875 C 16.242188 -30.597656 14.804688 -29.390625 13.453125 -27.921875 C 12.109375 -26.453125 11.015625 -24.734375 10.171875 -22.765625 C 9.335938 -20.804688 8.921875 -18.554688 8.921875 -16.015625 C 8.921875 -13.796875 9.328125 -11.351562 10.140625 -8.6875 C 10.960938 -6.03125 12.34375 -3.132812 14.28125 0 Z M 1.1875 0 "/></g></g></g><g fill="#ffffff" fill-opacity="0.502"><g transform="translate(44.455514, 101.256291)"><g><path d="M -0.890625 0 C -0.0546875 -2.21875 0.863281 -4.554688 1.875 -7.015625 C 2.882812 -9.484375 3.882812 -12.035156 4.875 -14.671875 C 5.875 -17.316406 6.707031 -19.96875 7.375 -22.625 C 8.09375 -25.476562 8.453125 -28.414062 8.453125 -31.4375 C 8.453125 -34.132812 8.171875 -36.671875 7.609375 -39.046875 C 7.054688 -41.429688 6.265625 -43.378906 5.234375 -44.890625 L 31.1875 -44.890625 C 31.1875 -39.015625 31.472656 -33.484375 32.046875 -28.296875 C 32.628906 -23.117188 33.613281 -18.1875 35 -13.5 C 36.394531 -8.820312 38.34375 -4.320312 40.84375 0 L 20.296875 0 C 19.066406 -1.976562 18.191406 -3.859375 17.671875 -5.640625 C 17.160156 -7.429688 16.90625 -9.125 16.90625 -10.71875 C 16.90625 -13.0625 17.347656 -15.191406 18.234375 -17.109375 C 19.128906 -19.035156 20.234375 -20.789062 21.546875 -22.375 C 22.859375 -23.96875 24.160156 -25.398438 25.453125 -26.671875 C 26.742188 -27.941406 27.832031 -29.070312 28.71875 -30.0625 C 29.613281 -31.050781 30.0625 -31.941406 30.0625 -32.734375 C 30.0625 -33.410156 29.789062 -33.847656 29.25 -34.046875 C 28.71875 -34.242188 28.175781 -34.34375 27.625 -34.34375 C 26.550781 -34.34375 25.226562 -34.101562 23.65625 -33.625 C 22.09375 -33.15625 20.46875 -32.421875 18.78125 -31.421875 C 17.09375 -30.429688 15.515625 -29.191406 14.046875 -27.703125 C 12.578125 -26.222656 11.382812 -24.457031 10.46875 -22.40625 C 9.5625 -20.363281 9.109375 -18.035156 9.109375 -15.421875 C 9.109375 -13.234375 9.515625 -10.859375 10.328125 -8.296875 C 11.140625 -5.742188 12.457031 -2.976562 14.28125 0 Z M -0.890625 0 "/></g></g></g><g fill="#ffffff" fill-opacity="0.502"><g transform="translate(84.401, 101.256291)"><g><path d="M 9.703125 0 C 8.867188 -1.625 8.28125 -3.191406 7.9375 -4.703125 C 7.601562 -6.210938 7.4375 -7.679688 7.4375 -9.109375 C 7.4375 -11.609375 7.84375 -13.945312 8.65625 -16.125 C 9.46875 -18.3125 10.398438 -20.328125 11.453125 -22.171875 C 12.503906 -24.015625 13.4375 -25.679688 14.25 -27.171875 C 15.070312 -28.660156 15.484375 -29.941406 15.484375 -31.015625 C 15.484375 -32.046875 15.070312 -32.816406 14.25 -33.328125 C 13.4375 -33.847656 12.554688 -34.109375 11.609375 -34.109375 C 10.378906 -34.109375 9.039062 -33.835938 7.59375 -33.296875 C 6.144531 -32.765625 4.773438 -32.171875 3.484375 -31.515625 C 2.191406 -30.867188 1.128906 -30.363281 0.296875 -30 L 0.296875 -44.890625 L 34.171875 -44.890625 L 34.171875 -30 C 33.847656 -30.238281 33.3125 -30.601562 32.5625 -31.09375 C 31.8125 -31.59375 30.921875 -32.09375 29.890625 -32.59375 C 28.859375 -33.09375 27.785156 -33.519531 26.671875 -33.875 C 25.554688 -34.226562 24.484375 -34.40625 23.453125 -34.40625 C 22.140625 -34.40625 21.113281 -34.125 20.375 -33.5625 C 19.644531 -33.007812 19.101562 -32.285156 18.75 -31.390625 C 18.394531 -30.503906 18.175781 -29.546875 18.09375 -28.515625 C 18.019531 -27.484375 17.984375 -26.488281 17.984375 -25.53125 C 17.984375 -22.476562 18.40625 -19.492188 19.25 -16.578125 C 20.101562 -13.660156 21.242188 -10.820312 22.671875 -8.0625 C 24.109375 -5.300781 25.640625 -2.613281 27.265625 0 Z M 9.703125 0 "/></g></g></g><g fill="#ffffff" fill-opacity="0.502"><g transform="translate(118.869607, 101.256291)"><g><path d="M 1.1875 0 C 2.457031 -3.445312 3.445312 -7.164062 4.15625 -11.15625 C 4.875 -15.144531 5.234375 -19.1875 5.234375 -23.28125 C 5.234375 -26.96875 4.90625 -30.644531 4.25 -34.3125 C 3.601562 -37.988281 2.582031 -41.515625 1.1875 -44.890625 C 3.289062 -45.128906 5.320312 -45.304688 7.28125 -45.421875 C 9.25 -45.535156 11.265625 -45.59375 13.328125 -45.59375 C 15.078125 -45.59375 16.875 -45.539062 18.71875 -45.4375 C 20.5625 -45.34375 22.335938 -45.109375 24.046875 -44.734375 C 25.753906 -44.359375 27.269531 -43.753906 28.59375 -42.921875 C 29.925781 -42.085938 30.957031 -40.9375 31.6875 -39.46875 C 32.425781 -38 32.738281 -36.113281 32.625 -33.8125 L 34.046875 -33.8125 C 34.679688 -36.195312 35.820312 -38.269531 37.46875 -40.03125 C 39.125 -41.800781 41.070312 -43.171875 43.3125 -44.140625 C 45.550781 -45.109375 47.878906 -45.59375 50.296875 -45.59375 C 51.648438 -45.59375 53.050781 -45.523438 54.5 -45.390625 C 55.945312 -45.253906 57.164062 -45.085938 58.15625 -44.890625 C 56.925781 -41.429688 55.941406 -37.71875 55.203125 -33.75 C 54.472656 -29.78125 54.109375 -25.734375 54.109375 -21.609375 C 54.109375 -17.921875 54.4375 -14.238281 55.09375 -10.5625 C 55.75 -6.894531 56.769531 -3.375 58.15625 0 L 41.25 0 C 40.019531 -1.976562 39.144531 -3.859375 38.625 -5.640625 C 38.113281 -7.429688 37.859375 -9.125 37.859375 -10.71875 C 37.859375 -13.0625 38.304688 -15.191406 39.203125 -17.109375 C 40.097656 -19.035156 41.195312 -20.789062 42.5 -22.375 C 43.8125 -23.96875 45.113281 -25.398438 46.40625 -26.671875 C 47.695312 -27.941406 48.785156 -29.070312 49.671875 -30.0625 C 50.566406 -31.050781 51.015625 -31.941406 51.015625 -32.734375 C 51.015625 -33.410156 50.742188 -33.847656 50.203125 -34.046875 C 49.671875 -34.242188 49.128906 -34.34375 48.578125 -34.34375 C 47.503906 -34.34375 46.179688 -34.101562 44.609375 -33.625 C 43.046875 -33.15625 41.429688 -32.421875 39.765625 -31.421875 C 38.097656 -30.429688 36.53125 -29.191406 35.0625 -27.703125 C 33.59375 -26.222656 32.398438 -24.457031 31.484375 -22.40625 C 30.578125 -20.363281 30.125 -18.035156 30.125 -15.421875 C 30.125 -13.234375 30.519531 -10.859375 31.3125 -8.296875 C 32.101562 -5.742188 33.414062 -2.976562 35.25 0 L 20.296875 0 C 19.304688 -1.625 18.492188 -3.335938 17.859375 -5.140625 C 17.222656 -6.953125 16.90625 -8.8125 16.90625 -10.71875 C 16.90625 -13.0625 17.347656 -15.191406 18.234375 -17.109375 C 19.128906 -19.035156 20.234375 -20.789062 21.546875 -22.375 C 22.859375 -23.96875 24.160156 -25.398438 25.453125 -26.671875 C 26.742188 -27.941406 27.832031 -29.070312 28.71875 -30.0625 C 29.613281 -31.050781 30.0625 -31.941406 30.0625 -32.734375 C 30.0625 -33.410156 29.789062 -33.847656 29.25 -34.046875 C 28.71875 -34.242188 28.175781 -34.34375 27.625 -34.34375 C 26.550781 -34.34375 25.226562 -34.101562 23.65625 -33.625 C 22.09375 -33.15625 20.46875 -32.421875 18.78125 -31.421875 C 17.09375 -30.429688 15.515625 -29.191406 14.046875 -27.703125 C 12.578125 -26.222656 11.382812 -24.457031 10.46875 -22.40625 C 9.5625 -20.363281 9.109375 -18.035156 9.109375 -15.421875 C 9.109375 -13.234375 9.515625 -10.859375 10.328125 -8.296875 C 11.140625 -5.742188 12.457031 -2.976562 14.28125 0 Z M 1.1875 0 "/></g></g></g><g fill="#ffffff" fill-opacity="0.502"><g transform="translate(178.281812, 101.256291)"><g><path d="M 19.9375 0.71875 C 16.769531 0.71875 13.992188 0.0625 11.609375 -1.25 C 9.222656 -2.5625 7.242188 -4.328125 5.671875 -6.546875 C 4.109375 -8.765625 2.929688 -11.242188 2.140625 -13.984375 C 1.347656 -16.722656 0.953125 -19.539062 0.953125 -22.4375 C 0.953125 -25.332031 1.347656 -28.160156 2.140625 -30.921875 C 2.929688 -33.679688 4.109375 -36.160156 5.671875 -38.359375 C 7.242188 -40.566406 9.222656 -42.320312 11.609375 -43.625 C 13.992188 -44.9375 16.769531 -45.59375 19.9375 -45.59375 C 23.113281 -45.59375 25.890625 -44.9375 28.265625 -43.625 C 30.648438 -42.320312 32.632812 -40.566406 34.21875 -38.359375 C 35.8125 -36.160156 37.003906 -33.679688 37.796875 -30.921875 C 38.597656 -28.160156 39 -25.332031 39 -22.4375 C 39 -19.539062 38.597656 -16.722656 37.796875 -13.984375 C 37.003906 -11.242188 35.8125 -8.765625 34.21875 -6.546875 C 32.632812 -4.328125 30.648438 -2.5625 28.265625 -1.25 C 25.890625 0.0625 23.113281 0.71875 19.9375 0.71875 Z M 31.078125 -34.34375 C 29.804688 -34.34375 28.265625 -34.023438 26.453125 -33.390625 C 24.648438 -32.753906 22.753906 -31.890625 20.765625 -30.796875 C 18.785156 -29.710938 16.84375 -28.472656 14.9375 -27.078125 C 13.03125 -25.691406 11.300781 -24.234375 9.75 -22.703125 C 8.207031 -21.179688 6.96875 -19.664062 6.03125 -18.15625 C 5.101562 -16.644531 4.640625 -15.238281 4.640625 -13.9375 C 4.640625 -12.695312 5.054688 -11.816406 5.890625 -11.296875 C 6.722656 -10.785156 7.695312 -10.53125 8.8125 -10.53125 C 10.125 -10.53125 11.671875 -10.847656 13.453125 -11.484375 C 15.242188 -12.117188 17.128906 -12.984375 19.109375 -14.078125 C 21.097656 -15.171875 23.039062 -16.410156 24.9375 -17.796875 C 26.84375 -19.191406 28.578125 -20.648438 30.140625 -22.171875 C 31.710938 -23.703125 32.960938 -25.226562 33.890625 -26.75 C 34.828125 -28.28125 35.296875 -29.703125 35.296875 -31.015625 C 35.296875 -32.242188 34.867188 -33.101562 34.015625 -33.59375 C 33.160156 -34.09375 32.179688 -34.34375 31.078125 -34.34375 Z M 31.078125 -34.34375 "/></g></g></g><g fill="#ffffff" fill-opacity="0.502"><g transform="translate(218.167765, 101.256291)"><g><path d="M 1.015625 0 L 1.015625 -14.765625 C 1.722656 -14.484375 2.957031 -14.09375 4.71875 -13.59375 C 6.488281 -13.101562 8.535156 -12.597656 10.859375 -12.078125 C 13.179688 -11.566406 15.550781 -11.128906 17.96875 -10.765625 C 20.394531 -10.410156 22.582031 -10.234375 24.53125 -10.234375 C 24.84375 -10.234375 25.335938 -10.253906 26.015625 -10.296875 C 26.691406 -10.335938 27.382812 -10.4375 28.09375 -10.59375 C 28.8125 -10.75 29.414062 -10.984375 29.90625 -11.296875 C 30.40625 -11.617188 30.65625 -12.0625 30.65625 -12.625 C 30.65625 -13.175781 30.128906 -13.640625 29.078125 -14.015625 C 28.023438 -14.390625 26.625 -14.765625 24.875 -15.140625 C 23.132812 -15.523438 21.234375 -15.972656 19.171875 -16.484375 C 17.109375 -17.003906 15.035156 -17.679688 12.953125 -18.515625 C 10.867188 -19.347656 8.953125 -20.414062 7.203125 -21.71875 C 5.453125 -23.03125 4.050781 -24.671875 3 -26.640625 C 1.945312 -28.609375 1.421875 -30.976562 1.421875 -33.75 C 1.421875 -35.8125 1.847656 -37.546875 2.703125 -38.953125 C 3.554688 -40.367188 4.6875 -41.515625 6.09375 -42.390625 C 7.507812 -43.265625 9.078125 -43.925781 10.796875 -44.375 C 12.523438 -44.832031 14.28125 -45.148438 16.0625 -45.328125 C 17.851562 -45.503906 19.523438 -45.59375 21.078125 -45.59375 C 22.660156 -45.59375 24.363281 -45.515625 26.1875 -45.359375 C 28.019531 -45.203125 29.429688 -45.046875 30.421875 -44.890625 L 30.421875 -29.890625 C 29.628906 -30.554688 28.609375 -31.253906 27.359375 -31.984375 C 26.109375 -32.722656 24.578125 -33.34375 22.765625 -33.84375 C 20.960938 -34.34375 18.832031 -34.59375 16.375 -34.59375 C 14.34375 -34.59375 12.414062 -34.273438 10.59375 -33.640625 C 8.769531 -33.003906 7.269531 -32.195312 6.09375 -31.21875 C 4.925781 -30.25 4.34375 -29.269531 4.34375 -28.28125 C 4.34375 -27.5625 4.585938 -27.023438 5.078125 -26.671875 C 5.578125 -26.316406 6.164062 -26.078125 6.84375 -25.953125 C 7.519531 -25.835938 8.132812 -25.78125 8.6875 -25.78125 C 10.3125 -25.78125 12.1875 -25.9375 14.3125 -26.25 C 16.4375 -26.570312 18.550781 -26.734375 20.65625 -26.734375 C 22.207031 -26.734375 23.707031 -26.5625 25.15625 -26.21875 C 26.601562 -25.882812 27.878906 -25.28125 28.984375 -24.40625 C 30.097656 -23.53125 30.984375 -22.28125 31.640625 -20.65625 C 32.296875 -19.03125 32.625 -16.925781 32.625 -14.34375 C 32.625 -11.570312 32.078125 -9.222656 30.984375 -7.296875 C 29.890625 -5.367188 28.457031 -3.804688 26.6875 -2.609375 C 24.925781 -1.421875 23.035156 -0.566406 21.015625 -0.046875 C 18.992188 0.460938 17.050781 0.71875 15.1875 0.71875 C 14.3125 0.71875 13.226562 0.695312 11.9375 0.65625 C 10.644531 0.613281 9.300781 0.5625 7.90625 0.5 C 6.519531 0.445312 5.222656 0.378906 4.015625 0.296875 C 2.804688 0.210938 1.804688 0.113281 1.015625 0 Z M 1.015625 0 "/></g></g></g><g fill="#ffffff" fill-opacity="0.502"><g transform="translate(251.802945, 101.256291)"><g><path d="M 1.015625 -44.890625 L 16.78125 -44.890625 C 17.457031 -43.535156 17.953125 -42.210938 18.265625 -40.921875 C 18.585938 -39.640625 18.75 -38.363281 18.75 -37.09375 C 18.75 -34.789062 18.351562 -32.597656 17.5625 -30.515625 C 16.769531 -28.429688 15.785156 -26.453125 14.609375 -24.578125 C 13.441406 -22.710938 12.269531 -20.992188 11.09375 -19.421875 C 9.925781 -17.859375 8.945312 -16.441406 8.15625 -15.171875 C 7.363281 -13.910156 6.96875 -12.820312 6.96875 -11.90625 C 6.96875 -11.226562 7.132812 -10.769531 7.46875 -10.53125 C 7.8125 -10.300781 8.296875 -10.1875 8.921875 -10.1875 C 9.992188 -10.1875 11.421875 -10.492188 13.203125 -11.109375 C 14.992188 -11.722656 16.890625 -12.613281 18.890625 -13.78125 C 20.898438 -14.945312 22.796875 -16.375 24.578125 -18.0625 C 26.367188 -19.75 27.828125 -21.675781 28.953125 -23.84375 C 30.085938 -26.007812 30.65625 -28.398438 30.65625 -31.015625 C 30.65625 -33.078125 30.21875 -35.269531 29.34375 -37.59375 C 28.476562 -39.914062 26.992188 -42.347656 24.890625 -44.890625 L 39.53125 -44.890625 C 38.257812 -41.429688 37.285156 -37.816406 36.609375 -34.046875 C 35.929688 -30.273438 35.59375 -26.523438 35.59375 -22.796875 C 35.59375 -20.816406 35.722656 -19.050781 35.984375 -17.5 C 36.242188 -15.957031 36.492188 -14.378906 36.734375 -12.765625 C 36.972656 -11.160156 37.09375 -9.226562 37.09375 -6.96875 C 37.09375 -2.039062 36.140625 2.054688 34.234375 5.328125 C 32.328125 8.597656 29.734375 11.054688 26.453125 12.703125 C 23.179688 14.359375 19.503906 15.1875 15.421875 15.1875 C 14.265625 15.1875 13.09375 15.125 11.90625 15 C 10.71875 14.882812 9.507812 14.6875 8.28125 14.40625 L 8.28125 2.265625 C 9.226562 2.421875 10.175781 2.535156 11.125 2.609375 C 12.082031 2.691406 13.054688 2.734375 14.046875 2.734375 C 16.785156 2.734375 19.425781 2.445312 21.96875 1.875 C 24.507812 1.300781 26.800781 0.5 28.84375 -0.53125 C 30.882812 -1.5625 32.5 -2.789062 33.6875 -4.21875 C 34.882812 -5.65625 35.484375 -7.222656 35.484375 -8.921875 C 35.484375 -10.273438 35.054688 -11.6875 34.203125 -13.15625 C 33.347656 -14.625 31.988281 -16.132812 30.125 -17.6875 L 29.53125 -17.6875 C 28.851562 -15.144531 27.828125 -12.757812 26.453125 -10.53125 C 25.085938 -8.3125 23.472656 -6.359375 21.609375 -4.671875 C 19.742188 -2.984375 17.695312 -1.660156 15.46875 -0.703125 C 13.25 0.242188 10.929688 0.71875 8.515625 0.71875 C 6.492188 0.71875 5.125 0.320312 4.40625 -0.46875 C 3.6875 -1.269531 3.328125 -2.460938 3.328125 -4.046875 C 3.328125 -5.359375 3.476562 -6.925781 3.78125 -8.75 C 4.082031 -10.570312 4.378906 -12.664062 4.671875 -15.03125 C 4.972656 -17.394531 5.125 -19.984375 5.125 -22.796875 C 5.125 -25.929688 4.832031 -29.332031 4.25 -33 C 3.675781 -36.675781 2.597656 -40.640625 1.015625 -44.890625 Z M 1.015625 -44.890625 "/></g></g></g><g fill="#ffffff" fill-opacity="0.502"><g transform="translate(291.927027, 101.256291)"><g><path d="M 1.1875 0 C 2.457031 -3.445312 3.445312 -7.164062 4.15625 -11.15625 C 4.875 -15.144531 5.234375 -19.1875 5.234375 -23.28125 C 5.234375 -26.96875 4.90625 -30.644531 4.25 -34.3125 C 3.601562 -37.988281 2.582031 -41.515625 1.1875 -44.890625 C 2.738281 -45.128906 4.273438 -45.304688 5.796875 -45.421875 C 7.328125 -45.535156 9.242188 -45.59375 11.546875 -45.59375 C 18.097656 -45.59375 22.890625 -44.691406 25.921875 -42.890625 C 28.960938 -41.085938 30.484375 -38.796875 30.484375 -36.015625 C 30.484375 -34.867188 30.265625 -33.628906 29.828125 -32.296875 C 29.390625 -30.960938 28.890625 -29.59375 28.328125 -28.1875 C 27.773438 -26.78125 27.28125 -25.390625 26.84375 -24.015625 C 26.40625 -22.648438 26.1875 -21.332031 26.1875 -20.0625 C 26.1875 -18.3125 26.8125 -16.75 28.0625 -15.375 C 29.3125 -14.007812 31.6875 -12.992188 35.1875 -12.328125 C 34.425781 -17.046875 33.71875 -22.148438 33.0625 -27.640625 C 32.414062 -33.140625 31.972656 -38.890625 31.734375 -44.890625 L 42.6875 -44.890625 C 41.695312 -40.441406 40.800781 -36.132812 40 -31.96875 C 39.207031 -27.800781 38.8125 -23.613281 38.8125 -19.40625 C 38.8125 -16.269531 39.097656 -13.101562 39.671875 -9.90625 C 40.253906 -6.71875 41.257812 -3.414062 42.6875 0 L 20.296875 0 C 18.984375 -2.101562 18.050781 -4.097656 17.5 -5.984375 C 16.945312 -7.867188 16.671875 -9.625 16.671875 -11.25 C 16.671875 -13.507812 17.054688 -15.570312 17.828125 -17.4375 C 18.597656 -19.300781 19.566406 -21.007812 20.734375 -22.5625 C 21.910156 -24.113281 23.070312 -25.503906 24.21875 -26.734375 C 25.375 -27.960938 26.335938 -29.0625 27.109375 -30.03125 C 27.890625 -31 28.28125 -31.863281 28.28125 -32.625 C 28.28125 -33.332031 28.03125 -33.796875 27.53125 -34.015625 C 27.03125 -34.234375 26.484375 -34.34375 25.890625 -34.34375 C 24.898438 -34.34375 23.679688 -34.113281 22.234375 -33.65625 C 20.785156 -33.207031 19.296875 -32.503906 17.765625 -31.546875 C 16.242188 -30.597656 14.804688 -29.390625 13.453125 -27.921875 C 12.109375 -26.453125 11.015625 -24.734375 10.171875 -22.765625 C 9.335938 -20.804688 8.921875 -18.554688 8.921875 -16.015625 C 8.921875 -13.796875 9.328125 -11.351562 10.140625 -8.6875 C 10.960938 -6.03125 12.34375 -3.132812 14.28125 0 Z M 1.1875 0 "/></g></g></g><g fill="#000000" fill-opacity="1"><g transform="translate(41.824219, 98.624996)"><g><path d="M -0.890625 0 C -0.0546875 -2.21875 0.863281 -4.554688 1.875 -7.015625 C 2.882812 -9.484375 3.882812 -12.035156 4.875 -14.671875 C 5.875 -17.316406 6.707031 -19.96875 7.375 -22.625 C 8.09375 -25.476562 8.453125 -28.414062 8.453125 -31.4375 C 8.453125 -34.132812 8.171875 -36.671875 7.609375 -39.046875 C 7.054688 -41.429688 6.265625 -43.378906 5.234375 -44.890625 L 31.1875 -44.890625 C 31.1875 -39.015625 31.472656 -33.484375 32.046875 -28.296875 C 32.628906 -23.117188 33.613281 -18.1875 35 -13.5 C 36.394531 -8.820312 38.34375 -4.320312 40.84375 0 L 20.296875 0 C 19.066406 -1.976562 18.191406 -3.859375 17.671875 -5.640625 C 17.160156 -7.429688 16.90625 -9.125 16.90625 -10.71875 C 16.90625 -13.0625 17.347656 -15.191406 18.234375 -17.109375 C 19.128906 -19.035156 20.234375 -20.789062 21.546875 -22.375 C 22.859375 -23.96875 24.160156 -25.398438 25.453125 -26.671875 C 26.742188 -27.941406 27.832031 -29.070312 28.71875 -30.0625 C 29.613281 -31.050781 30.0625 -31.941406 30.0625 -32.734375 C 30.0625 -33.410156 29.789062 -33.847656 29.25 -34.046875 C 28.71875 -34.242188 28.175781 -34.34375 27.625 -34.34375 C 26.550781 -34.34375 25.226562 -34.101562 23.65625 -33.625 C 22.09375 -33.15625 20.46875 -32.421875 18.78125 -31.421875 C 17.09375 -30.429688 15.515625 -29.191406 14.046875 -27.703125 C 12.578125 -26.222656 11.382812 -24.457031 10.46875 -22.40625 C 9.5625 -20.363281 9.109375 -18.035156 9.109375 -15.421875 C 9.109375 -13.234375 9.515625 -10.859375 10.328125 -8.296875 C 11.140625 -5.742188 12.457031 -2.976562 14.28125 0 Z M -0.890625 0 "/></g></g></g><g fill="#000000" fill-opacity="1"><g transform="translate(81.769705, 98.624996)"><g><path d="M 9.703125 0 C 8.867188 -1.625 8.28125 -3.191406 7.9375 -4.703125 C 7.601562 -6.210938 7.4375 -7.679688 7.4375 -9.109375 C 7.4375 -11.609375 7.84375 -13.945312 8.65625 -16.125 C 9.46875 -18.3125 10.398438 -20.328125 11.453125 -22.171875 C 12.503906 -24.015625 13.4375 -25.679688 14.25 -27.171875 C 15.070312 -28.660156 15.484375 -29.941406 15.484375 -31.015625 C 15.484375 -32.046875 15.070312 -32.816406 14.25 -33.328125 C 13.4375 -33.847656 12.554688 -34.109375 11.609375 -34.109375 C 10.378906 -34.109375 9.039062 -33.835938 7.59375 -33.296875 C 6.144531 -32.765625 4.773438 -32.171875 3.484375 -31.515625 C 2.191406 -30.867188 1.128906 -30.363281 0.296875 -30 L 0.296875 -44.890625 L 34.171875 -44.890625 L 34.171875 -30 C 33.847656 -30.238281 33.3125 -30.601562 32.5625 -31.09375 C 31.8125 -31.59375 30.921875 -32.09375 29.890625 -32.59375 C 28.859375 -33.09375 27.785156 -33.519531 26.671875 -33.875 C 25.554688 -34.226562 24.484375 -34.40625 23.453125 -34.40625 C 22.140625 -34.40625 21.113281 -34.125 20.375 -33.5625 C 19.644531 -33.007812 19.101562 -32.285156 18.75 -31.390625 C 18.394531 -30.503906 18.175781 -29.546875 18.09375 -28.515625 C 18.019531 -27.484375 17.984375 -26.488281 17.984375 -25.53125 C 17.984375 -22.476562 18.40625 -19.492188 19.25 -16.578125 C 20.101562 -13.660156 21.242188 -10.820312 22.671875 -8.0625 C 24.109375 -5.300781 25.640625 -2.613281 27.265625 0 Z M 9.703125 0 "/></g></g></g><g fill="#000000" fill-opacity="1"><g transform="translate(116.238312, 98.624996)"><g><path d="M 1.1875 0 C 2.457031 -3.445312 3.445312 -7.164062 4.15625 -11.15625 C 4.875 -15.144531 5.234375 -19.1875 5.234375 -23.28125 C 5.234375 -26.96875 4.90625 -30.644531 4.25 -34.3125 C 3.601562 -37.988281 2.582031 -41.515625 1.1875 -44.890625 C 3.289062 -45.128906 5.320312 -45.304688 7.28125 -45.421875 C 9.25 -45.535156 11.265625 -45.59375 13.328125 -45.59375 C 15.078125 -45.59375 16.875 -45.539062 18.71875 -45.4375 C 20.5625 -45.34375 22.335938 -45.109375 24.046875 -44.734375 C 25.753906 -44.359375 27.269531 -43.753906 28.59375 -42.921875 C 29.925781 -42.085938 30.957031 -40.9375 31.6875 -39.46875 C 32.425781 -38 32.738281 -36.113281 32.625 -33.8125 L 34.046875 -33.8125 C 34.679688 -36.195312 35.820312 -38.269531 37.46875 -40.03125 C 39.125 -41.800781 41.070312 -43.171875 43.3125 -44.140625 C 45.550781 -45.109375 47.878906 -45.59375 50.296875 -45.59375 C 51.648438 -45.59375 53.050781 -45.523438 54.5 -45.390625 C 55.945312 -45.253906 57.164062 -45.085938 58.15625 -44.890625 C 56.925781 -41.429688 55.941406 -37.71875 55.203125 -33.75 C 54.472656 -29.78125 54.109375 -25.734375 54.109375 -21.609375 C 54.109375 -17.921875 54.4375 -14.238281 55.09375 -10.5625 C 55.75 -6.894531 56.769531 -3.375 58.15625 0 L 41.25 0 C 40.019531 -1.976562 39.144531 -3.859375 38.625 -5.640625 C 38.113281 -7.429688 37.859375 -9.125 37.859375 -10.71875 C 37.859375 -13.0625 38.304688 -15.191406 39.203125 -17.109375 C 40.097656 -19.035156 41.195312 -20.789062 42.5 -22.375 C 43.8125 -23.96875 45.113281 -25.398438 46.40625 -26.671875 C 47.695312 -27.941406 48.785156 -29.070312 49.671875 -30.0625 C 50.566406 -31.050781 51.015625 -31.941406 51.015625 -32.734375 C 51.015625 -33.410156 50.742188 -33.847656 50.203125 -34.046875 C 49.671875 -34.242188 49.128906 -34.34375 48.578125 -34.34375 C 47.503906 -34.34375 46.179688 -34.101562 44.609375 -33.625 C 43.046875 -33.15625 41.429688 -32.421875 39.765625 -31.421875 C 38.097656 -30.429688 36.53125 -29.191406 35.0625 -27.703125 C 33.59375 -26.222656 32.398438 -24.457031 31.484375 -22.40625 C 30.578125 -20.363281 30.125 -18.035156 30.125 -15.421875 C 30.125 -13.234375 30.519531 -10.859375 31.3125 -8.296875 C 32.101562 -5.742188 33.414062 -2.976562 35.25 0 L 20.296875 0 C 19.304688 -1.625 18.492188 -3.335938 17.859375 -5.140625 C 17.222656 -6.953125 16.90625 -8.8125 16.90625 -10.71875 C 16.90625 -13.0625 17.347656 -15.191406 18.234375 -17.109375 C 19.128906 -19.035156 20.234375 -20.789062 21.546875 -22.375 C 22.859375 -23.96875 24.160156 -25.398438 25.453125 -26.671875 C 26.742188 -27.941406 27.832031 -29.070312 28.71875 -30.0625 C 29.613281 -31.050781 30.0625 -31.941406 30.0625 -32.734375 C 30.0625 -33.410156 29.789062 -33.847656 29.25 -34.046875 C 28.71875 -34.242188 28.175781 -34.34375 27.625 -34.34375 C 26.550781 -34.34375 25.226562 -34.101562 23.65625 -33.625 C 22.09375 -33.15625 20.46875 -32.421875 18.78125 -31.421875 C 17.09375 -30.429688 15.515625 -29.191406 14.046875 -27.703125 C 12.578125 -26.222656 11.382812 -24.457031 10.46875 -22.40625 C 9.5625 -20.363281 9.109375 -18.035156 9.109375 -15.421875 C 9.109375 -13.234375 9.515625 -10.859375 10.328125 -8.296875 C 11.140625 -5.742188 12.457031 -2.976562 14.28125 0 Z M 1.1875 0 "/></g></g></g><g fill="#000000" fill-opacity="1"><g transform="translate(175.650517, 98.624996)"><g><path d="M 19.9375 0.71875 C 16.769531 0.71875 13.992188 0.0625 11.609375 -1.25 C 9.222656 -2.5625 7.242188 -4.328125 5.671875 -6.546875 C 4.109375 -8.765625 2.929688 -11.242188 2.140625 -13.984375 C 1.347656 -16.722656 0.953125 -19.539062 0.953125 -22.4375 C 0.953125 -25.332031 1.347656 -28.160156 2.140625 -30.921875 C 2.929688 -33.679688 4.109375 -36.160156 5.671875 -38.359375 C 7.242188 -40.566406 9.222656 -42.320312 11.609375 -43.625 C 13.992188 -44.9375 16.769531 -45.59375 19.9375 -45.59375 C 23.113281 -45.59375 25.890625 -44.9375 28.265625 -43.625 C 30.648438 -42.320312 32.632812 -40.566406 34.21875 -38.359375 C 35.8125 -36.160156 37.003906 -33.679688 37.796875 -30.921875 C 38.597656 -28.160156 39 -25.332031 39 -22.4375 C 39 -19.539062 38.597656 -16.722656 37.796875 -13.984375 C 37.003906 -11.242188 35.8125 -8.765625 34.21875 -6.546875 C 32.632812 -4.328125 30.648438 -2.5625 28.265625 -1.25 C 25.890625 0.0625 23.113281 0.71875 19.9375 0.71875 Z M 31.078125 -34.34375 C 29.804688 -34.34375 28.265625 -34.023438 26.453125 -33.390625 C 24.648438 -32.753906 22.753906 -31.890625 20.765625 -30.796875 C 18.785156 -29.710938 16.84375 -28.472656 14.9375 -27.078125 C 13.03125 -25.691406 11.300781 -24.234375 9.75 -22.703125 C 8.207031 -21.179688 6.96875 -19.664062 6.03125 -18.15625 C 5.101562 -16.644531 4.640625 -15.238281 4.640625 -13.9375 C 4.640625 -12.695312 5.054688 -11.816406 5.890625 -11.296875 C 6.722656 -10.785156 7.695312 -10.53125 8.8125 -10.53125 C 10.125 -10.53125 11.671875 -10.847656 13.453125 -11.484375 C 15.242188 -12.117188 17.128906 -12.984375 19.109375 -14.078125 C 21.097656 -15.171875 23.039062 -16.410156 24.9375 -17.796875 C 26.84375 -19.191406 28.578125 -20.648438 30.140625 -22.171875 C 31.710938 -23.703125 32.960938 -25.226562 33.890625 -26.75 C 34.828125 -28.28125 35.296875 -29.703125 35.296875 -31.015625 C 35.296875 -32.242188 34.867188 -33.101562 34.015625 -33.59375 C 33.160156 -34.09375 32.179688 -34.34375 31.078125 -34.34375 Z M 31.078125 -34.34375 "/></g></g></g><g fill="#000000" fill-opacity="1"><g transform="translate(215.53647, 98.624996)"><g><path d="M 1.015625 0 L 1.015625 -14.765625 C 1.722656 -14.484375 2.957031 -14.09375 4.71875 -13.59375 C 6.488281 -13.101562 8.535156 -12.597656 10.859375 -12.078125 C 13.179688 -11.566406 15.550781 -11.128906 17.96875 -10.765625 C 20.394531 -10.410156 22.582031 -10.234375 24.53125 -10.234375 C 24.84375 -10.234375 25.335938 -10.253906 26.015625 -10.296875 C 26.691406 -10.335938 27.382812 -10.4375 28.09375 -10.59375 C 28.8125 -10.75 29.414062 -10.984375 29.90625 -11.296875 C 30.40625 -11.617188 30.65625 -12.0625 30.65625 -12.625 C 30.65625 -13.175781 30.128906 -13.640625 29.078125 -14.015625 C 28.023438 -14.390625 26.625 -14.765625 24.875 -15.140625 C 23.132812 -15.523438 21.234375 -15.972656 19.171875 -16.484375 C 17.109375 -17.003906 15.035156 -17.679688 12.953125 -18.515625 C 10.867188 -19.347656 8.953125 -20.414062 7.203125 -21.71875 C 5.453125 -23.03125 4.050781 -24.671875 3 -26.640625 C 1.945312 -28.609375 1.421875 -30.976562 1.421875 -33.75 C 1.421875 -35.8125 1.847656 -37.546875 2.703125 -38.953125 C 3.554688 -40.367188 4.6875 -41.515625 6.09375 -42.390625 C 7.507812 -43.265625 9.078125 -43.925781 10.796875 -44.375 C 12.523438 -44.832031 14.28125 -45.148438 16.0625 -45.328125 C 17.851562 -45.503906 19.523438 -45.59375 21.078125 -45.59375 C 22.660156 -45.59375 24.363281 -45.515625 26.1875 -45.359375 C 28.019531 -45.203125 29.429688 -45.046875 30.421875 -44.890625 L 30.421875 -29.890625 C 29.628906 -30.554688 28.609375 -31.253906 27.359375 -31.984375 C 26.109375 -32.722656 24.578125 -33.34375 22.765625 -33.84375 C 20.960938 -34.34375 18.832031 -34.59375 16.375 -34.59375 C 14.34375 -34.59375 12.414062 -34.273438 10.59375 -33.640625 C 8.769531 -33.003906 7.269531 -32.195312 6.09375 -31.21875 C 4.925781 -30.25 4.34375 -29.269531 4.34375 -28.28125 C 4.34375 -27.5625 4.585938 -27.023438 5.078125 -26.671875 C 5.578125 -26.316406 6.164062 -26.078125 6.84375 -25.953125 C 7.519531 -25.835938 8.132812 -25.78125 8.6875 -25.78125 C 10.3125 -25.78125 12.1875 -25.9375 14.3125 -26.25 C 16.4375 -26.570312 18.550781 -26.734375 20.65625 -26.734375 C 22.207031 -26.734375 23.707031 -26.5625 25.15625 -26.21875 C 26.601562 -25.882812 27.878906 -25.28125 28.984375 -24.40625 C 30.097656 -23.53125 30.984375 -22.28125 31.640625 -20.65625 C 32.296875 -19.03125 32.625 -16.925781 32.625 -14.34375 C 32.625 -11.570312 32.078125 -9.222656 30.984375 -7.296875 C 29.890625 -5.367188 28.457031 -3.804688 26.6875 -2.609375 C 24.925781 -1.421875 23.035156 -0.566406 21.015625 -0.046875 C 18.992188 0.460938 17.050781 0.71875 15.1875 0.71875 C 14.3125 0.71875 13.226562 0.695312 11.9375 0.65625 C 10.644531 0.613281 9.300781 0.5625 7.90625 0.5 C 6.519531 0.445312 5.222656 0.378906 4.015625 0.296875 C 2.804688 0.210938 1.804688 0.113281 1.015625 0 Z M 1.015625 0 "/></g></g></g><g fill="#000000" fill-opacity="1"><g transform="translate(249.17165, 98.624996)"><g><path d="M 1.015625 -44.890625 L 16.78125 -44.890625 C 17.457031 -43.535156 17.953125 -42.210938 18.265625 -40.921875 C 18.585938 -39.640625 18.75 -38.363281 18.75 -37.09375 C 18.75 -34.789062 18.351562 -32.597656 17.5625 -30.515625 C 16.769531 -28.429688 15.785156 -26.453125 14.609375 -24.578125 C 13.441406 -22.710938 12.269531 -20.992188 11.09375 -19.421875 C 9.925781 -17.859375 8.945312 -16.441406 8.15625 -15.171875 C 7.363281 -13.910156 6.96875 -12.820312 6.96875 -11.90625 C 6.96875 -11.226562 7.132812 -10.769531 7.46875 -10.53125 C 7.8125 -10.300781 8.296875 -10.1875 8.921875 -10.1875 C 9.992188 -10.1875 11.421875 -10.492188 13.203125 -11.109375 C 14.992188 -11.722656 16.890625 -12.613281 18.890625 -13.78125 C 20.898438 -14.945312 22.796875 -16.375 24.578125 -18.0625 C 26.367188 -19.75 27.828125 -21.675781 28.953125 -23.84375 C 30.085938 -26.007812 30.65625 -28.398438 30.65625 -31.015625 C 30.65625 -33.078125 30.21875 -35.269531 29.34375 -37.59375 C 28.476562 -39.914062 26.992188 -42.347656 24.890625 -44.890625 L 39.53125 -44.890625 C 38.257812 -41.429688 37.285156 -37.816406 36.609375 -34.046875 C 35.929688 -30.273438 35.59375 -26.523438 35.59375 -22.796875 C 35.59375 -20.816406 35.722656 -19.050781 35.984375 -17.5 C 36.242188 -15.957031 36.492188 -14.378906 36.734375 -12.765625 C 36.972656 -11.160156 37.09375 -9.226562 37.09375 -6.96875 C 37.09375 -2.039062 36.140625 2.054688 34.234375 5.328125 C 32.328125 8.597656 29.734375 11.054688 26.453125 12.703125 C 23.179688 14.359375 19.503906 15.1875 15.421875 15.1875 C 14.265625 15.1875 13.09375 15.125 11.90625 15 C 10.71875 14.882812 9.507812 14.6875 8.28125 14.40625 L 8.28125 2.265625 C 9.226562 2.421875 10.175781 2.535156 11.125 2.609375 C 12.082031 2.691406 13.054688 2.734375 14.046875 2.734375 C 16.785156 2.734375 19.425781 2.445312 21.96875 1.875 C 24.507812 1.300781 26.800781 0.5 28.84375 -0.53125 C 30.882812 -1.5625 32.5 -2.789062 33.6875 -4.21875 C 34.882812 -5.65625 35.484375 -7.222656 35.484375 -8.921875 C 35.484375 -10.273438 35.054688 -11.6875 34.203125 -13.15625 C 33.347656 -14.625 31.988281 -16.132812 30.125 -17.6875 L 29.53125 -17.6875 C 28.851562 -15.144531 27.828125 -12.757812 26.453125 -10.53125 C 25.085938 -8.3125 23.472656 -6.359375 21.609375 -4.671875 C 19.742188 -2.984375 17.695312 -1.660156 15.46875 -0.703125 C 13.25 0.242188 10.929688 0.71875 8.515625 0.71875 C 6.492188 0.71875 5.125 0.320312 4.40625 -0.46875 C 3.6875 -1.269531 3.328125 -2.460938 3.328125 -4.046875 C 3.328125 -5.359375 3.476562 -6.925781 3.78125 -8.75 C 4.082031 -10.570312 4.378906 -12.664062 4.671875 -15.03125 C 4.972656 -17.394531 5.125 -19.984375 5.125 -22.796875 C 5.125 -25.929688 4.832031 -29.332031 4.25 -33 C 3.675781 -36.675781 2.597656 -40.640625 1.015625 -44.890625 Z M 1.015625 -44.890625 "/></g></g></g><g fill="#000000" fill-opacity="1"><g transform="translate(289.295732, 98.624996)"><g><path d="M 1.1875 0 C 2.457031 -3.445312 3.445312 -7.164062 4.15625 -11.15625 C 4.875 -15.144531 5.234375 -19.1875 5.234375 -23.28125 C 5.234375 -26.96875 4.90625 -30.644531 4.25 -34.3125 C 3.601562 -37.988281 2.582031 -41.515625 1.1875 -44.890625 C 2.738281 -45.128906 4.273438 -45.304688 5.796875 -45.421875 C 7.328125 -45.535156 9.242188 -45.59375 11.546875 -45.59375 C 18.097656 -45.59375 22.890625 -44.691406 25.921875 -42.890625 C 28.960938 -41.085938 30.484375 -38.796875 30.484375 -36.015625 C 30.484375 -34.867188 30.265625 -33.628906 29.828125 -32.296875 C 29.390625 -30.960938 28.890625 -29.59375 28.328125 -28.1875 C 27.773438 -26.78125 27.28125 -25.390625 26.84375 -24.015625 C 26.40625 -22.648438 26.1875 -21.332031 26.1875 -20.0625 C 26.1875 -18.3125 26.8125 -16.75 28.0625 -15.375 C 29.3125 -14.007812 31.6875 -12.992188 35.1875 -12.328125 C 34.425781 -17.046875 33.71875 -22.148438 33.0625 -27.640625 C 32.414062 -33.140625 31.972656 -38.890625 31.734375 -44.890625 L 42.6875 -44.890625 C 41.695312 -40.441406 40.800781 -36.132812 40 -31.96875 C 39.207031 -27.800781 38.8125 -23.613281 38.8125 -19.40625 C 38.8125 -16.269531 39.097656 -13.101562 39.671875 -9.90625 C 40.253906 -6.71875 41.257812 -3.414062 42.6875 0 L 20.296875 0 C 18.984375 -2.101562 18.050781 -4.097656 17.5 -5.984375 C 16.945312 -7.867188 16.671875 -9.625 16.671875 -11.25 C 16.671875 -13.507812 17.054688 -15.570312 17.828125 -17.4375 C 18.597656 -19.300781 19.566406 -21.007812 20.734375 -22.5625 C 21.910156 -24.113281 23.070312 -25.503906 24.21875 -26.734375 C 25.375 -27.960938 26.335938 -29.0625 27.109375 -30.03125 C 27.890625 -31 28.28125 -31.863281 28.28125 -32.625 C 28.28125 -33.332031 28.03125 -33.796875 27.53125 -34.015625 C 27.03125 -34.234375 26.484375 -34.34375 25.890625 -34.34375 C 24.898438 -34.34375 23.679688 -34.113281 22.234375 -33.65625 C 20.785156 -33.207031 19.296875 -32.503906 17.765625 -31.546875 C 16.242188 -30.597656 14.804688 -29.390625 13.453125 -27.921875 C 12.109375 -26.453125 11.015625 -24.734375 10.171875 -22.765625 C 9.335938 -20.804688 8.921875 -18.554688 8.921875 -16.015625 C 8.921875 -13.796875 9.328125 -11.351562 10.140625 -8.6875 C 10.960938 -6.03125 12.34375 -3.132812 14.28125 0 Z M 1.1875 0 "/></g></g></g></svg>