<svg xmlns="http://www.w3.org/2000/svg" xmlns:xlink="http://www.w3.org/1999/xlink" width="500" zoomAndPan="magnify" viewBox="0 0 375 149.999998" height="200" preserveAspectRatio="xMidYMid meet" version="1.0"><defs><g/></defs><g fill="#ffffff" fill-opacity="0.302"><g transform="translate(172.782118, 103.887586)"><g><path d="M -0.890625 0 C -0.0546875 -2.21875 0.863281 -4.554688 1.875 -7.015625 C 2.882812 -9.484375 3.882812 -12.035156 4.875 -14.671875 C 5.875 -17.316406 6.707031 -19.96875 7.375 -22.625 C 8.09375 -25.476562 8.453125 -28.414062 8.453125 -31.4375 C 8.453125 -34.132812 8.171875 -36.671875 7.609375 -39.046875 C 7.054688 -41.429688 6.265625 -43.378906 5.234375 -44.890625 L 31.1875 -44.890625 C 31.1875 -39.015625 31.472656 -33.484375 32.046875 -28.296875 C 32.628906 -23.117188 33.613281 -18.1875 35 -13.5 C 36.394531 -8.820312 38.34375 -4.320312 40.84375 0 L 20.296875 0 C 19.066406 -1.976562 18.191406 -3.859375 17.671875 -5.640625 C 17.160156 -7.429688 16.90625 -9.125 16.90625 -10.71875 C 16.90625 -13.0625 17.347656 -15.191406 18.234375 -17.109375 C 19.128906 -19.035156 20.234375 -20.789062 21.546875 -22.375 C 22.859375 -23.96875 24.160156 -25.398438 25.453125 -26.671875 C 26.742188 -27.941406 27.832031 -29.070312 28.71875 -30.0625 C 29.613281 -31.050781 30.0625 -31.941406 30.0625 -32.734375 C 30.0625 -33.410156 29.789062 -33.847656 29.25 -34.046875 C 28.71875 -34.242188 28.175781 -34.34375 27.625 -34.34375 C 26.550781 -34.34375 25.226562 -34.101562 23.65625 -33.625 C 22.09375 -33.15625 20.46875 -32.421875 18.78125 -31.421875 C 17.09375 -30.429688 15.515625 -29.191406 14.046875 -27.703125 C 12.578125 -26.222656 11.382812 -24.457031 10.46875 -22.40625 C 9.5625 -20.363281 9.109375 -18.035156 9.109375 -15.421875 C 9.109375 -13.234375 9.515625 -10.859375 10.328125 -8.296875 C 11.140625 -5.742188 12.457031 -2.976562 14.28125 0 Z M -0.890625 0 "/></g></g></g><g fill="#ffffff" fill-opacity="0.502"><g transform="translate(170.150823, 101.256291)"><g><path d="M -0.890625 0 C -0.0546875 -2.21875 0.863281 -4.554688 1.875 -7.015625 C 2.882812 -9.484375 3.882812 -12.035156 4.875 -14.671875 C 5.875 -17.316406 6.707031 -19.96875 7.375 -22.625 C 8.09375 -25.476562 8.453125 -28.414062 8.453125 -31.4375 C 8.453125 -34.132812 8.171875 -36.671875 7.609375 -39.046875 C 7.054688 -41.429688 6.265625 -43.378906 5.234375 -44.890625 L 31.1875 -44.890625 C 31.1875 -39.015625 31.472656 -33.484375 32.046875 -28.296875 C 32.628906 -23.117188 33.613281 -18.1875 35 -13.5 C 36.394531 -8.820312 38.34375 -4.320312 40.84375 0 L 20.296875 0 C 19.066406 -1.976562 18.191406 -3.859375 17.671875 -5.640625 C 17.160156 -7.429688 16.90625 -9.125 16.90625 -10.71875 C 16.90625 -13.0625 17.347656 -15.191406 18.234375 -17.109375 C 19.128906 -19.035156 20.234375 -20.789062 21.546875 -22.375 C 22.859375 -23.96875 24.160156 -25.398438 25.453125 -26.671875 C 26.742188 -27.941406 27.832031 -29.070312 28.71875 -30.0625 C 29.613281 -31.050781 30.0625 -31.941406 30.0625 -32.734375 C 30.0625 -33.410156 29.789062 -33.847656 29.25 -34.046875 C 28.71875 -34.242188 28.175781 -34.34375 27.625 -34.34375 C 26.550781 -34.34375 25.226562 -34.101562 23.65625 -33.625 C 22.09375 -33.15625 20.46875 -32.421875 18.78125 -31.421875 C 17.09375 -30.429688 15.515625 -29.191406 14.046875 -27.703125 C 12.578125 -26.222656 11.382812 -24.457031 10.46875 -22.40625 C 9.5625 -20.363281 9.109375 -18.035156 9.109375 -15.421875 C 9.109375 -13.234375 9.515625 -10.859375 10.328125 -8.296875 C 11.140625 -5.742188 12.457031 -2.976562 14.28125 0 Z M -0.890625 0 "/></g></g></g><g fill="#000000" fill-opacity="1"><g transform="translate(167.519528, 98.624996)"><g><path d="M -0.890625 0 C -0.0546875 -2.21875 0.863281 -4.554688 1.875 -7.015625 C 2.882812 -9.484375 3.882812 -12.035156 4.875 -14.671875 C 5.875 -17.316406 6.707031 -19.96875 7.375 -22.625 C 8.09375 -25.476562 8.453125 -28.414062 8.453125 -31.4375 C 8.453125 -34.132812 8.171875 -36.671875 7.609375 -39.046875 C 7.054688 -41.429688 6.265625 -43.378906 5.234375 -44.890625 L 31.1875 -44.890625 C 31.1875 -39.015625 31.472656 -33.484375 32.046875 -28.296875 C 32.628906 -23.117188 33.613281 -18.1875 35 -13.5 C 36.394531 -8.820312 38.34375 -4.320312 40.84375 0 L 20.296875 0 C 19.066406 -1.976562 18.191406 -3.859375 17.671875 -5.640625 C 17.160156 -7.429688 16.90625 -9.125 16.90625 -10.71875 C 16.90625 -13.0625 17.347656 -15.191406 18.234375 -17.109375 C 19.128906 -19.035156 20.234375 -20.789062 21.546875 -22.375 C 22.859375 -23.96875 24.160156 -25.398438 25.453125 -26.671875 C 26.742188 -27.941406 27.832031 -29.070312 28.71875 -30.0625 C 29.613281 -31.050781 30.0625 -31.941406 30.0625 -32.734375 C 30.0625 -33.410156 29.789062 -33.847656 29.25 -34.046875 C 28.71875 -34.242188 28.175781 -34.34375 27.625 -34.34375 C 26.550781 -34.34375 25.226562 -34.101562 23.65625 -33.625 C 22.09375 -33.15625 20.46875 -32.421875 18.78125 -31.421875 C 17.09375 -30.429688 15.515625 -29.191406 14.046875 -27.703125 C 12.578125 -26.222656 11.382812 -24.457031 10.46875 -22.40625 C 9.5625 -20.363281 9.109375 -18.035156 9.109375 -15.421875 C 9.109375 -13.234375 9.515625 -10.859375 10.328125 -8.296875 C 11.140625 -5.742188 12.457031 -2.976562 14.28125 0 Z M -0.890625 0 "/></g></g></g></svg>